<?xml version="1.0" encoding="iso-8859-1"?>
<!-- Generator: Adobe Illustrator 16.0.0, SVG Export Plug-In . SVG Version: 6.00 Build 0)  -->
<!DOCTYPE svg PUBLIC "-//W3C//DTD SVG 1.1//EN" "http://www.w3.org/Graphics/SVG/1.1/DTD/svg11.dtd">
<svg version="1.1" id="Capa_1" xmlns="http://www.w3.org/2000/svg" xmlns:xlink="http://www.w3.org/1999/xlink" x="0px" y="0px"
	 width="45.461px" height="45.461px" viewBox="0 0 45.461 45.461" style="enable-background:new 0 0 45.461 45.461;"
	 xml:space="preserve">
<g>
	<g>
		<path d="M19.927,24.264l0.72-0.602c1.126-1.006,2.073-2.047,2.073-3.355c0-1.414-0.97-2.444-2.732-2.444
			c-1.054,0-1.965,0.36-2.553,0.805l0.516,1.306c0.407-0.313,0.995-0.646,1.666-0.646c0.899,0,1.283,0.502,1.283,1.138
			c-0.025,0.909-0.85,1.785-2.552,3.308l-1.006,0.912v1.099h5.498V24.3h-2.914L19.927,24.264L19.927,24.264z"/>
		<path d="M28.942,17.975h-2.228l-2.94,4.766v1.172h3.463v1.869h1.705v-1.869h0.935v-1.374h-0.935V17.975z M27.237,20.835v1.703
			h-1.759v-0.001l1.038-1.692c0.264-0.491,0.463-0.945,0.715-1.44h0.047C27.244,19.899,27.237,20.368,27.237,20.835z"/>
		<path d="M34.379,19.794c-0.336,0-0.678,0.08-0.941,0.223c-0.287,0.156-0.521,0.377-0.713,0.598h-0.044v-3.354h-1.813v8.521h1.813
			V22.31c0-0.133,0.021-0.288,0.069-0.407c0.133-0.323,0.43-0.637,0.91-0.637c0.682,0,0.944,0.528,0.944,1.296v3.22h1.813v-3.424
			C36.418,20.595,35.543,19.794,34.379,19.794z"/>
		<path d="M21.004,31.359l-5.037-2.926c-0.191-0.904-0.687-1.699-1.375-2.268l0.022-13.229c0.002-1.409-1.138-2.549-2.548-2.549
			c-0.001,0-0.003,0-0.004,0c-1.408,0-2.55,1.132-2.553,2.54L9.486,26.162c-0.899,0.736-1.473,1.854-1.473,3.107
			c0,2.221,1.8,4.02,4.021,4.02c0.559,0,1.09-0.115,1.574-0.32l4.833,2.805c0.403,0.235,0.844,0.347,1.279,0.347
			c0.88,0,1.737-0.454,2.21-1.271C22.64,33.63,22.225,32.066,21.004,31.359z"/>
		<path d="M37.246,0H8.221C3.697,0,0.027,3.705,0.027,8.229v29.024c0,4.524,3.669,8.208,8.193,8.208h29.025
			c4.522,0,8.188-3.684,8.188-8.208V8.228C45.434,3.705,41.769,0,37.246,0z M40.32,37.253c0,1.709-1.367,3.097-3.076,3.097H8.221
			c-1.708,0-3.08-1.388-3.08-3.097V8.228c0-1.708,1.372-3.116,3.08-3.116h29.025c1.707,0,3.075,1.408,3.075,3.116L40.32,37.253
			L40.32,37.253z"/>
	</g>
</g>
<g>
</g>
<g>
</g>
<g>
</g>
<g>
</g>
<g>
</g>
<g>
</g>
<g>
</g>
<g>
</g>
<g>
</g>
<g>
</g>
<g>
</g>
<g>
</g>
<g>
</g>
<g>
</g>
<g>
</g>
</svg>
