<?xml version="1.0" encoding="iso-8859-1"?>
<!-- Generator: Adobe Illustrator 16.0.0, SVG Export Plug-In . SVG Version: 6.00 Build 0)  -->
<!DOCTYPE svg PUBLIC "-//W3C//DTD SVG 1.1//EN" "http://www.w3.org/Graphics/SVG/1.1/DTD/svg11.dtd">
<svg version="1.1" id="Capa_1" xmlns="http://www.w3.org/2000/svg" xmlns:xlink="http://www.w3.org/1999/xlink" x="0px" y="0px"
	 width="45.936px" height="45.936px" viewBox="0 0 45.936 45.936" style="enable-background:new 0 0 45.936 45.936;"
	 xml:space="preserve">
<g>
	<g>
		<circle cx="7.34" cy="10.505" r="1.327"/>
		<circle cx="11.061" cy="9.178" r="1.328"/>
		<circle cx="9.732" cy="13.104" r="1.327"/>
		<path d="M42.459,39.983c2.203-1.505,3.477-3.414,3.477-5.727c0-1.231-0.365-4.352-1.041-6.492c-0.337-1.073-1.332-1.81-2.457-1.81
			H3.015V4.502c0-0.541,0.44-0.958,0.98-0.958h2.038c0.539,0,0.963,0.417,0.963,0.958V5.52c0,0.827,0.682,1.497,1.507,1.497
			c0.827,0,1.508-0.67,1.508-1.497V4.013c0-1.924-1.566-3.483-3.49-3.483H3.508C1.583,0.53,0,2.09,0,4.013
			c0,0,0.023,30.11,0.023,30.244c0,2.312,1.272,4.222,3.477,5.727l-2.002,2.023c-0.776,0.782-0.771,2.047,0.013,2.821
			c0.39,0.386,0.897,0.578,1.405,0.578c0.515,0,1.027-0.196,1.418-0.591l2.925-2.955c4.107,1.521,9.638,2.288,15.722,2.288
			c6.082,0,11.612-0.767,15.72-2.288l2.924,2.955c0.392,0.395,0.902,0.591,1.419,0.591c0.508,0,1.017-0.192,1.403-0.578
			c0.785-0.774,0.791-2.039,0.015-2.821L42.459,39.983z"/>
	</g>
</g>
<g>
</g>
<g>
</g>
<g>
</g>
<g>
</g>
<g>
</g>
<g>
</g>
<g>
</g>
<g>
</g>
<g>
</g>
<g>
</g>
<g>
</g>
<g>
</g>
<g>
</g>
<g>
</g>
<g>
</g>
</svg>
