<?xml version="1.0" encoding="iso-8859-1"?>
<!-- Generator: Adobe Illustrator 16.0.0, SVG Export Plug-In . SVG Version: 6.00 Build 0)  -->
<!DOCTYPE svg PUBLIC "-//W3C//DTD SVG 1.1//EN" "http://www.w3.org/Graphics/SVG/1.1/DTD/svg11.dtd">
<svg version="1.1" id="Capa_1" xmlns="http://www.w3.org/2000/svg" xmlns:xlink="http://www.w3.org/1999/xlink" x="0px" y="0px"
	 width="46.206px" height="46.206px" viewBox="0 0 46.206 46.206" style="enable-background:new 0 0 46.206 46.206;"
	 xml:space="preserve">
<g>
	<g>
		<path d="M43.35,43.243H2.856c-0.817,0-1.481,0.664-1.481,1.481s0.664,1.481,1.481,1.481H43.35c0.816,0,1.48-0.664,1.48-1.481
			C44.832,43.907,44.167,43.243,43.35,43.243z"/>
		<path d="M23.104,42.042c10.698,0,19.549-7.813,21.211-18.042c0.108-0.674-0.084-1.365-0.525-1.885
			c-0.443-0.52-1.094-0.823-1.775-0.823H4.192c-0.683,0-1.331,0.305-1.772,0.824c-0.442,0.52-0.637,1.21-0.528,1.884
			C3.553,34.229,12.407,42.042,23.104,42.042z M37.899,23.393c0.984,0,1.781,0.797,1.781,1.781s-0.797,1.782-1.781,1.782
			s-1.783-0.798-1.783-1.782S36.915,23.393,37.899,23.393z M22.839,36.469c0.374-0.014,8.447-0.369,11.938-7.693
			c0.353-0.739,1.238-1.04,1.976-0.688c0.738,0.353,1.052,1.149,0.7,1.888c-4.29,9-14.109,9.316-14.524,9.316
			c-0.015,0-0.031,0-0.046,0c-0.797,0-1.454-0.543-1.479-1.346C21.38,37.129,22.023,36.493,22.839,36.469z"/>
		<path d="M21.111,8.966v1.898c0,1.091,0.885,1.976,1.975,1.976c1.092,0,1.977-0.885,1.977-1.976V8.966
			c1.646-0.747,2.74-2.375,2.74-4.265C27.803,2.105,25.703,0,23.107,0c-2.595,0-4.71,2.104-4.71,4.701
			C18.396,6.59,19.576,8.219,21.111,8.966z"/>
		<circle cx="21.798" cy="15.634" r="1.314"/>
		<circle cx="25.481" cy="14.321" r="1.314"/>
		<circle cx="24.167" cy="18.206" r="1.314"/>
	</g>
</g>
<g>
</g>
<g>
</g>
<g>
</g>
<g>
</g>
<g>
</g>
<g>
</g>
<g>
</g>
<g>
</g>
<g>
</g>
<g>
</g>
<g>
</g>
<g>
</g>
<g>
</g>
<g>
</g>
<g>
</g>
</svg>
