<?xml version="1.0" encoding="iso-8859-1"?>
<!-- Generator: Adobe Illustrator 16.0.0, SVG Export Plug-In . SVG Version: 6.00 Build 0)  -->
<!DOCTYPE svg PUBLIC "-//W3C//DTD SVG 1.1//EN" "http://www.w3.org/Graphics/SVG/1.1/DTD/svg11.dtd">
<svg version="1.1" id="Capa_1" xmlns="http://www.w3.org/2000/svg" xmlns:xlink="http://www.w3.org/1999/xlink" x="0px" y="0px"
	 width="45.884px" height="45.885px" viewBox="0 0 45.884 45.885" style="enable-background:new 0 0 45.884 45.885;"
	 xml:space="preserve">
<g>
	<path d="M38.138,18.505h-4.84v-1.871c1.834-1.506,2.998-3.742,2.998-6.235c0-4.521-3.826-8.197-8.529-8.197
		c-0.815,0-1.614,0.11-2.379,0.324C23.75,0.939,21.493,0,19.088,0c-3.066,0-5.885,1.553-7.486,3.964
		c-3.855,0.531-6.827,3.732-6.827,7.589c0,2.522,1.273,4.765,3.232,6.161v26.142c0,1.121,0.979,2.029,2.252,2.029h20.729
		c1.275,0,2.311-0.908,2.311-2.029V38.77h4.84c1.639,0,2.972-1.307,2.972-2.945V21.489C41.11,19.85,39.777,18.505,38.138,18.505z
		 M12.738,6.926c0.258,0,0.51,0.024,0.757,0.062c0.704-2.279,2.938-3.949,5.591-3.949c2.386,0,4.434,1.35,5.334,3.278
		c0.928-0.671,2.086-1.074,3.346-1.074c3.031,0,5.488,2.308,5.488,5.156c0,2.85-2.457,5.159-5.488,5.159
		c-0.028,0-0.056-0.004-0.082-0.004c-0.473,1.345-1.805,2.322-3.393,2.322c-1.624,0-2.98-1.021-3.421-2.414
		c-0.633,0.527-1.458,0.858-2.37,0.858c-1.076,0-2.03-0.454-2.688-1.16c-0.843,0.635-1.912,1.019-3.076,1.019
		c-2.719,0-4.923-2.072-4.923-4.626C7.814,8.997,10.019,6.926,12.738,6.926z M13.305,42.337c-0.839,0-1.508-0.68-1.508-1.52V19.165
		c0.309,0.034,0.623,0.053,0.941,0.053c0.703,0,1.4-0.092,2.076-0.268v21.867C14.813,41.657,14.145,42.337,13.305,42.337z
		 M20.421,42.337c-0.839,0-1.508-0.68-1.508-1.52v-21.47c0.304-0.02,0.607-0.057,0.905-0.115c0.611,0.546,1.327,0.976,2.11,1.264
		v20.322C21.929,41.657,21.261,42.337,20.421,42.337z M27.497,42.337c-0.839,0-1.546-0.68-1.546-1.52V20.71
		c1.184-0.298,2.253-0.908,3.093-1.752v21.859C29.043,41.657,28.337,42.337,27.497,42.337z M37.087,34.294
		c0,0.244-0.234,0.453-0.479,0.453h-3.311V22.604h3.311c0.244,0,0.479,0.17,0.479,0.416V34.294z"/>
</g>
<g>
</g>
<g>
</g>
<g>
</g>
<g>
</g>
<g>
</g>
<g>
</g>
<g>
</g>
<g>
</g>
<g>
</g>
<g>
</g>
<g>
</g>
<g>
</g>
<g>
</g>
<g>
</g>
<g>
</g>
</svg>
