<?xml version="1.0" encoding="iso-8859-1"?>
<!-- Generator: Adobe Illustrator 16.0.0, SVG Export Plug-In . SVG Version: 6.00 Build 0)  -->
<!DOCTYPE svg PUBLIC "-//W3C//DTD SVG 1.1//EN" "http://www.w3.org/Graphics/SVG/1.1/DTD/svg11.dtd">
<svg version="1.1" id="Capa_1" xmlns="http://www.w3.org/2000/svg" xmlns:xlink="http://www.w3.org/1999/xlink" x="0px" y="0px"
	 width="46.02px" height="46.02px" viewBox="0 0 46.02 46.02" style="enable-background:new 0 0 46.02 46.02;" xml:space="preserve"
	>
<g>
	<g>
		<path d="M22.164,29.918c3.616,0,6.558-2.951,6.558-6.565c0-0.99-0.222-1.935-0.616-2.783h-11.88
			c-0.396,0.849-0.617,1.795-0.617,2.785C15.608,26.971,18.55,29.918,22.164,29.918z"/>
		<path d="M34.919,20.568h-3.552c0.264,0.915,0.407,1.822,0.407,2.785c0,5.3-4.312,9.617-9.61,9.617s-9.61-4.319-9.61-9.619
			c0-0.964,0.144-1.868,0.409-2.783H9.411c-0.446,0-0.871,0.205-1.163,0.543c-0.294,0.337-0.427,0.788-0.364,1.231l3.165,22.61
			c0.085,0.61,0.607,1.067,1.224,1.067h19.541c0.61,0,1.13-0.447,1.222-1.051l3.409-22.61c0.067-0.444-0.063-0.901-0.356-1.241
			C35.795,20.775,35.368,20.568,34.919,20.568z"/>
		<path d="M37.168,2.622l-5.339-2.466c-0.824-0.38-1.803-0.04-2.214,0.771l-0.74,1.456c-0.208,0.41-0.239,0.886-0.089,1.319
			c0.15,0.433,0.472,0.787,0.888,0.98l5.449,2.515c0.416,0.192,0.895,0.207,1.321,0.04c0.428-0.166,0.77-0.5,0.945-0.924l0.63-1.506
			C38.369,3.967,37.992,3.002,37.168,2.622z"/>
		<path d="M21.456,18.219h10.857c0.394,0,0.743-0.234,0.87-0.605L35.118,12c0.281-0.818-0.102-1.715-0.889-2.079l-6.053-2.792
			c-0.788-0.364-1.724-0.07-2.163,0.676l-5.349,9.059c-0.169,0.284-0.171,0.622-0.008,0.909
			C20.822,18.058,21.127,18.219,21.456,18.219z"/>
	</g>
</g>
<g>
</g>
<g>
</g>
<g>
</g>
<g>
</g>
<g>
</g>
<g>
</g>
<g>
</g>
<g>
</g>
<g>
</g>
<g>
</g>
<g>
</g>
<g>
</g>
<g>
</g>
<g>
</g>
<g>
</g>
</svg>
