<?xml version="1.0" encoding="iso-8859-1"?>
<!-- Generator: Adobe Illustrator 16.0.0, SVG Export Plug-In . SVG Version: 6.00 Build 0)  -->
<!DOCTYPE svg PUBLIC "-//W3C//DTD SVG 1.1//EN" "http://www.w3.org/Graphics/SVG/1.1/DTD/svg11.dtd">
<svg version="1.1" id="Capa_1" xmlns="http://www.w3.org/2000/svg" xmlns:xlink="http://www.w3.org/1999/xlink" x="0px" y="0px"
	 width="45.528px" height="45.528px" viewBox="0 0 45.528 45.528" style="enable-background:new 0 0 45.528 45.528;"
	 xml:space="preserve">
<g>
	<g>
		<path d="M16.296,14.854c0.01-1.538,0.24-4.942,0.648-9.586c0.119-1.352-0.337-2.697-1.25-3.695C14.782,0.573,13.48,0,12.124,0
			h-0.562c-1.353,0-2.653,0.575-3.57,1.577c-0.913,0.999-1.37,2.346-1.25,3.692c0.287,3.26,0.635,7.553,0.646,9.507
			c0.032,4.791-1.742,16.142-2.802,22.479c-0.344,2.065,0.233,4.166,1.58,5.758c1.352,1.598,3.326,2.515,5.42,2.515h0.511
			c2.09,0,4.064-0.918,5.417-2.519c1.351-1.598,1.927-3.693,1.582-5.756C18.037,30.94,16.268,19.632,16.296,14.854z M10.183,3.589
			c0.355-0.388,0.858-0.603,1.38-0.603h0.562c0.523,0,1.026,0.212,1.38,0.601c0.354,0.385,0.528,0.902,0.482,1.425
			c-0.188,2.146-0.401,4.729-0.533,6.856h-3.219c-0.131-2.119-0.345-4.71-0.534-6.856C9.653,4.493,9.829,3.975,10.183,3.589z
			 M15.246,41.086c-0.786,0.932-1.935,1.457-3.149,1.457h-0.511c-1.217,0-2.365-0.523-3.152-1.453
			c-0.784-0.929-1.118-2.146-0.919-3.349c1.15-6.873,2.489-15.662,2.784-20.947h3.084c0.289,5.256,1.632,14.065,2.783,20.947
			C16.368,38.939,16.032,40.156,15.246,41.086z"/>
		<path d="M31.102,25.157c-5.488,0-9.938,4.449-9.938,9.938c0,5.486,4.449,9.938,9.938,9.938s9.938-4.451,9.938-9.938
			C41.04,29.606,36.59,25.157,31.102,25.157z M26.812,37.858c-1.207,0-2.185-0.978-2.185-2.187c0-1.207,0.978-2.187,2.185-2.187
			c1.208,0,2.187,0.979,2.187,2.187C28.999,36.881,28.021,37.858,26.812,37.858z M30.771,32.908c-1.206,0-2.185-0.979-2.185-2.186
			c0-1.205,0.979-2.185,2.185-2.185c1.208,0,2.188,0.979,2.188,2.185C32.957,31.93,31.979,32.908,30.771,32.908z M34.73,37.858
			c-1.207,0-2.185-0.978-2.185-2.187c0-1.207,0.978-2.187,2.185-2.187c1.206,0,2.186,0.979,2.186,2.187
			C36.916,36.881,35.937,37.858,34.73,37.858z"/>
	</g>
</g>
<g>
</g>
<g>
</g>
<g>
</g>
<g>
</g>
<g>
</g>
<g>
</g>
<g>
</g>
<g>
</g>
<g>
</g>
<g>
</g>
<g>
</g>
<g>
</g>
<g>
</g>
<g>
</g>
<g>
</g>
</svg>
