<?xml version="1.0" encoding="iso-8859-1"?>
<!-- Generator: Adobe Illustrator 16.0.0, SVG Export Plug-In . SVG Version: 6.00 Build 0)  -->
<!DOCTYPE svg PUBLIC "-//W3C//DTD SVG 1.1//EN" "http://www.w3.org/Graphics/SVG/1.1/DTD/svg11.dtd">
<svg version="1.1" id="Capa_1" xmlns="http://www.w3.org/2000/svg" xmlns:xlink="http://www.w3.org/1999/xlink" x="0px" y="0px"
	 width="44.204px" height="44.204px" viewBox="0 0 44.204 44.204" style="enable-background:new 0 0 44.204 44.204;"
	 xml:space="preserve">
<g>
	<g>
		<path d="M43.33,10.274c-0.562-0.564-1.329-0.89-2.126-0.89h-5.209V7.303c0-2.978-2.407-5.351-5.384-5.351H13.602
			c-2.976,0-5.351,2.373-5.351,5.351v2.082H3.102c-1.653,0-2.996,1.346-3.002,2.998L0,39.682c-0.002,0.676,0.264,1.336,0.742,1.813
			c0.478,0.479,1.127,0.757,1.804,0.757h39.015c1.401,0,2.539-1.141,2.545-2.543l0.099-27.296
			C44.208,11.615,43.893,10.838,43.33,10.274z M12.991,7.303c0-0.334,0.278-0.607,0.61-0.607h17.008
			c0.334,0,0.643,0.273,0.643,0.607v2.082H12.991V7.303z M22.099,38.824c-7.17,0-13.004-5.835-13.004-13.005
			c0-7.169,5.833-13.002,13.004-13.002c7.17,0,13.004,5.833,13.004,13.002C35.104,32.989,29.27,38.824,22.099,38.824z"/>
		<path d="M22.101,15.741c-5.584,0-10.127,4.543-10.127,10.127c0,5.585,4.543,10.128,10.127,10.128
			c5.584,0,10.127-4.543,10.127-10.128C32.229,20.284,27.686,15.741,22.101,15.741z M27.92,26.518c0,0.791-0.661,1.446-1.451,1.446
			h-2.265v2.271c0,0.787-0.661,1.445-1.452,1.445h-1.239c-0.79,0-1.409-0.658-1.409-1.445v-2.271h-2.371
			c-0.79,0-1.41-0.655-1.41-1.446V25.28c0-0.789,0.62-1.415,1.41-1.415h2.371V21.5c0-0.791,0.619-1.415,1.409-1.415h1.239
			c0.791,0,1.452,0.624,1.452,1.415v2.364h2.265c0.79,0,1.451,0.626,1.451,1.415V26.518z"/>
	</g>
</g>
<g>
</g>
<g>
</g>
<g>
</g>
<g>
</g>
<g>
</g>
<g>
</g>
<g>
</g>
<g>
</g>
<g>
</g>
<g>
</g>
<g>
</g>
<g>
</g>
<g>
</g>
<g>
</g>
<g>
</g>
</svg>
