<?xml version="1.0" encoding="iso-8859-1"?>
<!-- Generator: Adobe Illustrator 16.0.0, SVG Export Plug-In . SVG Version: 6.00 Build 0)  -->
<!DOCTYPE svg PUBLIC "-//W3C//DTD SVG 1.1//EN" "http://www.w3.org/Graphics/SVG/1.1/DTD/svg11.dtd">
<svg version="1.1" id="Capa_1" xmlns="http://www.w3.org/2000/svg" xmlns:xlink="http://www.w3.org/1999/xlink" x="0px" y="0px"
	 width="45.651px" height="45.652px" viewBox="0 0 45.651 45.652" style="enable-background:new 0 0 45.651 45.652;"
	 xml:space="preserve">
<g>
	<g>
		<path d="M5.465,19.297h34.718c0.422,0,0.822-0.375,1.086-0.704c0.266-0.327,0.367-0.851,0.277-1.264
			C39.686,8.682,32.018,2.152,22.824,2.152c-9.193,0-16.863,6.464-18.725,15.11c-0.088,0.412,0.014,1.014,0.279,1.344
			C4.643,18.934,5.043,19.297,5.465,19.297z M34.104,9.013c0.752,0,1.363,0.609,1.363,1.362c0,0.754-0.611,1.364-1.363,1.364
			c-0.754,0-1.363-0.61-1.363-1.364C32.74,9.622,33.35,9.013,34.104,9.013z M26.542,12.359c0,0.753-0.61,1.363-1.362,1.363
			c-0.754,0-1.364-0.61-1.364-1.363c0-0.754,0.61-1.363,1.364-1.363C25.932,10.995,26.542,11.604,26.542,12.359z M24.188,4.055
			c0.753,0,1.363,0.61,1.363,1.363c0,0.754-0.609,1.363-1.363,1.363c-0.754,0-1.363-0.609-1.363-1.363
			C22.824,4.665,23.433,4.055,24.188,4.055z M16.254,6.038c0.753,0,1.364,0.609,1.364,1.362c0,0.754-0.61,1.364-1.364,1.364
			c-0.753,0-1.363-0.61-1.363-1.364C14.891,6.647,15.501,6.038,16.254,6.038z M12.288,11.988c0.753,0,1.363,0.609,1.363,1.362
			c0,0.755-0.61,1.364-1.363,1.364s-1.363-0.609-1.363-1.364C10.925,12.597,11.535,11.988,12.288,11.988z"/>
		<path d="M42.178,34.779c-0.599,0.971-1.324,1.764-2.141,2.408c0.477,0.127,0.895,0.256,1.25,0.381
			c0.189,0.066,0.314,0.244,0.314,0.445c0,0.199-0.125,0.377-0.314,0.443c-2.709,0.952-8.943,2.068-18.462,2.068
			c-9.515,0-15.75-1.116-18.459-2.067c-0.189-0.065-0.316-0.245-0.316-0.444c0-0.201,0.126-0.379,0.315-0.446
			c0.356-0.125,0.774-0.253,1.252-0.382c-0.817-0.645-1.542-1.438-2.14-2.407C1.383,35.556,0,36.605,0,38.013
			C0,43.235,19.014,43.5,22.825,43.5c3.812,0,22.826-0.266,22.826-5.486C45.65,36.605,44.268,35.558,42.178,34.779z"/>
		<path d="M40.387,28.441H5.262c-0.41,0-0.798,0.197-1.064,0.512c-0.265,0.312-0.38,0.732-0.314,1.141
			c1.363,8.369,9.312,7.418,18.94,7.418s17.577,0.959,18.939-7.414c0.065-0.403-0.049-0.832-0.314-1.145
			C41.184,28.638,40.797,28.441,40.387,28.441z"/>
		<path d="M2.689,26.753h0.484h39.301h0.483c1.476,0,2.671-1.179,2.671-2.654v-0.607c0-1.478-1.195-2.67-2.671-2.67H2.689
			c-1.476,0-2.667,1.192-2.667,2.67v0.607C0.022,25.576,1.214,26.753,2.689,26.753z"/>
	</g>
</g>
<g>
</g>
<g>
</g>
<g>
</g>
<g>
</g>
<g>
</g>
<g>
</g>
<g>
</g>
<g>
</g>
<g>
</g>
<g>
</g>
<g>
</g>
<g>
</g>
<g>
</g>
<g>
</g>
<g>
</g>
</svg>
