<?xml version="1.0" encoding="iso-8859-1"?>
<!-- Generator: Adobe Illustrator 16.0.0, SVG Export Plug-In . SVG Version: 6.00 Build 0)  -->
<!DOCTYPE svg PUBLIC "-//W3C//DTD SVG 1.1//EN" "http://www.w3.org/Graphics/SVG/1.1/DTD/svg11.dtd">
<svg version="1.1" id="Capa_1" xmlns="http://www.w3.org/2000/svg" xmlns:xlink="http://www.w3.org/1999/xlink" x="0px" y="0px"
	 width="46.066px" height="46.066px" viewBox="0 0 46.066 46.066" style="enable-background:new 0 0 46.066 46.066;"
	 xml:space="preserve">
<g>
	<g>
		<path d="M46.066,32.187c0-2.777-2.25-5.027-5.026-5.027H5.026C2.25,27.159,0,29.409,0,32.187v4.622
			c0,2.776,2.25,5.026,5.026,5.026H41.04c2.776,0,5.026-2.25,5.026-5.026V32.187z M42.143,36.835c0,0.609-0.5,1.127-1.11,1.127
			H21.096v-6.879h19.936c0.61,0,1.11,0.496,1.11,1.107V36.835z"/>
		<path d="M37.725,21.299c-0.594,0.904-0.34,2.12,0.564,2.713c0.331,0.217,0.704,0.32,1.072,0.32c0.638,0,1.265-0.312,1.641-0.886
			c4.049-6.177,2.484-8.938,0.02-11.903c-1.24-1.491-2.312-2.779-2.312-5.353c0-1.082-0.877-1.96-1.959-1.96s-1.96,0.878-1.96,1.96
			c0,3.99,1.859,6.226,3.218,7.858C39.723,16.114,40.508,17.056,37.725,21.299z"/>
	</g>
</g>
<g>
</g>
<g>
</g>
<g>
</g>
<g>
</g>
<g>
</g>
<g>
</g>
<g>
</g>
<g>
</g>
<g>
</g>
<g>
</g>
<g>
</g>
<g>
</g>
<g>
</g>
<g>
</g>
<g>
</g>
</svg>
