<?xml version="1.0" encoding="iso-8859-1"?>
<!-- Generator: Adobe Illustrator 16.0.0, SVG Export Plug-In . SVG Version: 6.00 Build 0)  -->
<!DOCTYPE svg PUBLIC "-//W3C//DTD SVG 1.1//EN" "http://www.w3.org/Graphics/SVG/1.1/DTD/svg11.dtd">
<svg version="1.1" id="Capa_1" xmlns="http://www.w3.org/2000/svg" xmlns:xlink="http://www.w3.org/1999/xlink" x="0px" y="0px"
	 width="46.182px" height="46.183px" viewBox="0 0 46.182 46.183" style="enable-background:new 0 0 46.182 46.183;"
	 xml:space="preserve">
<g>
	<g>
		<path d="M45.833,32.677l-6.897-20.328l0.487-0.167c0.46-0.157,1.396-0.633,1.443-1.652c0.063-1.328-0.945-1.845-1.466-2.114
			c-0.429-0.222-16.587-7.96-16.587-7.96c-2.009-0.94-4.391-0.394-5.793,1.327c0,0-12.01,14.738-16.013,19.65
			c-0.594,0.729-1.094,1.8-0.469,2.785c0.632,0.995,1.575,0.729,2.035,0.573l0.63-0.216l6.898,20.328
			c0.156,0.459,0.5,0.868,0.937,1.083c0.436,0.214,0.944,0.26,1.404,0.104l32.258-11.079C45.653,34.684,46.158,33.633,45.833,32.677
			z M35.738,18.169l-2.522,0.88l0.47,1.342l2.378-0.83l0.415,1.189l-2.379,0.83l0.535,1.535l2.657-0.927l0.418,1.2l-4.125,1.438
			l-2.255-6.465l3.99-1.392L35.738,18.169z M30.468,23.892c-0.14-0.403-0.526-0.526-1.4-0.533c-1.205,0-2.113-0.35-2.44-1.29
			c-0.385-1.103,0.242-2.269,1.768-2.8c0.729-0.254,1.319-0.289,1.763-0.25l0.085,1.293c-0.302-0.034-0.827-0.055-1.459,0.166
			c-0.633,0.22-0.839,0.615-0.723,0.951c0.144,0.412,0.571,0.467,1.517,0.493c1.289,0.024,2.033,0.431,2.351,1.342
			c0.379,1.084-0.135,2.296-1.908,2.915c-0.738,0.257-1.535,0.32-1.971,0.246l-0.124-1.313c0.464,0.065,1.139,0.056,1.762-0.162
			C30.359,24.715,30.617,24.313,30.468,23.892z M20.114,25.954c-0.676-1.937,0.055-3.817,1.964-4.483
			c1.986-0.693,3.588,0.415,4.211,2.201c0.739,2.12-0.098,3.853-1.987,4.512C22.383,28.854,20.756,27.796,20.114,25.954z
			 M21.021,29.21l-4.039,1.408l-2.255-6.464l1.467-0.512l1.828,5.237l2.571-0.896L21.021,29.21z M19.376,3.703
			c0.521-0.638,1.405-0.84,2.15-0.491L35.244,9.62L6.531,19.466L19.376,3.703z M9.881,29.577c-0.77-2.206,0.375-3.981,2.332-4.666
			c0.758-0.264,1.387-0.311,1.693-0.267l0.108,1.265c-0.341-0.021-0.793,0.009-1.312,0.188c-1.161,0.405-1.818,1.42-1.316,2.857
			c0.453,1.296,1.503,1.843,2.808,1.389c0.441-0.154,0.897-0.421,1.145-0.636l0.619,1.062c-0.222,0.229-0.776,0.583-1.563,0.858
			C12.161,32.408,10.524,31.42,9.881,29.577z M40.077,29.027l-27.635,9.427c-0.148,0.052-0.298,0.077-0.447,0.081
			c-0.647,0.021-1.26-0.381-1.481-1.025c-0.271-0.794,0.151-1.657,0.945-1.929l27.638-9.428c0.793-0.27,1.654,0.153,1.927,0.945
			C41.293,27.893,40.87,28.757,40.077,29.027z"/>
		<path d="M23.974,26.996c0.988-0.345,1.227-1.481,0.79-2.738c-0.406-1.16-1.311-1.964-2.317-1.613
			c-0.989,0.345-1.236,1.486-0.798,2.743C22.09,26.653,22.997,27.338,23.974,26.996z"/>
	</g>
</g>
<g>
</g>
<g>
</g>
<g>
</g>
<g>
</g>
<g>
</g>
<g>
</g>
<g>
</g>
<g>
</g>
<g>
</g>
<g>
</g>
<g>
</g>
<g>
</g>
<g>
</g>
<g>
</g>
<g>
</g>
</svg>
