<?xml version="1.0" encoding="iso-8859-1"?>
<!-- Generator: Adobe Illustrator 16.0.0, SVG Export Plug-In . SVG Version: 6.00 Build 0)  -->
<!DOCTYPE svg PUBLIC "-//W3C//DTD SVG 1.1//EN" "http://www.w3.org/Graphics/SVG/1.1/DTD/svg11.dtd">
<svg version="1.1" id="Capa_1" xmlns="http://www.w3.org/2000/svg" xmlns:xlink="http://www.w3.org/1999/xlink" x="0px" y="0px"
	 width="45.786px" height="45.787px" viewBox="0 0 45.786 45.787" style="enable-background:new 0 0 45.786 45.787;"
	 xml:space="preserve">
<g>
	<g>
		<path d="M4.998,30.166c-0.844,0-1.637,0.4-2.14,1.078l-2.626,3.548c-0.281,0.42-0.309,0.849-0.071,1.295
			c0.239,0.448,0.705,0.612,1.212,0.612h38.966c0.758,0,1.413-0.645,1.413-1.402v-3.57c0-0.863-0.699-1.562-1.561-1.562
			L4.998,30.166L4.998,30.166z"/>
		<path d="M40.547,22.894l1.201-2.583c0.651-1.4,0.988-2.926,0.988-4.471v-1.672c0-2.758-1.602-5.08-4.359-5.08H22.644
			C12.605,9.087,4.38,17.182,3.661,26.5c-0.026,0.341,0.091,0.677,0.323,0.929c0.232,0.251,0.559,0.395,0.901,0.395h31.691
			c0.463,0,0.915-0.15,1.284-0.43l0.732-0.556h5.447c0.964,0,1.746-1.007,1.746-1.972s-0.782-1.972-1.746-1.972L40.547,22.894
			L40.547,22.894z M16.424,25.091c-0.005,0.596-0.49,1.076-1.086,1.076H8.402c-0.29,0-0.567-0.116-0.771-0.321
			c-0.204-0.206-0.317-0.483-0.314-0.774c0.005-0.596,0.49-1.075,1.086-1.075h6.936c0.29,0,0.567,0.116,0.771,0.321
			C16.313,24.525,16.426,24.802,16.424,25.091z M19.068,26.121c-0.609,0-1.104-0.494-1.104-1.104s0.495-1.104,1.104-1.104
			c0.61,0,1.104,0.493,1.104,1.104C20.172,25.626,19.678,26.121,19.068,26.121z M23.49,17.874c0-2.737,2.219-4.842,4.955-4.842
			h8.229c1.543,0,2.118,0.764,2.118,2.306v0.56c0,1.542-0.575,3.051-2.118,3.051H24.68C24.023,18.948,23.49,18.529,23.49,17.874z"/>
	</g>
</g>
<g>
</g>
<g>
</g>
<g>
</g>
<g>
</g>
<g>
</g>
<g>
</g>
<g>
</g>
<g>
</g>
<g>
</g>
<g>
</g>
<g>
</g>
<g>
</g>
<g>
</g>
<g>
</g>
<g>
</g>
</svg>
