<?xml version="1.0" encoding="iso-8859-1"?>
<!-- Generator: Adobe Illustrator 16.0.0, SVG Export Plug-In . SVG Version: 6.00 Build 0)  -->
<!DOCTYPE svg PUBLIC "-//W3C//DTD SVG 1.1//EN" "http://www.w3.org/Graphics/SVG/1.1/DTD/svg11.dtd">
<svg version="1.1" id="Capa_1" xmlns="http://www.w3.org/2000/svg" xmlns:xlink="http://www.w3.org/1999/xlink" x="0px" y="0px"
	 width="45.99px" height="45.99px" viewBox="0 0 45.99 45.99" style="enable-background:new 0 0 45.99 45.99;" xml:space="preserve"
	>
<g>
	<path d="M44.001,6.675c0-1.855-8.155-3.364-18.22-3.364c-2.229,0-4.363,0.074-6.338,0.21C17.594,1.338,14.838,0,11.885,0
		c-1.184,0-2.35,0.211-3.466,0.629c-5.102,1.908-7.708,7.616-5.81,12.723c0.14,0.377,0.423,0.682,0.789,0.849
		s0.783,0.181,1.158,0.04l7.383-2.76c4.638,4.801,11.428,11.807,11.428,11.807c0.096,0.099,0.188,0.188,0.312,0.272v17.148
		c-5.905,0.214-10.42,1.307-10.42,2.621c0,1.469,5.606,2.66,12.529,2.66c6.922,0,12.523-1.191,12.523-2.66
		c0-1.33-4.605-2.434-10.636-2.629V23.549c0.123-0.076,0.195-0.16,0.282-0.248c0,0,15.818-16.1,15.901-16.229l0.014-0.001h-0.002
		C43.951,6.947,44.001,6.806,44.001,6.675z M13.945,6.588l0.936-2.607l0.08-0.223c0.106,0.053,0.211,0.111,0.314,0.17
		c0.871,0.497,1.636,1.182,2.222,2.008c0.044,0.063,0.087,0.125,0.13,0.189l-4.06,1.518L13.945,6.588z M5.073,10.818
		C4.941,9.841,5.025,8.866,5.298,7.95L8.53,9.525L5.073,10.818z M7.582,6.82L6.148,6.121C6.67,5.326,7.36,4.634,8.189,4.105
		l0.595,1.359l1.079,2.467L7.582,6.82z M10.029,3.281c0.606-0.17,1.228-0.258,1.856-0.258c0.393,0,0.78,0.035,1.159,0.102
		l-0.44,1.229l-0.948,2.648l-0.966-2.21L10.029,3.281z M25.716,9.418c-2.729,0-5.263-0.124-7.365-0.336l1.913-0.715
		c0.377-0.141,0.681-0.425,0.847-0.791c0.166-0.365,0.181-0.781,0.04-1.157c-0.099-0.263-0.21-0.521-0.328-0.771
		c1.512-0.09,3.165-0.14,4.895-0.14c7.271,0,13.164,0.875,13.164,1.955C38.88,8.542,32.986,9.418,25.716,9.418z"/>
</g>
<g>
</g>
<g>
</g>
<g>
</g>
<g>
</g>
<g>
</g>
<g>
</g>
<g>
</g>
<g>
</g>
<g>
</g>
<g>
</g>
<g>
</g>
<g>
</g>
<g>
</g>
<g>
</g>
<g>
</g>
</svg>
