<?xml version="1.0" encoding="iso-8859-1"?>
<!-- Generator: Adobe Illustrator 16.0.0, SVG Export Plug-In . SVG Version: 6.00 Build 0)  -->
<!DOCTYPE svg PUBLIC "-//W3C//DTD SVG 1.1//EN" "http://www.w3.org/Graphics/SVG/1.1/DTD/svg11.dtd">
<svg version="1.1" id="Capa_1" xmlns="http://www.w3.org/2000/svg" xmlns:xlink="http://www.w3.org/1999/xlink" x="0px" y="0px"
	 width="45.915px" height="45.916px" viewBox="0 0 45.915 45.916" style="enable-background:new 0 0 45.915 45.916;"
	 xml:space="preserve">
<g>
	<g>
		<path d="M36.92,13.093c-0.49,0-1.115,0.041-1.387,0.116v0.003c-0.816-1.355-1.908-2.619-3.023-3.705h0.051
			c1.342,0,2.428-1.088,2.428-2.429V6.232c0-1.341-1.086-2.428-2.428-2.428H5.64c-1.342,0-2.429,1.087-2.429,2.428v0.847
			c0,1.341,1.087,2.429,2.429,2.429C2.158,13.039,0,17.747,0,23.039c0,10.533,8.537,19.072,19.074,19.072
			c7.642,0,14.285-4.498,17.273-10.987l0,0c0.271,0.01,0.344,0.015,0.516,0.015c4.984,0,9.052-4.04,9.052-9.021
			C45.915,17.132,41.904,13.093,36.92,13.093z M19.075,38.102c-8.309,0-15.069-6.825-15.069-15.134c0-4.036,1.603-7.757,4.44-10.745
			h21.256c2.836,2.988,4.438,6.708,4.438,10.745C34.141,31.277,27.384,38.102,19.075,38.102z M37.721,27.052
			c0.276-1.295,0.428-2.639,0.428-4.018c0-2.041-0.322-4.005-0.918-5.848c2.52,0.273,4.651,2.349,4.651,4.929
			C41.882,24.59,40.079,26.646,37.721,27.052z"/>
		<path d="M19.608,22.781c-4.605-0.706-7.691-0.958-11.506,0.694c0.233,5.858,5.044,10.542,10.96,10.542
			c6.066,0,10.982-4.917,10.982-10.982c0-0.338-0.021-0.671-0.051-1.002C26.514,23.441,23.367,23.36,19.608,22.781z"/>
	</g>
</g>
<g>
</g>
<g>
</g>
<g>
</g>
<g>
</g>
<g>
</g>
<g>
</g>
<g>
</g>
<g>
</g>
<g>
</g>
<g>
</g>
<g>
</g>
<g>
</g>
<g>
</g>
<g>
</g>
<g>
</g>
</svg>
