<?xml version="1.0" encoding="iso-8859-1"?>
<!-- Generator: Adobe Illustrator 16.0.0, SVG Export Plug-In . SVG Version: 6.00 Build 0)  -->
<!DOCTYPE svg PUBLIC "-//W3C//DTD SVG 1.1//EN" "http://www.w3.org/Graphics/SVG/1.1/DTD/svg11.dtd">
<svg version="1.1" id="Capa_1" xmlns="http://www.w3.org/2000/svg" xmlns:xlink="http://www.w3.org/1999/xlink" x="0px" y="0px"
	 width="45.787px" height="45.787px" viewBox="0 0 45.787 45.787" style="enable-background:new 0 0 45.787 45.787;"
	 xml:space="preserve">
<g>
	<g>
		<path d="M5.994,31.479c-0.09,0.572,0.075,1.144,0.452,1.582c0.377,0.44,0.927,0.68,1.506,0.68H37.58
			c0.579,0,1.128-0.239,1.505-0.68c0.376-0.438,0.543-1.017,0.453-1.588c-1.107-7.03-6.501-12.629-13.432-14.012
			c0.196-0.447,0.305-0.938,0.305-1.455c0-2.011-1.635-3.645-3.646-3.645c-2.01,0-3.645,1.635-3.645,3.645
			c0,0.518,0.109,1.012,0.305,1.458C12.495,18.847,7.103,24.449,5.994,31.479z"/>
		<path d="M41.188,38.062c-0.243-0.85-1.021-1.44-1.903-1.44H6.247c-0.884,0-1.661,0.592-1.903,1.44l-1.208,4.229
			c-0.091,0.317-0.027,0.649,0.172,0.914c0.2,0.264,0.511,0.409,0.841,0.409h37.232c0.331,0,0.643-0.145,0.842-0.407
			c0.198-0.264,0.262-0.597,0.172-0.913L41.188,38.062z"/>
		<path d="M11.347,14.411c0.294,0.305,0.686,0.457,1.078,0.457c0.376,0,0.753-0.141,1.044-0.422
			c0.596-0.578,0.611-1.527,0.034-2.123L4.174,2.692C3.597,2.095,2.646,2.081,2.051,2.657C1.457,3.235,1.44,4.184,2.018,4.78
			L11.347,14.411z"/>
		<path d="M14.523,12.194c0.103,0.752,0.747,1.299,1.485,1.299c0.067,0,0.136-0.005,0.205-0.014c0.821-0.112,1.396-0.869,1.285-1.69
			l-1.125-8.256c-0.113-0.821-0.871-1.396-1.69-1.284c-0.821,0.111-1.396,0.868-1.285,1.689L14.523,12.194z"/>
		<path d="M9.757,17.87c0.677,0,1.292-0.461,1.458-1.146c0.195-0.807-0.299-1.617-1.105-1.813l-8.255-2.002
			c-0.806-0.192-1.618,0.301-1.813,1.105c-0.195,0.804,0.299,1.617,1.105,1.813l8.255,2.001C9.521,17.856,9.642,17.87,9.757,17.87z"
			/>
		<path d="M32.317,14.383c0.292,0.281,0.668,0.422,1.044,0.422c0.392,0,0.784-0.152,1.078-0.457l9.329-9.631
			c0.577-0.596,0.562-1.546-0.034-2.123c-0.594-0.574-1.544-0.562-2.123,0.035l-9.329,9.631
			C31.707,12.856,31.723,13.805,32.317,14.383z"/>
		<path d="M29.573,13.417c0.069,0.009,0.137,0.013,0.205,0.013c0.739,0,1.383-0.546,1.485-1.298l1.125-8.256
			c0.111-0.82-0.464-1.578-1.284-1.689c-0.827-0.111-1.579,0.463-1.69,1.283l-1.125,8.256
			C28.178,12.547,28.752,13.304,29.573,13.417z"/>
		<path d="M45.745,13.952c-0.196-0.805-1.005-1.3-1.812-1.105l-8.255,2.002c-0.807,0.195-1.301,1.006-1.105,1.813
			c0.167,0.686,0.781,1.147,1.458,1.147c0.116,0,0.236-0.015,0.354-0.043l8.256-2.001C45.445,15.569,45.939,14.756,45.745,13.952z"
			/>
	</g>
</g>
<g>
</g>
<g>
</g>
<g>
</g>
<g>
</g>
<g>
</g>
<g>
</g>
<g>
</g>
<g>
</g>
<g>
</g>
<g>
</g>
<g>
</g>
<g>
</g>
<g>
</g>
<g>
</g>
<g>
</g>
</svg>
