<?xml version="1.0" encoding="iso-8859-1"?>
<!-- Generator: Adobe Illustrator 16.0.0, SVG Export Plug-In . SVG Version: 6.00 Build 0)  -->
<!DOCTYPE svg PUBLIC "-//W3C//DTD SVG 1.1//EN" "http://www.w3.org/Graphics/SVG/1.1/DTD/svg11.dtd">
<svg version="1.1" id="Capa_1" xmlns="http://www.w3.org/2000/svg" xmlns:xlink="http://www.w3.org/1999/xlink" x="0px" y="0px"
	 width="45.81px" height="45.81px" viewBox="0 0 45.81 45.81" style="enable-background:new 0 0 45.81 45.81;" xml:space="preserve"
	>
<g>
	<g>
		<path d="M41.549,35.379c-0.726-0.002-1.312-0.591-1.31-1.315l0.006-3.092c0.001-0.349-0.138-0.683-0.384-0.93
			s-0.58-0.386-0.929-0.386l-3.074-0.003c-0.726,0-1.312-0.589-1.312-1.313l0.001-2.734c0-0.35-0.14-0.685-0.386-0.931
			c-0.248-0.247-0.583-0.384-0.934-0.383l-1.378,0.005c-0.447,0.002-0.851-0.267-1.021-0.68s-0.076-0.889,0.24-1.203
			c0.249-0.247,0.389-0.581,0.39-0.93c0.001-0.348-0.139-0.683-0.384-0.929l-2.113-2.113c1.377-4.969,0.033-10.312-3.795-14.14
			C19.444-1.422,10.179-1.44,4.454,4.285C-1.27,10.01-1.337,19.358,4.387,25.084c3.802,3.802,8.99,5.264,13.966,3.896l16.19,16.19
			c0.503,0.503,1.22,0.729,1.921,0.607l6.405-1.114c0.911-0.159,1.625-0.875,1.779-1.787l1.015-5.953
			c0.064-0.38-0.041-0.771-0.289-1.066c-0.249-0.295-0.614-0.466-1.001-0.468L41.549,35.379z M12.63,12.474
			c-1.457,1.457-3.819,1.457-5.275,0c-1.457-1.457-1.457-3.817,0-5.274c1.455-1.457,3.818-1.457,5.275,0
			C14.086,8.656,14.086,11.018,12.63,12.474z"/>
	</g>
</g>
<g>
</g>
<g>
</g>
<g>
</g>
<g>
</g>
<g>
</g>
<g>
</g>
<g>
</g>
<g>
</g>
<g>
</g>
<g>
</g>
<g>
</g>
<g>
</g>
<g>
</g>
<g>
</g>
<g>
</g>
</svg>
