<?xml version="1.0" encoding="iso-8859-1"?>
<!-- Generator: Adobe Illustrator 16.0.0, SVG Export Plug-In . SVG Version: 6.00 Build 0)  -->
<!DOCTYPE svg PUBLIC "-//W3C//DTD SVG 1.1//EN" "http://www.w3.org/Graphics/SVG/1.1/DTD/svg11.dtd">
<svg version="1.1" id="Capa_1" xmlns="http://www.w3.org/2000/svg" xmlns:xlink="http://www.w3.org/1999/xlink" x="0px" y="0px"
	 width="46.042px" height="46.042px" viewBox="0 0 46.042 46.042" style="enable-background:new 0 0 46.042 46.042;"
	 xml:space="preserve">
<g>
	<path d="M30.03,16.102c-0.271-0.106-0.474-0.336-0.541-0.618c-0.069-0.282,0.003-0.58,0.192-0.799
		c1.354-1.558,2.174-3.594,2.174-5.82C31.855,3.977,27.892,0,23.023,0c-3.881,0-7.18,2.529-8.358,6.031
		c-0.199,0.596-0.103,1.251,0.266,1.763c0.366,0.51,0.956,0.813,1.585,0.813c0.812,0,1.527-0.523,1.775-1.295
		c0.65-2.014,2.518-3.477,4.731-3.477c2.755,0,4.995,2.257,4.995,5.03c0,1.525-0.771,3.21-1.721,3.863
		c-1.027,0.708-10.23,3.396-10.23,3.396c-1.764,0.668-2.943,2.358-2.943,4.245v21.109c0,2.506,2.058,4.563,4.563,4.563h10.672
		c2.508,0,4.562-2.058,4.562-4.563V20.326C32.919,18.46,31.767,16.785,30.03,16.102z"/>
</g>
<g>
</g>
<g>
</g>
<g>
</g>
<g>
</g>
<g>
</g>
<g>
</g>
<g>
</g>
<g>
</g>
<g>
</g>
<g>
</g>
<g>
</g>
<g>
</g>
<g>
</g>
<g>
</g>
<g>
</g>
</svg>
