<?xml version="1.0" encoding="iso-8859-1"?>
<!-- Generator: Adobe Illustrator 16.0.0, SVG Export Plug-In . SVG Version: 6.00 Build 0)  -->
<!DOCTYPE svg PUBLIC "-//W3C//DTD SVG 1.1//EN" "http://www.w3.org/Graphics/SVG/1.1/DTD/svg11.dtd">
<svg version="1.1" id="Capa_1" xmlns="http://www.w3.org/2000/svg" xmlns:xlink="http://www.w3.org/1999/xlink" x="0px" y="0px"
	 width="45.824px" height="45.824px" viewBox="0 0 45.824 45.824" style="enable-background:new 0 0 45.824 45.824;"
	 xml:space="preserve">
<g>
	<g>
		<path d="M23.998,25.316H3.132C1.4,25.316,0,26.729,0,28.46v5.994c0,1.769,1.431,3.237,3.199,3.237H24.92
			c1.77,0,3.154-1.469,3.154-3.237v-5.004C28.074,27.171,26.277,25.316,23.998,25.316z"/>
		<path d="M42.609,8.132H21.031c-1.769,0-3.141,1.351-3.141,3.119v5.408c0.213-0.069,0.577-0.119,0.927-0.146l0.876-2.63
			c0.375-1.123,1.415-1.862,2.597-1.862h5.435c0.881,0,1.713,0.412,2.227,1.125c0.514,0.714,0.654,1.631,0.377,2.465l-0.312,0.934
			c0.732,0.005,1.463,0.009,2.163,0.014l0.747-2.24c0.374-1.122,1.42-1.874,2.602-1.874h5.436c0.88,0,1.712,0.423,2.225,1.136
			c0.516,0.714,0.656,1.636,0.377,2.471l-0.262,0.802c1.02,0.286,1.814,0.827,2.521,1.552v-7.155
			C45.822,9.483,44.378,8.132,42.609,8.132z"/>
		<path d="M42.668,18.747l-0.289,0.868c-0.374,1.122-1.421,1.882-2.604,1.882h-5.435c-0.88,0-1.712-0.432-2.226-1.145
			c-0.372-0.516-0.547-1.145-0.512-1.767l-2.266-0.017l-0.199,0.612c-0.375,1.122-1.42,1.893-2.602,1.893h-5.435
			c-0.88,0-1.712-0.443-2.226-1.157c-0.28-0.389-0.448-0.849-0.5-1.313c-0.689,0.13-1.354,0.396-1.958,0.762L9.77,23.408h14.228
			c3.395,0,6.126,2.66,6.126,6.041v5.004c0,0.756-0.149,1.476-0.445,2.123l14.572-8.721c0.944-0.566,1.571-1.588,1.571-2.688V22.75
			C45.822,20.816,44.471,19.193,42.668,18.747z"/>
		<path d="M21.104,19.517h5.435c0.531,0,1.004-0.334,1.172-0.839l1.186-3.555c0.125-0.377,0.062-0.787-0.17-1.108
			c-0.231-0.323-0.604-0.509-1.002-0.509H22.29c-0.532,0-1.004,0.337-1.172,0.842l-1.186,3.555c-0.126,0.377-0.063,0.786,0.17,1.107
			C20.334,19.333,20.707,19.517,21.104,19.517z"/>
		<path d="M34.341,19.942h5.435c0.531,0,1.004-0.323,1.172-0.828l1.187-3.541c0.126-0.377,0.062-0.799-0.17-1.121
			c-0.231-0.323-0.604-0.522-1.002-0.522h-5.435c-0.532,0-1.004,0.349-1.172,0.854l-1.187,3.562
			c-0.125,0.377-0.063,0.776,0.17,1.098C33.57,19.766,33.943,19.942,34.341,19.942z"/>
	</g>
</g>
<g>
</g>
<g>
</g>
<g>
</g>
<g>
</g>
<g>
</g>
<g>
</g>
<g>
</g>
<g>
</g>
<g>
</g>
<g>
</g>
<g>
</g>
<g>
</g>
<g>
</g>
<g>
</g>
<g>
</g>
</svg>
