<?xml version="1.0" encoding="iso-8859-1"?>
<!-- Generator: Adobe Illustrator 16.0.0, SVG Export Plug-In . SVG Version: 6.00 Build 0)  -->
<!DOCTYPE svg PUBLIC "-//W3C//DTD SVG 1.1//EN" "http://www.w3.org/Graphics/SVG/1.1/DTD/svg11.dtd">
<svg version="1.1" id="Capa_1" xmlns="http://www.w3.org/2000/svg" xmlns:xlink="http://www.w3.org/1999/xlink" x="0px" y="0px"
	 width="45.398px" height="45.398px" viewBox="0 0 45.398 45.398" style="enable-background:new 0 0 45.398 45.398;"
	 xml:space="preserve">
<g>
	<g>
		<path d="M13.683,35.435l17.997-0.004c1.715,0.004,3.211-1.152,3.645-2.811c0.436-1.658-0.298-3.398-1.794-4.232l-5.104-2.883
			l5.609-5.607c1.467-1.47,1.475-3.854-0.003-5.329l-3.249-3.249c-1.475-1.473-3.859-1.47-5.326,0l-5.612,5.608l-2.878-5.106
			c-0.838-1.493-2.581-2.23-4.236-1.792c-1.658,0.433-2.814,1.928-2.807,3.641L9.919,31.668
			C9.919,33.749,11.602,35.435,13.683,35.435z"/>
		<path d="M0,34.377c0,5.817,4.715,10.532,10.531,10.532h24.336c5.816,0,10.531-4.715,10.531-10.532V11.021
			c0-5.817-4.715-10.532-10.531-10.532H10.531C4.715,0.489,0,5.204,0,11.021V34.377z M4.771,10.99c0-3.164,2.565-5.729,5.728-5.729
			h24.339c3.162,0,5.728,2.564,5.728,5.729v23.356c0,3.164-2.564,5.729-5.728,5.729H10.499c-3.162,0-5.728-2.563-5.728-5.729V10.99z
			"/>
	</g>
</g>
<g>
</g>
<g>
</g>
<g>
</g>
<g>
</g>
<g>
</g>
<g>
</g>
<g>
</g>
<g>
</g>
<g>
</g>
<g>
</g>
<g>
</g>
<g>
</g>
<g>
</g>
<g>
</g>
<g>
</g>
</svg>
