<?xml version="1.0" encoding="iso-8859-1"?>
<!-- Generator: Adobe Illustrator 16.0.0, SVG Export Plug-In . SVG Version: 6.00 Build 0)  -->
<!DOCTYPE svg PUBLIC "-//W3C//DTD SVG 1.1//EN" "http://www.w3.org/Graphics/SVG/1.1/DTD/svg11.dtd">
<svg version="1.1" id="Capa_1" xmlns="http://www.w3.org/2000/svg" xmlns:xlink="http://www.w3.org/1999/xlink" x="0px" y="0px"
	 width="45.895px" height="45.895px" viewBox="0 0 45.895 45.895" style="enable-background:new 0 0 45.895 45.895;"
	 xml:space="preserve">
<g>
	<g>
		<path d="M45.894,4.731c0-2.613-2.119-4.731-4.73-4.731H4.731c-2.612,0-4.73,2.118-4.73,4.731v36.432
			c0,2.612,2.119,4.731,4.73,4.731h36.432c2.613,0,4.73-2.119,4.73-4.731V4.731z M41.425,39.348c0,1.147-0.932,2.076-2.077,2.076
			H6.481c-1.147,0-2.078-0.929-2.078-2.076V6.481c0-1.147,0.931-2.076,2.078-2.076h32.866c1.146,0,2.077,0.929,2.077,2.076
			L41.425,39.348L41.425,39.348z"/>
		<path d="M38.223,8.254c0-0.323-0.261-0.583-0.584-0.583H8.255c-0.323,0-0.584,0.26-0.584,0.583v29.389
			c0,0.319,0.261,0.58,0.584,0.58h29.384c0.323,0,0.584-0.261,0.584-0.58V8.254z M20.679,25.174c0,0.824-0.673,1.494-1.501,1.494
			c-0.826,0-1.5-0.67-1.5-1.494v-1.996c0-0.551-0.448-0.966-0.998-0.966h-2.993c-0.828,0-1.497-0.672-1.497-1.5
			c0-0.827,0.669-1.5,1.497-1.5h2.993c2.2,0,3.999,1.764,3.999,3.966V25.174z M25.659,27.969c-1.131,0-2.047-0.918-2.047-2.048
			c0-1.133,0.917-2.048,2.047-2.048s2.047,0.915,2.047,2.048C27.706,27.051,26.79,27.969,25.659,27.969z M25.659,21.98
			c-1.131,0-2.047-0.914-2.047-2.044c0-1.132,0.917-2.048,2.047-2.048s2.047,0.916,2.047,2.048
			C27.706,21.066,26.79,21.98,25.659,21.98z M31.646,27.969c-1.132,0-2.047-0.918-2.047-2.048c0-1.133,0.915-2.048,2.047-2.048
			c1.131,0,2.047,0.915,2.047,2.048C33.692,27.051,32.776,27.969,31.646,27.969z M31.646,21.98c-1.132,0-2.047-0.914-2.047-2.044
			c0-1.132,0.915-2.048,2.047-2.048c1.131,0,2.047,0.916,2.047,2.048C33.692,21.066,32.776,21.98,31.646,21.98z"/>
	</g>
</g>
<g>
</g>
<g>
</g>
<g>
</g>
<g>
</g>
<g>
</g>
<g>
</g>
<g>
</g>
<g>
</g>
<g>
</g>
<g>
</g>
<g>
</g>
<g>
</g>
<g>
</g>
<g>
</g>
<g>
</g>
</svg>
