<?xml version="1.0" encoding="iso-8859-1"?>
<!-- Generator: Adobe Illustrator 16.0.0, SVG Export Plug-In . SVG Version: 6.00 Build 0)  -->
<!DOCTYPE svg PUBLIC "-//W3C//DTD SVG 1.1//EN" "http://www.w3.org/Graphics/SVG/1.1/DTD/svg11.dtd">
<svg version="1.1" id="Capa_1" xmlns="http://www.w3.org/2000/svg" xmlns:xlink="http://www.w3.org/1999/xlink" x="0px" y="0px"
	 width="45.701px" height="45.701px" viewBox="0 0 45.701 45.701" style="enable-background:new 0 0 45.701 45.701;"
	 xml:space="preserve">
<g>
	<g>
		<path d="M19.311,16.016c0.003,0,0.009-0.057,0.009-0.092c0-1.354-2.355-2.516-5.725-3.031V14.7c0,2.168-1.749,3.93-3.915,3.93
			c-2.167,0-3.915-1.762-3.915-3.93v-1.807c-3.369,0.515-5.748,1.675-5.748,3.027c0,0.036-0.017,0.096-0.013,0.096H0l3.192,27.943
			c0.095,0.836,0.803,1.486,1.645,1.486h9.643c0.842,0,1.55-0.65,1.645-1.486l3.192-27.943H19.311z M15.81,28.646l-0.569,4.548
			c-0.104,0.829-0.808,1.451-1.643,1.451H5.717c-0.834,0-1.539-0.628-1.643-1.456l-0.568-4.55c-0.059-0.471,0.087-0.926,0.402-1.281
			C4.222,27,4.674,26.818,5.149,26.818h9.018c0.475,0,0.927,0.182,1.241,0.537S15.868,28.176,15.81,28.646z"/>
		<path d="M9.631,16.665c1.085,0,1.982-0.88,1.982-1.965V6.54c0-0.583,0.42-1.081,0.994-1.186l6.576-1.201
			c1.067-0.196,1.775-1.22,1.58-2.287c-0.174-0.95-1.005-1.61-1.938-1.61c-0.114,0-0.23,0.011-0.347,0.03l-6.596,1.202
			C9.442,1.935,7.65,4.059,7.65,6.54v8.16C7.65,15.785,8.547,16.665,9.631,16.665z"/>
		<path d="M21.919,34.645h20.553c0.25,0,0.487-0.229,0.644-0.422c0.158-0.193,0.218-0.507,0.166-0.752
			c-1.103-5.119-5.643-8.986-11.086-8.986c-5.441,0-9.981,3.825-11.083,8.945c-0.053,0.243,0.008,0.605,0.165,0.801
			C21.433,34.426,21.669,34.645,21.919,34.645z M38.871,28.543c0.445,0,0.808,0.363,0.808,0.809c0,0.447-0.362,0.811-0.808,0.811
			s-0.807-0.362-0.807-0.811C38.066,28.906,38.426,28.543,38.871,28.543z M34.396,30.527c0,0.444-0.361,0.807-0.808,0.807
			s-0.808-0.361-0.808-0.807c0-0.447,0.361-0.81,0.808-0.81S34.396,30.08,34.396,30.527z M33.003,25.609
			c0.446,0,0.806,0.362,0.806,0.809c0,0.445-0.359,0.807-0.806,0.807s-0.808-0.361-0.808-0.807
			C32.195,25.972,32.556,25.609,33.003,25.609z M28.306,26.783c0.446,0,0.808,0.362,0.808,0.809c0,0.445-0.361,0.807-0.808,0.807
			c-0.444,0-0.808-0.361-0.808-0.807C27.498,27.146,27.861,26.783,28.306,26.783z M25.959,30.306c0.445,0,0.807,0.36,0.807,0.808
			c0,0.448-0.361,0.809-0.807,0.809c-0.446,0-0.809-0.36-0.809-0.809C25.15,30.666,25.512,30.306,25.959,30.306z"/>
		<path d="M42.592,39.998H21.799c-0.243,0-0.473,0.141-0.63,0.326c-0.156,0.186-0.224,0.446-0.185,0.688
			c0.806,4.956,5.512,4.398,11.211,4.398c5.701,0,10.405,0.57,11.213-4.389c0.039-0.238-0.029-0.514-0.187-0.697
			C43.064,40.138,42.834,39.998,42.592,39.998z"/>
		<path d="M44.115,35.537h-23.84c-0.873,0-1.626,0.705-1.626,1.58v0.359c0,0.873,0.754,1.529,1.626,1.529h0.287h23.266h0.287
			c0.873,0,1.586-0.656,1.586-1.529v-0.359C45.701,36.242,44.988,35.537,44.115,35.537z"/>
	</g>
</g>
<g>
</g>
<g>
</g>
<g>
</g>
<g>
</g>
<g>
</g>
<g>
</g>
<g>
</g>
<g>
</g>
<g>
</g>
<g>
</g>
<g>
</g>
<g>
</g>
<g>
</g>
<g>
</g>
<g>
</g>
</svg>
