<?xml version="1.0" encoding="iso-8859-1"?>
<!-- Generator: Adobe Illustrator 16.0.0, SVG Export Plug-In . SVG Version: 6.00 Build 0)  -->
<!DOCTYPE svg PUBLIC "-//W3C//DTD SVG 1.1//EN" "http://www.w3.org/Graphics/SVG/1.1/DTD/svg11.dtd">
<svg version="1.1" id="Capa_1" xmlns="http://www.w3.org/2000/svg" xmlns:xlink="http://www.w3.org/1999/xlink" x="0px" y="0px"
	 width="44.85px" height="44.85px" viewBox="0 0 44.85 44.85" style="enable-background:new 0 0 44.85 44.85;" xml:space="preserve"
	>
<g>
	<path d="M38.733,0.268c-0.309-0.239-0.689-0.324-1.066-0.23l-8.77,2.193c-0.564,0.141-0.956,0.646-0.956,1.227v0.649
		c-1.466-0.091-3.54-0.47-6-1.62c-4.344-2.035-10.834-2.871-14.17-0.748C6.383,2.621,5.649,3.924,5.649,5.512
		c0,1.564,0.614,2.844,1.775,3.696c1.095,0.807,2.543,1.105,3.959,1.105c0.267,0,0.497-0.011,0.812-0.032v1.579H10.63
		c-1.507,0-2.74,1.213-2.784,2.719L7.064,41.978C7.042,42.73,7.325,43.463,7.85,44c0.524,0.541,1.245,0.85,1.997,0.85h10.279
		c0.752,0,1.472-0.305,1.997-0.844c0.525-0.541,0.809-1.27,0.787-2.021l-0.783-27.407c-0.043-1.506-1.277-2.719-2.784-2.719h-1.558
		V8.123c0-1.562-1.251-2.827-2.812-2.827c-1.327,0-2.433,0.914-2.736,2.148c-1.298,0.143-2.491-0.032-3.143-0.511
		C8.826,6.734,8.473,6.375,8.473,5.512c0-0.604,0.25-1.033,0.812-1.391c2.142-1.362,7.498-0.932,11.459,0.923
		c2.914,1.364,5.401,1.804,7.197,1.894v1.054c0,0.617,0.438,1.146,1.049,1.248l8.765,1.462c0.366,0.062,0.732-0.043,1.017-0.283
		c0.284-0.24,0.43-0.595,0.43-0.966V1.265C39.201,0.875,39.04,0.507,38.733,0.268z"/>
</g>
<g>
</g>
<g>
</g>
<g>
</g>
<g>
</g>
<g>
</g>
<g>
</g>
<g>
</g>
<g>
</g>
<g>
</g>
<g>
</g>
<g>
</g>
<g>
</g>
<g>
</g>
<g>
</g>
<g>
</g>
</svg>
