<?xml version="1.0" encoding="iso-8859-1"?>
<!-- Generator: Adobe Illustrator 16.0.0, SVG Export Plug-In . SVG Version: 6.00 Build 0)  -->
<!DOCTYPE svg PUBLIC "-//W3C//DTD SVG 1.1//EN" "http://www.w3.org/Graphics/SVG/1.1/DTD/svg11.dtd">
<svg version="1.1" id="Capa_1" xmlns="http://www.w3.org/2000/svg" xmlns:xlink="http://www.w3.org/1999/xlink" x="0px" y="0px"
	 width="46.246px" height="46.247px" viewBox="0 0 46.246 46.247" style="enable-background:new 0 0 46.246 46.247;"
	 xml:space="preserve">
<g>
	<path d="M23.123,28.399c-2.685,0-5.262,0.166-7.659,0.472V10.33l6.237-2.723c0.549-0.24,0.887-0.796,0.852-1.395
		c-0.035-0.598-0.437-1.109-1.01-1.283l-6.079-1.834V2.64c0-0.833-0.685-1.508-1.518-1.508s-1.518,0.675-1.518,1.508v26.708
		C5.043,30.742,0,33.537,0,36.757c0,4.615,10.353,8.357,23.123,8.357s23.124-3.742,23.124-8.357
		C46.246,32.143,35.893,28.399,23.123,28.399z M13.949,35.438c-1.735,0-3.142-0.534-3.142-1.194c0-0.457,0.679-0.854,1.674-1.056
		c0.174,0.645,0.766,1.119,1.464,1.119c0.698,0,1.291-0.477,1.464-1.121c0.999,0.201,1.68,0.6,1.68,1.058
		C17.091,34.904,15.684,35.438,13.949,35.438z M34.181,40.779c-1.11,0-2.011-0.9-2.011-2.011c0-1.111,0.9-2.012,2.011-2.012
		c1.111,0,2.011,0.9,2.011,2.012C36.191,39.878,35.292,40.779,34.181,40.779z"/>
</g>
<g>
</g>
<g>
</g>
<g>
</g>
<g>
</g>
<g>
</g>
<g>
</g>
<g>
</g>
<g>
</g>
<g>
</g>
<g>
</g>
<g>
</g>
<g>
</g>
<g>
</g>
<g>
</g>
<g>
</g>
</svg>
