<?xml version="1.0" encoding="iso-8859-1"?>
<!-- Generator: Adobe Illustrator 16.0.0, SVG Export Plug-In . SVG Version: 6.00 Build 0)  -->
<!DOCTYPE svg PUBLIC "-//W3C//DTD SVG 1.1//EN" "http://www.w3.org/Graphics/SVG/1.1/DTD/svg11.dtd">
<svg version="1.1" id="Capa_1" xmlns="http://www.w3.org/2000/svg" xmlns:xlink="http://www.w3.org/1999/xlink" x="0px" y="0px"
	 width="45.127px" height="45.127px" viewBox="0 0 45.127 45.127" style="enable-background:new 0 0 45.127 45.127;"
	 xml:space="preserve">
<g>
	<g>
		<path d="M34.123,0H11.016C5.812,0,1.532,4.207,1.532,9.411v17.411c0,5.205,4.281,9.46,9.484,9.46h9.11v1.95h-8.829
			c-2.543,0-4.605,2.033-4.605,4.576c0.001,1.297,1.051,2.318,2.347,2.318h27.062c1.295,0,2.346-1.021,2.346-2.318
			c0-2.543-2.062-4.576-4.605-4.576h-8.84v-1.95h9.122c5.204,0,9.472-4.257,9.472-9.46V9.411C43.595,4.207,39.326,0,34.123,0z
			 M39.695,26.918c0,3.054-1.918,5.465-4.856,5.465H10.3c-2.938,0-4.868-2.412-4.868-5.465V9.227c0-3.054,1.93-5.258,4.868-5.258
			h24.539c2.938,0,4.856,2.204,4.856,5.258V26.918z"/>
		<path d="M10.838,6.895c-1.563,0-2.83,1.256-2.833,2.818L7.984,22.929L28.272,6.895H10.838z"/>
		<path d="M34.296,6.895h-2.845L7.981,25.439l-0.004,2.453c0,0.377,0.215,0.719,0.554,0.881c0.339,0.166,0.743,0.121,1.038-0.114
			L34.905,8.647c0.328-0.259,0.456-0.71,0.318-1.104C35.085,7.148,34.714,6.895,34.296,6.895z"/>
	</g>
</g>
<g>
</g>
<g>
</g>
<g>
</g>
<g>
</g>
<g>
</g>
<g>
</g>
<g>
</g>
<g>
</g>
<g>
</g>
<g>
</g>
<g>
</g>
<g>
</g>
<g>
</g>
<g>
</g>
<g>
</g>
</svg>
