<?xml version="1.0" encoding="iso-8859-1"?>
<!-- Generator: Adobe Illustrator 16.0.0, SVG Export Plug-In . SVG Version: 6.00 Build 0)  -->
<!DOCTYPE svg PUBLIC "-//W3C//DTD SVG 1.1//EN" "http://www.w3.org/Graphics/SVG/1.1/DTD/svg11.dtd">
<svg version="1.1" id="Capa_1" xmlns="http://www.w3.org/2000/svg" xmlns:xlink="http://www.w3.org/1999/xlink" x="0px" y="0px"
	 width="45.707px" height="45.707px" viewBox="0 0 45.707 45.707" style="enable-background:new 0 0 45.707 45.707;"
	 xml:space="preserve">
<g>
	<g>
		<path d="M18.687,30.33c0,2.223,1.808,4.031,4.03,4.031c0.566,0,1.105-0.119,1.596-0.33l-5.297-5.297
			C18.804,29.223,18.687,29.764,18.687,30.33z"/>
		<path d="M29.805,15.992h-0.002c-0.27-0.104-0.471-0.334-0.539-0.613c-0.068-0.279,0.002-0.576,0.191-0.794
			c1.344-1.547,2.157-3.569,2.157-5.78C31.612,3.951,27.678,0,22.841,0c-3.854,0-7.131,2.511-8.301,5.989
			c-0.198,0.591-0.103,1.243,0.263,1.751c0.364,0.507,0.95,0.808,1.574,0.808c0.807,0,1.518-0.52,1.764-1.286
			c0.646-2,2.5-3.453,4.698-3.453c2.737,0,4.962,2.241,4.962,4.996c0,1.515-0.767,3.188-1.71,3.837
			c-1.021,0.703-10.15,3.372-10.15,3.372c-1.751,0.663-2.914,2.341-2.914,4.215v20.964c0,2.492,2.025,4.514,4.514,4.514h10.599
			c2.49,0,4.539-2.021,4.539-4.514V20.187C32.679,18.334,31.529,16.669,29.805,15.992z M30.09,37.703
			c-0.291,0.292-0.67,0.438-1.053,0.438c-0.381,0-0.763-0.146-1.054-0.438l-1.478-1.479c-1.094,0.705-2.396,1.115-3.791,1.115
			c-3.866,0-7.011-3.145-7.011-7.011c0-1.396,0.41-2.696,1.115-3.79l-1.478-1.479c-0.582-0.582-0.582-1.523,0-2.105
			s1.524-0.582,2.105,0l1.479,1.479c1.093-0.705,2.395-1.115,3.789-1.115c3.866,0,7.012,3.146,7.012,7.012
			c0,1.395-0.41,2.695-1.115,3.789l1.479,1.479C30.672,36.178,30.672,37.122,30.09,37.703z"/>
		<path d="M22.716,26.297c-0.566,0-1.105,0.118-1.595,0.33l5.296,5.296c0.213-0.489,0.33-1.026,0.33-1.594
			C26.748,28.105,24.938,26.297,22.716,26.297z"/>
	</g>
</g>
<g>
</g>
<g>
</g>
<g>
</g>
<g>
</g>
<g>
</g>
<g>
</g>
<g>
</g>
<g>
</g>
<g>
</g>
<g>
</g>
<g>
</g>
<g>
</g>
<g>
</g>
<g>
</g>
<g>
</g>
</svg>
