<?xml version="1.0" encoding="iso-8859-1"?>
<!-- Generator: Adobe Illustrator 16.0.0, SVG Export Plug-In . SVG Version: 6.00 Build 0)  -->
<!DOCTYPE svg PUBLIC "-//W3C//DTD SVG 1.1//EN" "http://www.w3.org/Graphics/SVG/1.1/DTD/svg11.dtd">
<svg version="1.1" id="Capa_1" xmlns="http://www.w3.org/2000/svg" xmlns:xlink="http://www.w3.org/1999/xlink" x="0px" y="0px"
	 width="45.389px" height="45.389px" viewBox="0 0 45.389 45.389" style="enable-background:new 0 0 45.389 45.389;"
	 xml:space="preserve">
<g>
	<g>
		<path d="M15.22,16.124c2.95,0.052,5.554-1.347,6.996-3.782l12.558,0.221c0.391,0.009,0.76-0.176,0.99-0.49l2.103-2.88
			c0.299-0.409,0.31-0.963,0.022-1.383l-1.869-2.737c-0.119-0.175-0.31-0.288-0.521-0.311c-0.211-0.021-0.42,0.051-0.573,0.197
			l-1.119,1.071c-0.287,0.275-0.742,0.267-1.018-0.02l-1.175-1.224c-0.134-0.138-0.315-0.218-0.507-0.222
			c-0.19-0.003-0.375,0.069-0.514,0.202l-1.214,1.171c-0.137,0.132-0.321,0.204-0.513,0.201c-0.189-0.003-0.373-0.083-0.505-0.22
			l-1.041-1.08c-0.134-0.138-0.315-0.218-0.507-0.221c-0.192-0.003-0.377,0.07-0.514,0.204l-0.543,0.526
			c-0.176,0.171-0.42,0.22-0.645,0.121c-0.225-0.098-0.572-1.303-1.077-1.303l-1.644-0.028c-1.351-2.487-3.918-4.083-6.886-4.135
			c-4.44-0.079-8.103,3.443-8.183,7.885C7.246,12.327,10.781,16.044,15.22,16.124z M11.66,5.924c1.13,0.021,2.03,0.952,2.009,2.082
			s-0.951,2.029-2.082,2.009c-1.13-0.02-2.029-0.952-2.009-2.081C9.598,6.804,10.53,5.904,11.66,5.924z"/>
		<path d="M37.274,24.852h-4.275v-1.724c0-2.087-1.699-3.762-3.788-3.762H16.208c-2.089,0-3.818,1.674-3.818,3.762v1.724H8.145
			c-1.267,0-2.279,1.04-2.279,2.31v15.936c0,1.269,1.012,2.292,2.279,2.292h29.129c1.268,0,2.248-1.023,2.248-2.292V27.16
			C39.522,25.892,38.542,24.852,37.274,24.852z M30.034,24.852H15.355v-1.724c0-0.44,0.41-0.796,0.853-0.796h13.004
			c0.442,0,0.822,0.354,0.822,0.796V24.852z"/>
	</g>
</g>
<g>
</g>
<g>
</g>
<g>
</g>
<g>
</g>
<g>
</g>
<g>
</g>
<g>
</g>
<g>
</g>
<g>
</g>
<g>
</g>
<g>
</g>
<g>
</g>
<g>
</g>
<g>
</g>
<g>
</g>
</svg>
