<?xml version="1.0" encoding="iso-8859-1"?>
<!-- Generator: Adobe Illustrator 16.0.0, SVG Export Plug-In . SVG Version: 6.00 Build 0)  -->
<!DOCTYPE svg PUBLIC "-//W3C//DTD SVG 1.1//EN" "http://www.w3.org/Graphics/SVG/1.1/DTD/svg11.dtd">
<svg version="1.1" id="Capa_1" xmlns="http://www.w3.org/2000/svg" xmlns:xlink="http://www.w3.org/1999/xlink" x="0px" y="0px"
	 width="45.681px" height="45.681px" viewBox="0 0 45.681 45.681" style="enable-background:new 0 0 45.681 45.681;"
	 xml:space="preserve">
<g>
	<g>
		<path d="M13.129,34.039H32.55c4.312,0,7.785-3.487,7.785-7.799v-0.18H5.31v0.18C5.31,30.551,8.817,34.039,13.129,34.039z"/>
		<path d="M40.335,13.825c0-4.312-3.473-7.823-7.785-7.823h-2.168V4.638C30.382,2.063,28.273,0,25.698,0h-5.716
			c-2.575,0-4.644,2.063-4.644,4.638v1.364h-2.209c-4.313,0-7.82,3.511-7.82,7.823v7.221h35.026L40.335,13.825L40.335,13.825z
			 M27.343,6.003h-9.042V4.638c0-0.919,0.762-1.675,1.681-1.675h5.716c0.919,0,1.646,0.756,1.646,1.675v1.365H27.343z"/>
		<path d="M38.857,36.47H6.824c-1.105,0-2.002,0.87-2.002,1.976s0.896,1.976,2.002,1.976h2.529c-0.519,0.56-0.836,1.306-0.836,2.129
			c0,1.729,1.402,3.131,3.132,3.131s3.132-1.403,3.132-3.131c0-0.823-0.317-1.571-0.835-2.129h17.79
			c-0.518,0.56-0.836,1.306-0.836,2.129c0,1.729,1.402,3.131,3.132,3.131s3.132-1.403,3.132-3.131c0-0.823-0.316-1.571-0.835-2.129
			h2.528c1.105,0,2.002-0.87,2.002-1.976S39.962,36.47,38.857,36.47z"/>
	</g>
</g>
<g>
</g>
<g>
</g>
<g>
</g>
<g>
</g>
<g>
</g>
<g>
</g>
<g>
</g>
<g>
</g>
<g>
</g>
<g>
</g>
<g>
</g>
<g>
</g>
<g>
</g>
<g>
</g>
<g>
</g>
</svg>
