<?xml version="1.0" encoding="iso-8859-1"?>
<!-- Generator: Adobe Illustrator 16.0.0, SVG Export Plug-In . SVG Version: 6.00 Build 0)  -->
<!DOCTYPE svg PUBLIC "-//W3C//DTD SVG 1.1//EN" "http://www.w3.org/Graphics/SVG/1.1/DTD/svg11.dtd">
<svg version="1.1" id="Capa_1" xmlns="http://www.w3.org/2000/svg" xmlns:xlink="http://www.w3.org/1999/xlink" x="0px" y="0px"
	 width="45.822px" height="45.822px" viewBox="0 0 45.822 45.822" style="enable-background:new 0 0 45.822 45.822;"
	 xml:space="preserve">
<g>
	<g>
		<path d="M39.664,29.766c-1.438-2.188-5.541-3.666-9.555-4.506c-2.014,1.487-4.501,2.367-7.188,2.367
			c-2.692,0-5.181-0.882-7.195-2.369c-4.019,0.838-8.132,2.317-9.568,4.508c-2.204,3.356-0.001,16.057-0.001,16.057h33.507
			C39.664,45.822,41.867,33.122,39.664,29.766z M22.91,41.014c-1.051,0-1.9-0.852-1.9-1.9s0.85-1.9,1.9-1.9
			c1.05,0,1.9,0.852,1.9,1.9S23.96,41.014,22.91,41.014z M22.91,34.498c-1.051,0-1.9-0.852-1.9-1.9c0-1.047,0.85-1.899,1.9-1.899
			c1.05,0,1.9,0.853,1.9,1.899C24.81,33.646,23.96,34.498,22.91,34.498z"/>
		<path d="M22.91,24.569c5.005,0,9.075-4.071,9.075-9.075c0-1.164-0.22-2.266-0.621-3.301h-1.33h-1.781
			c0.596,0.956,0.94,2.092,0.94,3.301c0,3.465-2.817,6.283-6.283,6.283c-3.464,0-6.282-2.819-6.282-6.283
			c0-1.211,0.346-2.345,0.939-3.301h-1.8h-1.311c-0.4,1.035-0.621,2.137-0.621,3.301C13.836,20.498,17.906,24.569,22.91,24.569z"/>
		<path d="M30.072,1.41c0-0.797-0.656-1.41-1.455-1.41H17.24c-0.796,0-1.432,0.613-1.432,1.41v8.711h14.264V1.41z"/>
	</g>
</g>
<g>
</g>
<g>
</g>
<g>
</g>
<g>
</g>
<g>
</g>
<g>
</g>
<g>
</g>
<g>
</g>
<g>
</g>
<g>
</g>
<g>
</g>
<g>
</g>
<g>
</g>
<g>
</g>
<g>
</g>
</svg>
