<?xml version="1.0" encoding="iso-8859-1"?>
<!-- Generator: Adobe Illustrator 16.0.0, SVG Export Plug-In . SVG Version: 6.00 Build 0)  -->
<!DOCTYPE svg PUBLIC "-//W3C//DTD SVG 1.1//EN" "http://www.w3.org/Graphics/SVG/1.1/DTD/svg11.dtd">
<svg version="1.1" id="Capa_1" xmlns="http://www.w3.org/2000/svg" xmlns:xlink="http://www.w3.org/1999/xlink" x="0px" y="0px"
	 width="45.814px" height="45.814px" viewBox="0 0 45.814 45.814" style="enable-background:new 0 0 45.814 45.814;"
	 xml:space="preserve">
<g>
	<g>
		<path d="M30.084,25.605c0.197-0.209,0.299-0.496,0.281-0.783l-1.087-11.677c-0.163-1.746-1.628-3.071-3.381-3.071h-5.984
			c-1.752,0-3.216,1.324-3.378,3.07l-1.086,11.67c-0.019,0.287,0.083,0.58,0.279,0.789c0.196,0.209,0.471,0.34,0.758,0.34h1.09
			l-1.203,6.564c-0.119,0.646,0.058,1.307,0.478,1.812s1.043,0.793,1.701,0.793l0.02,9.686c0,0.574,0.502,1.016,1.079,1.016h1.738
			c0.576,0,1.005-0.441,1.005-1.016v-9.68h0.966v9.68c0,0.573,0.49,1.016,1.065,1.016h1.737c0.574,0,1.061-0.441,1.061-1.016v-9.68
			h0.106c0.657,0,1.28-0.293,1.702-0.799c0.42-0.506,0.594-1.166,0.477-1.811l-1.202-6.566h1.02
			C29.613,25.943,29.887,25.814,30.084,25.605z M26.396,31.309c0,0.631-0.485,1.121-1.119,1.121h-4.741
			c-0.634,0-1.178-0.49-1.178-1.121v-7.297h7.038V31.309z"/>
		<circle cx="22.906" cy="4.297" r="4.297"/>
	</g>
</g>
<g>
</g>
<g>
</g>
<g>
</g>
<g>
</g>
<g>
</g>
<g>
</g>
<g>
</g>
<g>
</g>
<g>
</g>
<g>
</g>
<g>
</g>
<g>
</g>
<g>
</g>
<g>
</g>
<g>
</g>
</svg>
