<?xml version="1.0" encoding="iso-8859-1"?>
<!-- Generator: Adobe Illustrator 16.0.0, SVG Export Plug-In . SVG Version: 6.00 Build 0)  -->
<!DOCTYPE svg PUBLIC "-//W3C//DTD SVG 1.1//EN" "http://www.w3.org/Graphics/SVG/1.1/DTD/svg11.dtd">
<svg version="1.1" id="Capa_1" xmlns="http://www.w3.org/2000/svg" xmlns:xlink="http://www.w3.org/1999/xlink" x="0px" y="0px"
	 width="45.705px" height="45.705px" viewBox="0 0 45.705 45.705" style="enable-background:new 0 0 45.705 45.705;"
	 xml:space="preserve">
<g>
	<path d="M45.643,30.096c0-3.038-1.812-5.808-4.656-6.88L24.9,16.995l-0.051-2.066c3.08-0.883,5.35-3.72,5.35-7.082
		c0-4.064-3.305-7.371-7.367-7.371c-2,0-4.768,1.547-6.271,3.821c-0.375,0.564-0.41,1.324-0.086,1.923
		c0.322,0.6,0.945,1.003,1.626,1.003h0.035c0.637,0,1.225-0.373,1.538-0.928c0.661-1.178,2.05-2.003,3.162-2.003
		c1.965,0,3.568,1.612,3.568,3.577c0,1.971-1.604,3.58-3.568,3.58c-0.003,0-0.006,0-0.009,0c-0.468,0-0.919,0.17-1.246,0.501
		c-0.331,0.333-0.515,0.776-0.509,1.246l0.045,3.791L4.699,23.216C1.857,24.292,0,27.054,0,30.094v1.173
		c0,3.409,2.666,6.372,6.073,6.372h9.355l-1.525-3.849h-7.83c-1.309,0-2.299-1.211-2.299-2.523v-1.173
		c0-1.47,0.885-2.804,2.257-3.322l12.545-4.752c-0.642,1.771-0.596,3.421-0.344,4.708l-2.498,1.025
		c-1.003,0.412-1.488,1.556-1.086,2.563l5.209,13.07c0.29,0.727,0.858,1.307,1.578,1.612c0.364,0.152,0.753,0.23,1.141,0.23
		c0.379,0,0.757-0.073,1.113-0.219l4.651-1.911c1.485-0.609,2.202-2.302,1.608-3.792l-5.217-13.092
		c-0.195-0.49-0.58-0.883-1.066-1.09c-0.246-0.104-0.509-0.156-0.771-0.156c-0.256,0-0.512,0.05-0.753,0.15l-2.073,0.851
		c-0.191-1.347-0.038-3.132,1.269-5l1.517-0.574l16.79,6.373c1.375,0.519,2.244,1.854,2.244,3.321v1.174
		c0,1.312-0.98,2.523-2.289,2.523h-9.719l1.525,3.849H39.6c3.405,0,6.105-2.938,6.105-6.345L45.643,30.096z M21.851,29.13
		c0.346,0.843-0.056,1.806-0.9,2.154c-0.842,0.344-1.805-0.06-2.152-0.899c-0.209-0.511-0.144-1.065,0.127-1.501
		c0.146,0.314,0.253,0.492,0.26,0.504c0.187,0.302,0.51,0.468,0.842,0.468c0.178,0,0.358-0.05,0.521-0.149
		c0.464-0.289,0.607-0.896,0.319-1.361c-0.012-0.02-0.048-0.078-0.099-0.176C21.24,28.303,21.648,28.642,21.851,29.13z"/>
</g>
<g>
</g>
<g>
</g>
<g>
</g>
<g>
</g>
<g>
</g>
<g>
</g>
<g>
</g>
<g>
</g>
<g>
</g>
<g>
</g>
<g>
</g>
<g>
</g>
<g>
</g>
<g>
</g>
<g>
</g>
</svg>
