<?xml version="1.0" encoding="iso-8859-1"?>
<!-- Generator: Adobe Illustrator 16.0.0, SVG Export Plug-In . SVG Version: 6.00 Build 0)  -->
<!DOCTYPE svg PUBLIC "-//W3C//DTD SVG 1.1//EN" "http://www.w3.org/Graphics/SVG/1.1/DTD/svg11.dtd">
<svg version="1.1" id="Capa_1" xmlns="http://www.w3.org/2000/svg" xmlns:xlink="http://www.w3.org/1999/xlink" x="0px" y="0px"
	 width="45.865px" height="45.865px" viewBox="0 0 45.865 45.865" style="enable-background:new 0 0 45.865 45.865;"
	 xml:space="preserve">
<g>
	<g>
		<g>
			<path d="M0,32.702c0,2.812,2.278,5.09,5.09,5.09h35.686c2.811,0,5.09-2.277,5.09-5.09v-0.264H0V32.702z"/>
		</g>
		<g>
			<circle cx="15.863" cy="17.715" r="1.304"/>
		</g>
		<g>
			<path d="M40.773,8.073H5.09c-2.812,0-5.09,2.279-5.09,5.09v13.541h45.864V13.162C45.864,10.352,43.585,8.073,40.773,8.073z
				 M32.604,18.136l-1.301,1.863c-0.145,0.204-0.377,0.325-0.625,0.327l-8.006,0.029c-0.886,1.572-2.528,2.5-4.407,2.506
				c-2.83,0.011-5.135-2.311-5.145-5.141c-0.011-2.832,2.276-5.127,5.107-5.135c1.892-0.008,3.549,0.975,4.444,2.541l1.044-0.004
				c0.122-0.001,0.237,0.047,0.323,0.134c0.087,0.085,0.135,0.202,0.135,0.323v0.002c0,0.156,0.097,0.297,0.24,0.356
				c0.144,0.06,0.31,0.024,0.42-0.086l0.339-0.344c0.086-0.087,0.203-0.136,0.326-0.137c0.121-0.001,0.238,0.048,0.325,0.134
				l0.677,0.674c0.086,0.086,0.203,0.134,0.325,0.134c0.122-0.001,0.237-0.05,0.323-0.136l0.761-0.763
				c0.085-0.087,0.202-0.135,0.325-0.135c0.121,0,0.236,0.048,0.324,0.134l0.766,0.762c0.18,0.18,0.47,0.18,0.648,0l0.696-0.698
				c0.097-0.096,0.229-0.145,0.364-0.134c0.134,0.012,0.258,0.082,0.335,0.191l1.229,1.719
				C32.787,17.518,32.789,17.871,32.604,18.136z"/>
		</g>
	</g>
</g>
<g>
</g>
<g>
</g>
<g>
</g>
<g>
</g>
<g>
</g>
<g>
</g>
<g>
</g>
<g>
</g>
<g>
</g>
<g>
</g>
<g>
</g>
<g>
</g>
<g>
</g>
<g>
</g>
<g>
</g>
</svg>
