<?xml version="1.0" encoding="iso-8859-1"?>
<!-- Generator: Adobe Illustrator 16.0.0, SVG Export Plug-In . SVG Version: 6.00 Build 0)  -->
<!DOCTYPE svg PUBLIC "-//W3C//DTD SVG 1.1//EN" "http://www.w3.org/Graphics/SVG/1.1/DTD/svg11.dtd">
<svg version="1.1" id="Capa_1" xmlns="http://www.w3.org/2000/svg" xmlns:xlink="http://www.w3.org/1999/xlink" x="0px" y="0px"
	 width="45.623px" height="45.623px" viewBox="0 0 45.623 45.623" style="enable-background:new 0 0 45.623 45.623;"
	 xml:space="preserve">
<g>
	<g>
		<path d="M19.771,31.469c0.334,0.063,0.613,0.291,0.743,0.604c0.132,0.312,0.099,0.671-0.089,0.953l-1.304,1.964l2.544,4.062
			V27.466c-2.239-0.211-4.302-1.034-6.019-2.301c-1.081,0.226-2.168,0.498-3.208,0.817l2.394,4.541L19.771,31.469z"/>
		<path d="M39.479,29.646c-0.792-1.207-2.403-2.198-4.363-2.983l-2.795,5.242c-0.146,0.271-0.403,0.461-0.704,0.518l-3.92,0.751
			l0.82,1.238c0.22,0.331,0.226,0.761,0.016,1.1l-4.763,7.606c-0.189,0.301-0.518,0.474-0.859,0.474c-0.039,0-0.193,0-0.231,0
			c-0.342,0-0.67-0.173-0.86-0.474l-4.761-7.608c-0.212-0.337-0.205-0.767,0.015-1.099l0.821-1.237l-3.921-0.751
			c-0.301-0.058-0.563-0.25-0.706-0.522l-2.762-5.236c-1.958,0.785-3.569,1.775-4.361,2.984c-2.193,3.338,0,15.975,0,15.975h33.335
			C39.479,45.622,41.671,32.985,39.479,29.646z"/>
		<path d="M25.819,31.469l4.939-0.945l2.42-4.539c-1.044-0.322-2.137-0.596-3.222-0.822c-1.721,1.271-3.792,2.098-6.039,2.307
			v11.582l2.546-4.062l-1.301-1.964c-0.188-0.282-0.222-0.641-0.089-0.953C25.206,31.76,25.485,31.532,25.819,31.469z"/>
		<path d="M22.798,24.477c4.979,0,9.029-4.05,9.029-9.027c0-3.606-2.125-6.724-5.188-8.17c0.784-0.729,1.277-1.685,1.331-2.735
			c0.003-0.063,0.005-0.125,0.005-0.188C27.976,1.951,25.663,0,22.811,0c-2.854,0-5.168,1.951-5.168,4.356
			c0,0.06,0.003,0.119,0.007,0.179c0.05,1.052,0.542,2.007,1.323,2.738c-3.07,1.443-5.202,4.564-5.202,8.177
			C13.771,20.427,17.822,24.477,22.798,24.477z M22.798,9.198c3.447,0,6.252,2.804,6.252,6.251c0,3.446-2.806,6.25-6.252,6.25
			c-3.446,0-6.251-2.804-6.251-6.25C16.547,12.002,19.353,9.198,22.798,9.198z"/>
	</g>
</g>
<g>
</g>
<g>
</g>
<g>
</g>
<g>
</g>
<g>
</g>
<g>
</g>
<g>
</g>
<g>
</g>
<g>
</g>
<g>
</g>
<g>
</g>
<g>
</g>
<g>
</g>
<g>
</g>
<g>
</g>
</svg>
