<?xml version="1.0" encoding="iso-8859-1"?>
<!-- Generator: Adobe Illustrator 16.0.0, SVG Export Plug-In . SVG Version: 6.00 Build 0)  -->
<!DOCTYPE svg PUBLIC "-//W3C//DTD SVG 1.1//EN" "http://www.w3.org/Graphics/SVG/1.1/DTD/svg11.dtd">
<svg version="1.1" id="Capa_1" xmlns="http://www.w3.org/2000/svg" xmlns:xlink="http://www.w3.org/1999/xlink" x="0px" y="0px"
	 width="46.041px" height="46.041px" viewBox="0 0 46.041 46.041" style="enable-background:new 0 0 46.041 46.041;"
	 xml:space="preserve">
<g>
	<g>
		<path d="M14.513,21.78c0.164-0.118,0.245-0.32,0.211-0.519l-0.414-2.414c-0.029-0.172,0.028-0.348,0.153-0.47l1.755-1.709
			c0.144-0.141,0.196-0.352,0.134-0.544s-0.229-0.333-0.429-0.361l-2.424-0.352c-0.173-0.025-0.322-0.133-0.399-0.291l-1.085-2.196
			c-0.089-0.182-0.273-0.296-0.475-0.296s-0.387,0.114-0.477,0.296L9.979,15.12c-0.077,0.157-0.227,0.265-0.399,0.291l-2.425,0.353
			c-0.2,0.028-0.366,0.169-0.428,0.361c-0.063,0.192-0.011,0.403,0.134,0.544l1.754,1.709c0.126,0.122,0.184,0.298,0.153,0.47
			l-0.414,2.414c-0.034,0.199,0.048,0.4,0.21,0.519c0.164,0.119,0.381,0.135,0.561,0.04l2.168-1.139
			c0.154-0.082,0.339-0.082,0.493,0l2.168,1.139C14.133,21.915,14.35,21.899,14.513,21.78z"/>
		<path d="M26,21.78c0.163-0.118,0.245-0.32,0.211-0.519l-0.414-2.414c-0.029-0.172,0.027-0.348,0.153-0.47l1.753-1.709
			c0.146-0.141,0.197-0.352,0.136-0.544c-0.063-0.192-0.229-0.333-0.429-0.361l-2.424-0.352c-0.174-0.025-0.322-0.133-0.399-0.291
			l-1.085-2.196c-0.089-0.182-0.273-0.296-0.476-0.296c-0.201,0-0.386,0.114-0.476,0.296l-1.084,2.196
			c-0.077,0.157-0.228,0.265-0.399,0.291l-2.425,0.352c-0.2,0.029-0.366,0.169-0.428,0.361c-0.063,0.192-0.01,0.403,0.134,0.544
			l1.754,1.709c0.126,0.122,0.182,0.298,0.153,0.47l-0.413,2.415c-0.034,0.199,0.047,0.4,0.21,0.519
			c0.164,0.119,0.381,0.135,0.56,0.04l2.169-1.139c0.154-0.082,0.339-0.082,0.493,0l2.167,1.139
			C25.62,21.915,25.837,21.899,26,21.78z"/>
		<path d="M21.666,27.25l-2.423-0.352c-0.173-0.025-0.323-0.135-0.399-0.291l-1.084-2.195c-0.09-0.182-0.275-0.296-0.477-0.296
			c-0.202,0-0.387,0.114-0.477,0.296l-1.084,2.197c-0.076,0.156-0.227,0.265-0.399,0.289L12.9,27.25
			c-0.201,0.029-0.367,0.169-0.43,0.361c-0.062,0.191-0.011,0.402,0.135,0.544l1.754,1.71c0.125,0.122,0.182,0.297,0.152,0.469
			l-0.414,2.414c-0.033,0.199,0.048,0.4,0.212,0.52c0.163,0.119,0.38,0.135,0.559,0.041l2.168-1.141c0.154-0.082,0.34-0.082,0.494,0
			l2.167,1.141c0.179,0.094,0.395,0.078,0.559-0.041s0.246-0.32,0.212-0.52l-0.414-2.414c-0.03-0.172,0.027-0.348,0.152-0.47
			l1.755-1.71c0.144-0.141,0.196-0.352,0.134-0.544S21.866,27.28,21.666,27.25z"/>
		<path d="M33.154,27.251l-2.424-0.353c-0.172-0.025-0.322-0.135-0.399-0.291l-1.084-2.196c-0.09-0.181-0.274-0.296-0.476-0.296
			c-0.203,0-0.388,0.115-0.478,0.296l-1.084,2.196c-0.077,0.156-0.228,0.266-0.399,0.291l-2.424,0.353
			c-0.199,0.029-0.365,0.169-0.429,0.361c-0.063,0.192-0.01,0.403,0.134,0.543l1.756,1.71c0.125,0.122,0.182,0.297,0.151,0.47
			l-0.414,2.414c-0.034,0.199,0.048,0.399,0.212,0.521c0.162,0.117,0.38,0.134,0.559,0.039l2.168-1.14
			c0.154-0.082,0.34-0.082,0.494,0l2.168,1.14c0.178,0.095,0.396,0.078,0.559-0.039c0.164-0.119,0.244-0.32,0.211-0.521
			l-0.413-2.414c-0.03-0.172,0.026-0.348,0.151-0.47l1.756-1.71c0.144-0.142,0.195-0.351,0.134-0.543S33.355,27.28,33.154,27.251z"
			/>
		<path d="M38.896,15.763l-2.422-0.352c-0.174-0.025-0.324-0.133-0.399-0.291l-1.084-2.196c-0.091-0.182-0.273-0.296-0.478-0.296
			c-0.201,0-0.387,0.114-0.477,0.296l-1.084,2.196c-0.076,0.157-0.227,0.265-0.398,0.291l-2.424,0.352
			c-0.199,0.029-0.365,0.169-0.43,0.361c-0.062,0.192-0.01,0.403,0.135,0.544l1.754,1.709c0.125,0.122,0.184,0.298,0.152,0.47
			l-0.412,2.415c-0.034,0.199,0.047,0.4,0.211,0.519c0.163,0.119,0.38,0.135,0.559,0.04l2.168-1.139c0.154-0.082,0.34-0.082,0.494,0
			l2.168,1.139c0.178,0.094,0.396,0.079,0.559-0.041c0.164-0.118,0.246-0.32,0.212-0.519l-0.414-2.414
			c-0.03-0.172,0.026-0.348,0.151-0.47l1.756-1.709c0.146-0.141,0.195-0.352,0.135-0.544C39.266,15.932,39.1,15.791,38.896,15.763z"
			/>
		<path d="M41.566,5.379H4.487C2.01,5.379,0,7.373,0,9.85v26.298c0,2.477,2.01,4.514,4.487,4.514h37.08
			c2.479,0,4.475-2.037,4.475-4.514V9.85C46.041,7.373,44.045,5.379,41.566,5.379z M42.166,36.113c0,0.316-0.256,0.572-0.57,0.572
			H4.498c-0.316,0-0.571-0.256-0.571-0.572V9.825c0-0.315,0.255-0.571,0.571-0.571h37.098c0.314,0,0.57,0.255,0.57,0.571V36.113z"/>
	</g>
</g>
<g>
</g>
<g>
</g>
<g>
</g>
<g>
</g>
<g>
</g>
<g>
</g>
<g>
</g>
<g>
</g>
<g>
</g>
<g>
</g>
<g>
</g>
<g>
</g>
<g>
</g>
<g>
</g>
<g>
</g>
</svg>
