<?xml version="1.0" encoding="iso-8859-1"?>
<!-- Generator: Adobe Illustrator 16.0.0, SVG Export Plug-In . SVG Version: 6.00 Build 0)  -->
<!DOCTYPE svg PUBLIC "-//W3C//DTD SVG 1.1//EN" "http://www.w3.org/Graphics/SVG/1.1/DTD/svg11.dtd">
<svg version="1.1" id="Capa_1" xmlns="http://www.w3.org/2000/svg" xmlns:xlink="http://www.w3.org/1999/xlink" x="0px" y="0px"
	 width="44.383px" height="44.383px" viewBox="0 0 44.383 44.383" style="enable-background:new 0 0 44.383 44.383;"
	 xml:space="preserve">
<g>
	<g>
		<path d="M20.479,43.081c0.214,0.771,0.914,1.303,1.712,1.303c0.799,0,1.5-0.532,1.713-1.303l1.052-3.786l-5.21,1.15L20.479,43.081
			z"/>
		<path d="M14.607,12.157c-0.43-1.521-0.391-3.135,0.128-4.663c0.864-2.538,2.935-4.415,5.441-5.077
			c-0.709-0.939-1.698-1.683-2.897-2.091c-3.188-1.083-6.652,0.62-7.735,3.81c-1.086,3.188,0.619,6.653,3.808,7.739
			C13.767,12.015,14.188,12.109,14.607,12.157z"/>
		<polygon points="16.802,29.854 28.286,27.318 29.768,21.989 15.493,25.142 		"/>
		<path d="M30.064,12.528h-0.4h-2.182c0.091-0.214,0.174-0.4,0.242-0.607c1.038-3.057-0.596-6.384-3.651-7.422
			c-0.623-0.213-1.257-0.313-1.883-0.313c-2.432,0-4.703,1.538-5.531,3.971c-0.509,1.49-0.377,3.018,0.243,4.373h-2.185H14.32
			c-0.555,0-1.079,0.253-1.415,0.696c-0.336,0.44-0.445,1.012-0.297,1.547l2.066,7.435l16.017-3.538l1.083-3.899
			c0.149-0.534,0.039-1.103-0.298-1.543C31.141,12.781,30.619,12.528,30.064,12.528z"/>
		<polygon points="18.93,37.506 25.881,35.971 27.363,30.641 17.62,32.792 		"/>
		<g>
			<path d="M29.777,12.157c0.43-1.521,0.391-3.135-0.128-4.663c-0.864-2.538-2.936-4.415-5.441-5.077
				c0.709-0.939,1.698-1.683,2.897-2.091c3.188-1.083,6.651,0.62,7.734,3.81c1.086,3.188-0.619,6.653-3.808,7.739
				C30.617,12.015,30.197,12.109,29.777,12.157z"/>
		</g>
	</g>
</g>
<g>
</g>
<g>
</g>
<g>
</g>
<g>
</g>
<g>
</g>
<g>
</g>
<g>
</g>
<g>
</g>
<g>
</g>
<g>
</g>
<g>
</g>
<g>
</g>
<g>
</g>
<g>
</g>
<g>
</g>
</svg>
