<?xml version="1.0" encoding="iso-8859-1"?>
<!-- Generator: Adobe Illustrator 16.0.0, SVG Export Plug-In . SVG Version: 6.00 Build 0)  -->
<!DOCTYPE svg PUBLIC "-//W3C//DTD SVG 1.1//EN" "http://www.w3.org/Graphics/SVG/1.1/DTD/svg11.dtd">
<svg version="1.1" id="Capa_1" xmlns="http://www.w3.org/2000/svg" xmlns:xlink="http://www.w3.org/1999/xlink" x="0px" y="0px"
	 width="45.898px" height="45.898px" viewBox="0 0 45.898 45.898" style="enable-background:new 0 0 45.898 45.898;"
	 xml:space="preserve">
<g>
	<g>
		<path d="M22.899,39.882c-6.45,0-11.697-5.246-11.697-11.694c0-1.309,0.217-2.565,0.614-3.742l-8.691-8.539
			c-0.367-0.362-0.633-0.782-0.826-1.235c-1.137,0.549-1.92,1.725-1.92,3.089v20.853c0,1.889,1.489,3.384,3.377,3.384h25.956
			l-2.88-2.812C25.602,39.625,24.278,39.882,22.899,39.882z"/>
		<path d="M42.042,14.392h-9.42V3.402C32.622,1.515,31.111,0,29.224,0h-12.65c-1.888,0-3.376,1.516-3.376,3.402V11.5l5.77,5.672
			c1.23-0.44,2.554-0.682,3.933-0.682c6.451,0,11.696,5.247,11.696,11.698c0,1.309-0.216,2.565-0.614,3.739l8.688,8.538
			c0.364,0.357,0.659,0.775,0.856,1.234c1.164-0.549,1.992-1.725,1.992-3.088V17.76C45.52,15.873,43.929,14.392,42.042,14.392z
			 M29.555,5.452c0,0.774-0.64,1.39-1.416,1.39H17.627c-0.775,0-1.441-0.615-1.441-1.39V4.191c0-0.774,0.667-1.438,1.441-1.438
			h10.512c0.776,0,1.416,0.664,1.416,1.438V5.452z"/>
		<path d="M23.338,35.768l-8.027-7.888c-0.003,0.103-0.006,0.203-0.006,0.308c0,4.188,3.407,7.594,7.595,7.594
			C23.047,35.781,23.193,35.777,23.338,35.768z"/>
		<path d="M22.899,20.591c-0.147,0-0.294,0.005-0.439,0.014l8.026,7.889c0.004-0.102,0.008-0.204,0.008-0.307
			C30.492,23.998,27.086,20.591,22.899,20.591z"/>
		<path d="M8.195,10.747c-0.182-0.178-0.432-0.272-0.711-0.272c-0.055,0-0.11,0.003-0.166,0.01
			c-0.346,0.045-0.693,0.227-0.964,0.502l-0.943,0.96c-0.565,0.575-0.658,1.401-0.206,1.845l32.396,31.834
			c0.182,0.177,0.434,0.272,0.713,0.272c0.053,0,0.109-0.004,0.166-0.011c0.344-0.045,0.691-0.226,0.963-0.502l0.942-0.96
			c0.563-0.574,0.657-1.4,0.206-1.845L8.195,10.747z"/>
	</g>
</g>
<g>
</g>
<g>
</g>
<g>
</g>
<g>
</g>
<g>
</g>
<g>
</g>
<g>
</g>
<g>
</g>
<g>
</g>
<g>
</g>
<g>
</g>
<g>
</g>
<g>
</g>
<g>
</g>
<g>
</g>
</svg>
