<?xml version="1.0" encoding="iso-8859-1"?>
<!-- Generator: Adobe Illustrator 16.0.0, SVG Export Plug-In . SVG Version: 6.00 Build 0)  -->
<!DOCTYPE svg PUBLIC "-//W3C//DTD SVG 1.1//EN" "http://www.w3.org/Graphics/SVG/1.1/DTD/svg11.dtd">
<svg version="1.1" id="Capa_1" xmlns="http://www.w3.org/2000/svg" xmlns:xlink="http://www.w3.org/1999/xlink" x="0px" y="0px"
	 width="46.33px" height="46.331px" viewBox="0 0 46.33 46.331" style="enable-background:new 0 0 46.33 46.331;"
	 xml:space="preserve">
<g>
	<g>
		<path d="M5.031,25.099C2.236,25.099,0,27.385,0,30.181v4.655c0,2.795,2.236,5.041,5.031,5.041H23.97L8.928,25.099H5.031z"/>
		<path d="M41.299,25.099H23.748l4.021,3.995H41.29c0.616,0,1.113,0.477,1.113,1.092v4.678c0,0.614-0.497,1.153-1.113,1.153h-6.47
			l3.969,3.86h2.51c2.795,0,5.031-2.246,5.031-5.041v-4.655C46.33,27.385,44.094,25.099,41.299,25.099z"/>
		<path d="M37.961,19.218c-0.599,0.911-0.344,2.135,0.568,2.732c0.333,0.218,0.708,0.322,1.08,0.322c0.643,0,1.271-0.313,1.65-0.891
			c4.078-6.221,2.502-9,0.021-11.987c-1.249-1.503-2.328-2.799-2.328-5.391c0-1.09-0.883-1.973-1.974-1.973
			c-1.09,0-1.975,0.883-1.975,1.973c0,4.018,1.873,6.27,3.24,7.914C39.973,13.996,40.762,14.946,37.961,19.218z"/>
		<path d="M35.383,43.094c0.314-0.314,0.49-0.743,0.487-1.188c-0.003-0.444-0.185-0.87-0.504-1.182L13.162,19.083
			c-0.653-0.636-1.695-0.63-2.34,0.015c-0.239,0.239-0.479,0.479-0.719,0.719c-0.315,0.314-0.49,0.743-0.488,1.188
			c0.003,0.445,0.185,0.871,0.504,1.182l22.205,21.64c0.652,0.637,1.695,0.631,2.34-0.015
			C34.904,43.573,35.143,43.333,35.383,43.094z"/>
	</g>
</g>
<g>
</g>
<g>
</g>
<g>
</g>
<g>
</g>
<g>
</g>
<g>
</g>
<g>
</g>
<g>
</g>
<g>
</g>
<g>
</g>
<g>
</g>
<g>
</g>
<g>
</g>
<g>
</g>
<g>
</g>
</svg>
