<?xml version="1.0" encoding="iso-8859-1"?>
<!-- Generator: Adobe Illustrator 16.0.0, SVG Export Plug-In . SVG Version: 6.00 Build 0)  -->
<!DOCTYPE svg PUBLIC "-//W3C//DTD SVG 1.1//EN" "http://www.w3.org/Graphics/SVG/1.1/DTD/svg11.dtd">
<svg version="1.1" id="Capa_1" xmlns="http://www.w3.org/2000/svg" xmlns:xlink="http://www.w3.org/1999/xlink" x="0px" y="0px"
	 width="45.856px" height="45.856px" viewBox="0 0 45.856 45.856" style="enable-background:new 0 0 45.856 45.856;"
	 xml:space="preserve">
<g>
	<g>
		<path d="M21.529,24.066c-0.205-0.593-0.738-0.805-1.464-0.552c-0.297,0.103-0.489,0.199-0.583,0.264l0.658,1.904
			c0.135-0.014,0.29-0.058,0.501-0.131C21.415,25.285,21.757,24.728,21.529,24.066z"/>
		<path d="M13.959,25.626c-0.986,0.341-1.235,1.476-0.803,2.729c0.438,1.264,1.337,1.947,2.313,1.61
			c0.985-0.341,1.226-1.472,0.793-2.727C15.861,26.081,14.964,25.277,13.959,25.626z"/>
		<path d="M45.544,32.53l-6.868-20.237l0.486-0.166c0.458-0.156,1.229-0.604,1.37-1.526c0.182-1.194-0.874-1.956-1.393-2.223
			c-0.427-0.221-16.513-7.924-16.513-7.924c-2-0.936-4.372-0.393-5.768,1.321c0,0-11.938,14.687-15.942,19.563
			c-1.166,1.42-0.605,2.644-0.26,2.98c0.531,0.519,1.361,0.52,1.819,0.361l0.799-0.335l6.867,20.238
			c0.156,0.458,0.498,0.863,0.932,1.078c0.434,0.213,0.939,0.259,1.397,0.102l31.943-10.908
			C45.363,34.527,45.866,33.481,45.544,32.53z M31.22,23.522l0.67,1.94l-1.338,0.463l-2.227-6.446l1.7-0.588l2.155,1.899
			c0.617,0.545,1.278,1.218,1.817,1.845l0.027-0.01c-0.39-0.818-0.72-1.678-1.053-2.644l-0.652-1.885l1.34-0.463l2.228,6.446
			l-1.529,0.529l-2.237-2.01c-0.62-0.557-1.329-1.243-1.906-1.89l-0.025,0.021C30.522,21.567,30.855,22.469,31.22,23.522z
			 M25.552,23.275l2.373-0.82l0.411,1.186l-2.373,0.82l0.529,1.531l2.648-0.917l0.413,1.195l-4.112,1.421l-2.229-6.446l3.979-1.375
			l0.415,1.196l-2.517,0.869L25.552,23.275z M6.417,19.377L19.205,3.686c0.519-0.635,1.399-0.836,2.141-0.489l13.656,6.38
			L6.417,19.377z M21.327,29.116l-1.444,0.498l-2.198-6.358c0.423-0.232,1.034-0.508,1.924-0.815
			c0.898-0.311,1.599-0.361,2.148-0.166c0.524,0.184,0.987,0.624,1.205,1.255c0.217,0.631,0.192,1.238-0.064,1.733
			c-0.335,0.643-1,1.107-1.86,1.404c-0.19,0.066-0.366,0.117-0.506,0.143L21.327,29.116z M15.793,31.147
			c-1.913,0.662-3.531-0.396-4.165-2.23c-0.668-1.933,0.065-3.804,1.969-4.462c1.98-0.685,3.573,0.423,4.188,2.204
			C18.516,28.771,17.677,30.496,15.793,31.147z M40.072,28.78L12.3,38.281c-0.147,0.052-0.297,0.077-0.445,0.081
			c-0.645,0.021-1.254-0.379-1.475-1.021c-0.271-0.791,0.151-1.649,0.94-1.919l27.774-9.502c0.79-0.269,1.648,0.151,1.919,0.94
			C41.284,27.65,40.861,28.511,40.072,28.78z"/>
	</g>
</g>
<g>
</g>
<g>
</g>
<g>
</g>
<g>
</g>
<g>
</g>
<g>
</g>
<g>
</g>
<g>
</g>
<g>
</g>
<g>
</g>
<g>
</g>
<g>
</g>
<g>
</g>
<g>
</g>
<g>
</g>
</svg>
