<?xml version="1.0" encoding="iso-8859-1"?>
<!-- Generator: Adobe Illustrator 16.0.0, SVG Export Plug-In . SVG Version: 6.00 Build 0)  -->
<!DOCTYPE svg PUBLIC "-//W3C//DTD SVG 1.1//EN" "http://www.w3.org/Graphics/SVG/1.1/DTD/svg11.dtd">
<svg version="1.1" id="Capa_1" xmlns="http://www.w3.org/2000/svg" xmlns:xlink="http://www.w3.org/1999/xlink" x="0px" y="0px"
	 width="45.969px" height="45.969px" viewBox="0 0 45.969 45.969" style="enable-background:new 0 0 45.969 45.969;"
	 xml:space="preserve">
<g>
	<g>
		<path d="M32.729,10.31l-19.488-0.001c-0.857,0-1.677,0.34-2.283,0.947c-0.606,0.604-0.944,1.427-0.944,2.285v29.197
			c0,1.783,1.443,3.23,3.229,3.23h19.49c1.786,0,3.223-1.447,3.223-3.23V13.542C35.957,11.757,34.514,10.31,32.729,10.31z
			 M30.055,24.829l-0.034,3.569h-5.524V22.84h3.558C29.14,22.841,30.055,23.743,30.055,24.829z M15.984,28.4v-3.57
			c0-1.087,0.852-1.988,1.938-1.988h3.552V28.4h-5.52H15.984L15.984,28.4z M15.984,34.958v-3.539h5.491v5.492h-3.552
			C16.836,36.912,15.984,36.045,15.984,34.958z M30.055,34.958c0,1.087-0.915,1.953-2.002,1.953h-3.559v-5.492h5.561V34.958z"/>
		<path d="M16.273,7.33h0.496c0.703,0,1.331-0.276,1.571-0.936C19.035,4.487,20.841,3.2,22.987,3.2c2.146,0,3.953,1.246,4.646,3.153
			c0.24,0.659,0.869,0.977,1.572,0.977h0.496c0.391,0,0.76-0.02,0.996-0.33c0.236-0.311,0.314-0.631,0.209-1.009
			C29.944,2.519,26.765,0,22.987,0c-3.779,0-6.958,2.581-7.92,6.053c-0.104,0.378-0.026,0.626,0.209,0.937
			C15.514,7.302,15.882,7.33,16.273,7.33z"/>
	</g>
</g>
<g>
</g>
<g>
</g>
<g>
</g>
<g>
</g>
<g>
</g>
<g>
</g>
<g>
</g>
<g>
</g>
<g>
</g>
<g>
</g>
<g>
</g>
<g>
</g>
<g>
</g>
<g>
</g>
<g>
</g>
</svg>
