<?xml version="1.0" encoding="iso-8859-1"?>
<!-- Generator: Adobe Illustrator 16.0.0, SVG Export Plug-In . SVG Version: 6.00 Build 0)  -->
<!DOCTYPE svg PUBLIC "-//W3C//DTD SVG 1.1//EN" "http://www.w3.org/Graphics/SVG/1.1/DTD/svg11.dtd">
<svg version="1.1" id="Capa_1" xmlns="http://www.w3.org/2000/svg" xmlns:xlink="http://www.w3.org/1999/xlink" x="0px" y="0px"
	 width="46.014px" height="46.014px" viewBox="0 0 46.014 46.014" style="enable-background:new 0 0 46.014 46.014;"
	 xml:space="preserve">
<g>
	<g>
		<path d="M7.598,40.587h18.14c0.273,0,0.533-0.103,0.717-0.306c0.182-0.203,0.27-0.467,0.242-0.739
			c-0.406-3.869-3-7.08-6.522-8.386V3.512c0-1.936-1.552-3.505-3.488-3.505c-1.937,0-3.488,1.57-3.488,3.505v27.645
			c-3.523,1.306-6.134,4.522-6.54,8.394c-0.029,0.27,0.05,0.527,0.233,0.729C7.074,40.483,7.325,40.587,7.598,40.587z M16.667,2.839
			c0.719,0,1.301,0.583,1.301,1.301s-0.583,1.3-1.301,1.3c-0.718,0-1.3-0.583-1.3-1.3C15.367,3.423,15.95,2.839,16.667,2.839z"/>
		<path d="M28.72,43.969c0-1.089-0.883-1.973-1.973-1.973H6.604c-1.089,0-1.973,0.883-1.973,1.973s0.883,1.974,1.973,1.974h20.143
			C27.836,45.942,28.72,45.059,28.72,43.969z"/>
		<path d="M38.176,0c-1.771,0-3.206,1.435-3.206,3.206v39.606c0,1.768,1.438,3.201,3.206,3.201s3.206-1.434,3.206-3.201V3.206
			C41.382,1.435,39.946,0,38.176,0z M38.146,43.255c-0.718,0-1.3-0.582-1.3-1.3s0.583-1.3,1.3-1.3c0.72,0,1.302,0.582,1.302,1.3
			S38.866,43.255,38.146,43.255z"/>
		<path d="M31.669,1.551h-6.465c-0.842,0-1.522,0.71-1.522,1.55c0,0.841,0.681,1.551,1.522,1.551h6.465
			c0.841,0,1.523-0.71,1.523-1.551C33.192,2.261,32.51,1.551,31.669,1.551z"/>
		<path d="M31.669,6.131h-6.465c-0.842,0-1.522,0.675-1.522,1.516c0,0.84,0.681,1.515,1.522,1.515h6.465
			c0.841,0,1.523-0.674,1.523-1.515C33.192,6.806,32.51,6.131,31.669,6.131z"/>
		<path d="M31.669,10.711h-6.465c-0.842,0-1.522,0.674-1.522,1.515c0,0.84,0.681,1.515,1.522,1.515h6.465
			c0.841,0,1.523-0.675,1.523-1.515S32.51,10.711,31.669,10.711z"/>
		<path d="M31.669,15.291h-6.465c-0.842,0-1.522,0.674-1.522,1.515s0.681,1.515,1.522,1.515h6.465c0.841,0,1.523-0.674,1.523-1.515
			C33.192,15.966,32.51,15.291,31.669,15.291z"/>
	</g>
</g>
<g>
</g>
<g>
</g>
<g>
</g>
<g>
</g>
<g>
</g>
<g>
</g>
<g>
</g>
<g>
</g>
<g>
</g>
<g>
</g>
<g>
</g>
<g>
</g>
<g>
</g>
<g>
</g>
<g>
</g>
</svg>
