<?xml version="1.0" encoding="iso-8859-1"?>
<!-- Generator: Adobe Illustrator 16.0.0, SVG Export Plug-In . SVG Version: 6.00 Build 0)  -->
<!DOCTYPE svg PUBLIC "-//W3C//DTD SVG 1.1//EN" "http://www.w3.org/Graphics/SVG/1.1/DTD/svg11.dtd">
<svg version="1.1" id="Capa_1" xmlns="http://www.w3.org/2000/svg" xmlns:xlink="http://www.w3.org/1999/xlink" x="0px" y="0px"
	 width="45.057px" height="45.057px" viewBox="0 0 45.057 45.057" style="enable-background:new 0 0 45.057 45.057;"
	 xml:space="preserve">
<g>
	<g>
		<path d="M22.526,0C10.086,0,0,10.086,0,22.526c0,12.445,10.086,22.531,22.526,22.531c12.444,0,22.53-10.086,22.53-22.531
			C45.057,10.086,34.971,0,22.526,0z M22.528,34.217c-6.455,0-11.688-5.232-11.688-11.688s5.233-11.688,11.688-11.688
			c6.454,0,11.688,5.232,11.688,11.688C34.217,28.984,28.982,34.217,22.528,34.217z"/>
		<path d="M25.295,22.327v-0.073c1.971-0.806,2.492-2.145,2.492-3.577c0-2.708-2.258-4.607-5.417-4.607
			c-3.16,0-5.415,1.899-5.415,4.607c0,1.433,0.529,2.771,2.498,3.577v0.073c-1.969,0.782-3.017,2.144-3.017,4.108
			c0,2.199,1.839,4.558,5.925,4.558c4.087,0,5.938-2.358,5.938-4.558C28.301,24.469,27.266,23.109,25.295,22.327z M22.363,16.663
			c1.228,0.053,1.863,0.887,1.863,1.888c0,0.976-0.703,2.059-1.863,2.059c-1.16,0-1.864-1.083-1.864-2.059
			C20.498,17.549,21.135,16.715,22.363,16.663z M22.363,28.34c-1.321,0-2.139-1.154-2.115-2.283c0-1.186,0.745-2.408,2.115-2.408
			c1.371,0,2.115,1.224,2.115,2.408C24.503,27.186,23.686,28.34,22.363,28.34z"/>
	</g>
</g>
<g>
</g>
<g>
</g>
<g>
</g>
<g>
</g>
<g>
</g>
<g>
</g>
<g>
</g>
<g>
</g>
<g>
</g>
<g>
</g>
<g>
</g>
<g>
</g>
<g>
</g>
<g>
</g>
<g>
</g>
</svg>
