<?xml version="1.0" encoding="iso-8859-1"?>
<!-- Generator: Adobe Illustrator 16.0.0, SVG Export Plug-In . SVG Version: 6.00 Build 0)  -->
<!DOCTYPE svg PUBLIC "-//W3C//DTD SVG 1.1//EN" "http://www.w3.org/Graphics/SVG/1.1/DTD/svg11.dtd">
<svg version="1.1" id="Capa_1" xmlns="http://www.w3.org/2000/svg" xmlns:xlink="http://www.w3.org/1999/xlink" x="0px" y="0px"
	 width="45.604px" height="45.604px" viewBox="0 0 45.604 45.604" style="enable-background:new 0 0 45.604 45.604;"
	 xml:space="preserve">
<g>
	<g>
		<path d="M13.283,40.294c-0.783,1.149-1.364,2.367-1.691,3.754c-0.113,0.479-0.001,0.771,0.304,1.157
			c0.305,0.385,0.769,0.399,1.26,0.399h19.292c0.491,0,0.954-0.043,1.258-0.428c0.306-0.384,0.418-0.797,0.307-1.274
			c-0.328-1.387-0.909-2.503-1.691-3.654c4.848-2.201,8.795-6.643,11.155-10.643H2.125C4.485,33.605,8.435,38.093,13.283,40.294z"/>
		<path d="M3.62,19.606c-1.015,0-1.974,0.87-2.604,1.666s-0.863,1.917-0.628,2.904c0.104,0.442,0.22,1.43,0.348,1.43h44.133
			c0.127,0,0.243-0.785,0.349-1.226c0.235-0.989,0.003-2.373-0.626-3.17c-0.633-0.797-1.592-1.604-2.608-1.604H3.62z"/>
		<path d="M18.709,8.975c0.615,4.392,6.027,5.862,7.934,8.43c0.125,0.169,0.346,0.238,0.544,0.172
			c0.2-0.066,0.334-0.253,0.333-0.463c-0.012-3.845-4.719-5.555-4.867-9.163c-0.144-3.524,1.735-5.849,3.168-7.098
			c0.166-0.146,0.215-0.386,0.114-0.585c-0.101-0.198-0.321-0.304-0.538-0.257C22.572,0.621,17.816,2.597,18.709,8.975z"/>
		<path d="M10.831,9.05c0.422,3.012,3.959,4.126,5.506,5.815c0.145,0.158,0.375,0.203,0.568,0.111
			c0.193-0.092,0.304-0.299,0.272-0.511c-0.365-2.457-3.389-3.699-3.489-6.157c-0.093-2.268,0.971-3.85,1.937-4.809
			c0.157-0.156,0.189-0.398,0.078-0.589c-0.111-0.191-0.337-0.283-0.55-0.225C13.097,3.253,10.236,4.806,10.831,9.05z"/>
		<path d="M26.527,9.05c0.423,3.012,3.959,4.126,5.507,5.815c0.145,0.158,0.375,0.203,0.567,0.111
			c0.192-0.092,0.304-0.299,0.272-0.511c-0.365-2.457-3.39-3.699-3.489-6.157c-0.093-2.268,0.971-3.85,1.937-4.809
			c0.157-0.156,0.189-0.398,0.078-0.589c-0.111-0.191-0.337-0.283-0.55-0.225C28.792,3.253,25.934,4.806,26.527,9.05z"/>
	</g>
</g>
<g>
</g>
<g>
</g>
<g>
</g>
<g>
</g>
<g>
</g>
<g>
</g>
<g>
</g>
<g>
</g>
<g>
</g>
<g>
</g>
<g>
</g>
<g>
</g>
<g>
</g>
<g>
</g>
<g>
</g>
</svg>
