<?xml version="1.0" encoding="iso-8859-1"?>
<!-- Generator: Adobe Illustrator 16.0.0, SVG Export Plug-In . SVG Version: 6.00 Build 0)  -->
<!DOCTYPE svg PUBLIC "-//W3C//DTD SVG 1.1//EN" "http://www.w3.org/Graphics/SVG/1.1/DTD/svg11.dtd">
<svg version="1.1" id="Capa_1" xmlns="http://www.w3.org/2000/svg" xmlns:xlink="http://www.w3.org/1999/xlink" x="0px" y="0px"
	 width="45.51px" height="45.51px" viewBox="0 0 45.51 45.51" style="enable-background:new 0 0 45.51 45.51;" xml:space="preserve"
	>
<g>
	<g>
		<path d="M19.888,21.326l1.866,3.465c0.053,0.098,0.08,0.268,0.08,0.379l-0.01,9.506c0,0.396,0.157,0.775,0.437,1.055
			c0.28,0.281,0.659,0.438,1.056,0.438c0.822,0,1.49-0.667,1.49-1.489l0.01-9.621c0.002-0.606-0.15-1.209-0.438-1.74l-1.799-3.332
			c0.866-1.105,1.015-2.672,0.254-3.952c-0.021-0.037-0.045-0.071-0.067-0.108c1.005,0.953,2.555,1.167,3.801,0.425
			c1.47-0.872,1.977-2.747,1.168-4.239c1.001,0.802,2.433,0.945,3.601,0.252c1.208-0.718,1.766-2.11,1.478-3.414l0.163-0.096
			c0.877-0.521,1.298-1.61,1.152-2.622c-0.146-1.009-0.94-1.924-1.93-2.176L17.469,0.302C12.301-1.018,7.056,2.115,5.742,7.281
			L2.01,22.043c-0.25,0.989,0.147,2.079,0.963,2.691c0.813,0.608,1.969,0.764,2.845,0.25c1.005,0.875,2.496,1.054,3.703,0.337
			c1.202-0.716,1.759-2.099,1.479-3.396c0.899,1.496,2.84,1.987,4.34,1.095c1.202-0.715,1.76-2.1,1.479-3.396
			C17.487,20.737,18.675,21.347,19.888,21.326z M10.713,7.403L7.857,18.752c-0.171,0.677-0.777,1.127-1.445,1.127
			c-0.12,0-0.242-0.015-0.364-0.045c-0.801-0.201-1.284-1.012-1.082-1.811L7.823,6.675c0.201-0.798,1.011-1.284,1.811-1.08
			C10.432,5.794,10.916,6.604,10.713,7.403z"/>
		<path d="M43.543,43.469c0.094-0.529-0.03-1.074-0.344-1.514c-0.312-0.438-0.788-0.73-1.319-0.816L14.6,36.811
			c-0.032-0.016-0.064-0.03-0.097-0.043c-0.007-0.006-0.013-0.013-0.018-0.02l-8.24-9.741c-0.709-0.839-1.964-0.942-2.804-0.233
			c-0.837,0.709-0.943,1.963-0.234,2.804l7.547,8.922l-4.141,3.504c-0.838,0.71-0.942,1.965-0.232,2.804
			c0.395,0.465,0.955,0.703,1.52,0.703c0.453,0,0.91-0.154,1.284-0.471l5.033-4.262l27.076,4.298
			C42.357,45.242,43.359,44.527,43.543,43.469z"/>
	</g>
</g>
<g>
</g>
<g>
</g>
<g>
</g>
<g>
</g>
<g>
</g>
<g>
</g>
<g>
</g>
<g>
</g>
<g>
</g>
<g>
</g>
<g>
</g>
<g>
</g>
<g>
</g>
<g>
</g>
<g>
</g>
</svg>
