<?xml version="1.0" encoding="iso-8859-1"?>
<!-- Generator: Adobe Illustrator 16.0.0, SVG Export Plug-In . SVG Version: 6.00 Build 0)  -->
<!DOCTYPE svg PUBLIC "-//W3C//DTD SVG 1.1//EN" "http://www.w3.org/Graphics/SVG/1.1/DTD/svg11.dtd">
<svg version="1.1" id="Capa_1" xmlns="http://www.w3.org/2000/svg" xmlns:xlink="http://www.w3.org/1999/xlink" x="0px" y="0px"
	 width="45.854px" height="45.853px" viewBox="0 0 45.854 45.853" style="enable-background:new 0 0 45.854 45.853;"
	 xml:space="preserve">
<g>
	<g>
		<path d="M15.667,0.318h-4.561c-1.168,0-2.116,0.946-2.116,2.114c0,1.169,0.947,2.113,2.116,2.113h2.648
			c0.29,0,0.502,0.239,0.502,0.528v6.956l-4.749,3.173v-3.579c0-1.57-1.262-2.85-2.833-2.85h-4.56C0.948,8.774,0,9.72,0,10.888
			s0.947,2.113,2.116,2.113h2.648c0.29,0,0.516,0.245,0.516,0.534v29.887c0,1.168,0.946,2.114,2.114,2.114s2.114-0.946,2.114-2.114
			v-7.48l4.749-3.174v2.191c0,1.168,0.946,2.115,2.114,2.115s2.114-0.947,2.114-2.115V3.161C18.486,1.591,17.238,0.318,15.667,0.318
			z M14.258,15.843v4.648l-4.749,3.173v-4.648L14.258,15.843z M9.509,32.126v-4.648l4.749-3.174v4.648L9.509,32.126z"/>
		<path d="M26.779,24.595c2.521,0,5.103-1.479,7.24-2.705c4.447-2.549,6.791-3.467,9.043-0.843c0.571,0.665,1.572,0.739,2.237,0.169
			c0.665-0.571,0.741-1.571,0.169-2.237c-4.207-4.9-9.307-1.976-13.029,0.157c-4.612,2.646-6.541,3.356-8.498,0.284
			c-0.471-0.738-1.45-0.954-2.189-0.486c-0.739,0.471-0.957,1.452-0.486,2.19C22.911,23.708,24.827,24.595,26.779,24.595z"/>
		<path d="M32.441,26.985c-4.613,2.646-6.543,3.354-8.498,0.284c-0.471-0.739-1.451-0.955-2.19-0.486
			c-0.739,0.471-0.957,1.452-0.486,2.189c1.645,2.582,3.56,3.471,5.512,3.471c2.521,0,5.104-1.48,7.24-2.705
			c4.449-2.551,6.791-3.465,9.043-0.844c0.571,0.666,1.572,0.74,2.237,0.17c0.665-0.571,0.741-1.572,0.169-2.237
			C41.26,21.928,36.163,24.851,32.441,26.985z"/>
		<path d="M32.441,34.831c-4.613,2.644-6.543,3.354-8.498,0.283c-0.471-0.737-1.451-0.955-2.19-0.485
			c-0.739,0.471-0.957,1.451-0.486,2.19c1.645,2.582,3.56,3.47,5.512,3.47c2.521,0,5.104-1.48,7.24-2.705
			c4.448-2.549,6.791-3.465,9.045-0.843c0.57,0.666,1.572,0.74,2.236,0.17c0.665-0.571,0.741-1.571,0.17-2.237
			C41.262,29.775,36.163,32.698,32.441,34.831z"/>
	</g>
</g>
<g>
</g>
<g>
</g>
<g>
</g>
<g>
</g>
<g>
</g>
<g>
</g>
<g>
</g>
<g>
</g>
<g>
</g>
<g>
</g>
<g>
</g>
<g>
</g>
<g>
</g>
<g>
</g>
<g>
</g>
</svg>
