<?xml version="1.0" encoding="iso-8859-1"?>
<!-- Generator: Adobe Illustrator 16.0.0, SVG Export Plug-In . SVG Version: 6.00 Build 0)  -->
<!DOCTYPE svg PUBLIC "-//W3C//DTD SVG 1.1//EN" "http://www.w3.org/Graphics/SVG/1.1/DTD/svg11.dtd">
<svg version="1.1" id="Capa_1" xmlns="http://www.w3.org/2000/svg" xmlns:xlink="http://www.w3.org/1999/xlink" x="0px" y="0px"
	 width="46.087px" height="46.087px" viewBox="0 0 46.087 46.087" style="enable-background:new 0 0 46.087 46.087;"
	 xml:space="preserve">
<g>
	<g>
		<path d="M27.108,38.58c0,0.973,0.397,1.852,1.04,2.486c0.321-0.709,0.503-1.494,0.503-2.322c0-0.914-0.221-1.777-0.607-2.541
			C27.465,36.828,27.108,37.664,27.108,38.58z"/>
		<path d="M17.396,38.744c0,0.828,0.18,1.613,0.502,2.32c0.64-0.634,1.038-1.514,1.038-2.484c0-0.916-0.354-1.752-0.934-2.375
			C17.613,36.967,17.396,37.83,17.396,38.744z"/>
		<path d="M24.923,38.58c0-1.613,0.678-3.072,1.762-4.107c-0.984-0.844-2.263-1.355-3.662-1.355s-2.679,0.513-3.663,1.356
			c1.083,1.035,1.761,2.493,1.761,4.106c0,1.701-0.753,3.229-1.94,4.271c1.005,0.941,2.356,1.52,3.843,1.52
			c1.487,0,2.837-0.577,3.843-1.519C25.676,41.809,24.923,40.281,24.923,38.58z"/>
		<path d="M43.645,4.416c-1.822-1.981-4.421-3.028-7.515-3.028c-4.266,0-8.885,1.998-12.671,5.484
			c-6.134,5.641-8.205,13.596-5.123,18.597l-5.345,4.917c-1.105-0.385-2.381-0.166-3.303,0.682l-8.629,7.938
			c-1.331,1.226-1.42,3.301-0.192,4.633c0.646,0.703,1.527,1.06,2.413,1.06c0.793,0,1.59-0.287,2.22-0.865l8.628-7.938
			c0.862-0.796,1.203-1.947,1.002-3.021l5.421-4.987c1.692,1.265,3.836,1.927,6.292,1.927c4.267,0,8.887-2,12.675-5.484
			c3.167-2.913,5.37-6.522,6.205-10.167C46.606,10.296,45.869,6.834,43.645,4.416z M36.208,10.661l1.247,5.198l-5.066-1.685
			l-1.258-5.189L36.208,10.661z M34.789,4.753l0.818,3.408l-5.082-1.678l-0.103-0.417C31.879,5.38,33.362,4.93,34.789,4.753z
			 M25.677,9.284c0.589-0.539,1.202-1.039,1.835-1.494l1.178,0.389l1.254,5.183l-4.986-1.659l-0.33-1.373
			C24.96,9.971,25.311,9.623,25.677,9.284z M22.438,13.168l0.675,0.225l1.229,5.139l-3.748-1.233
			C20.964,15.932,21.586,14.528,22.438,13.168z M21.744,24.566c-1.188-1.291-1.671-3.092-1.529-5.093l4.724,1.555l1.312,5.488
			C24.824,26.427,23.051,25.988,21.744,24.566z M26.78,19.335l-1.227-5.13l4.994,1.661l1.24,5.117L26.78,19.335z M28.474,26.41
			l-1.096-4.578l5.017,1.652l0.375,1.545C31.341,25.726,29.883,26.199,28.474,26.41z M37.296,21.915
			c-0.238,0.221-0.483,0.434-0.731,0.641l-2.331-0.768l-1.238-5.108l5.062,1.683l0.537,2.246
			C38.188,21.057,37.754,21.495,37.296,21.915z M42.524,13.429c-0.298,1.3-0.738,2.376-1.448,3.635l0,0l-1.179-0.392l-1.249-5.205
			l4.004,1.322C42.617,13.001,42.574,13.214,42.524,13.429z M38.049,8.968l-1.021-4.26c1.369,0.131,2.986,0.604,4.204,1.928
			c0.93,1.012,1.455,2.348,1.556,3.896L38.049,8.968z"/>
	</g>
</g>
<g>
</g>
<g>
</g>
<g>
</g>
<g>
</g>
<g>
</g>
<g>
</g>
<g>
</g>
<g>
</g>
<g>
</g>
<g>
</g>
<g>
</g>
<g>
</g>
<g>
</g>
<g>
</g>
<g>
</g>
</svg>
