<?xml version="1.0" encoding="iso-8859-1"?>
<!-- Generator: Adobe Illustrator 16.0.0, SVG Export Plug-In . SVG Version: 6.00 Build 0)  -->
<!DOCTYPE svg PUBLIC "-//W3C//DTD SVG 1.1//EN" "http://www.w3.org/Graphics/SVG/1.1/DTD/svg11.dtd">
<svg version="1.1" id="Capa_1" xmlns="http://www.w3.org/2000/svg" xmlns:xlink="http://www.w3.org/1999/xlink" x="0px" y="0px"
	 width="45.591px" height="45.591px" viewBox="0 0 45.591 45.591" style="enable-background:new 0 0 45.591 45.591;"
	 xml:space="preserve">
<g>
	<g>
		<g>
			<path d="M13.731,30.697c0,0-0.002-0.002-0.003-0.002V3.781c0-2.024-1.638-3.682-3.661-3.682H9.383
				c-2.023,0-3.658,1.657-3.658,3.682v26.913c-0.002,0-0.003,0.002-0.006,0.004c-2.38,1.381-3.979,3.957-3.979,6.908
				c0,4.41,3.576,7.985,7.985,7.985c4.41,0,7.985-3.575,7.985-7.985C17.711,34.656,16.111,32.078,13.731,30.697z M9.725,41.551
				c-2.179,0-3.945-1.766-3.945-3.943c0-2.181,1.767-3.947,3.945-3.947c2.178,0,3.945,1.768,3.945,3.947
				C13.671,39.785,11.904,41.551,9.725,41.551z"/>
			<path d="M42.349,20.327h-8.988l5.204-5.214c0.586-0.588,0.586-1.542,0-2.13c-0.589-0.587-1.538-0.579-2.125,0.009l-7.327,7.335
				H17.077c-0.829,0-1.502,0.65-1.502,1.48c0,0.829,0.673,1.48,1.502,1.48H29.07l7.37,7.382c0.293,0.293,0.677,0.444,1.062,0.444
				s0.771-0.144,1.063-0.438c0.586-0.587,0.586-1.547,0-2.134l-5.247-5.257h9.031c0.828,0,1.502-0.65,1.502-1.479
				C43.851,20.978,43.177,20.327,42.349,20.327z"/>
			<path d="M17.077,16.188c0.385,0,0.77-0.144,1.063-0.438l3.556-3.552h8.019c0.83,0,1.502-0.684,1.502-1.513
				c0-0.83-0.672-1.512-1.502-1.512h-5.014l1.229-1.223c0.586-0.587,0.586-1.533,0-2.12c-0.586-0.587-1.53-0.585-2.117,0.002
				l-1.325,1.333V1.503C22.487,0.672,21.804,0,20.974,0c-0.828,0-1.512,0.672-1.512,1.503v8.644c0,0.007,0.004,0.016,0.004,0.022
				l-3.453,3.455c-0.587,0.587-0.586,1.537,0.001,2.124C16.308,16.041,16.692,16.188,17.077,16.188z"/>
		</g>
		<path d="M17.077,27.006c0.385,0,0.77,0.145,1.063,0.438l3.556,3.553h8.019c0.83,0,1.502,0.684,1.502,1.513
			c0,0.83-0.672,1.513-1.502,1.513h-5.014l1.229,1.223c0.586,0.587,0.586,1.533,0,2.119c-0.586,0.588-1.53,0.586-2.117-0.002
			l-1.323-1.332v5.662c0,0.832-0.683,1.504-1.513,1.504c-0.828,0-1.512-0.672-1.512-1.504v-8.644c0-0.007,0.004-0.017,0.004-0.022
			l-3.453-3.455c-0.587-0.586-0.586-1.537,0.001-2.123C16.308,27.152,16.692,27.006,17.077,27.006z"/>
	</g>
</g>
<g>
</g>
<g>
</g>
<g>
</g>
<g>
</g>
<g>
</g>
<g>
</g>
<g>
</g>
<g>
</g>
<g>
</g>
<g>
</g>
<g>
</g>
<g>
</g>
<g>
</g>
<g>
</g>
<g>
</g>
</svg>
