<?xml version="1.0" encoding="iso-8859-1"?>
<!-- Generator: Adobe Illustrator 16.0.0, SVG Export Plug-In . SVG Version: 6.00 Build 0)  -->
<!DOCTYPE svg PUBLIC "-//W3C//DTD SVG 1.1//EN" "http://www.w3.org/Graphics/SVG/1.1/DTD/svg11.dtd">
<svg version="1.1" id="Capa_1" xmlns="http://www.w3.org/2000/svg" xmlns:xlink="http://www.w3.org/1999/xlink" x="0px" y="0px"
	 width="45.654px" height="45.654px" viewBox="0 0 45.654 45.654" style="enable-background:new 0 0 45.654 45.654;"
	 xml:space="preserve">
<g>
	<g>
		<path d="M14.44,30.891V4.215c0-2.005-1.641-3.624-3.645-3.624h-0.679c-2.006,0-3.643,1.619-3.643,3.624V30.89
			c-2.318,1.372-3.938,3.925-3.938,6.849c0,4.372,3.547,7.915,7.916,7.915c4.372,0,7.923-3.543,7.923-7.915
			C18.375,34.815,16.757,32.262,14.44,30.891z M10.455,41.648c-2.158,0-3.909-1.75-3.909-3.909s1.751-3.909,3.909-3.909
			c2.161,0,3.911,1.75,3.911,3.909S12.616,41.648,10.455,41.648z"/>
		<path d="M18.211,4.802c-0.42-0.061-0.854,0.063-1.175,0.341C16.715,5.42,16.52,5.825,16.52,6.249v0.056
			c0,0.728,0.54,1.34,1.258,1.446c4.148,0.613,7.349,4.197,7.349,8.514c0,4.317-3.202,7.9-7.35,8.514
			c-0.718,0.105-1.257,0.722-1.257,1.445v0.106c0,0.41,0.187,0.801,0.497,1.07c0.31,0.269,0.727,0.391,1.134,0.331
			c5.617-0.795,9.955-5.634,9.955-11.468C28.105,10.45,23.8,5.622,18.211,4.802z"/>
		<path d="M41.631,14.799H30.712c-0.821,0-1.487,0.663-1.487,1.484s0.666,1.486,1.487,1.486h10.919c0.822,0,1.488-0.665,1.488-1.486
			C43.12,15.462,42.454,14.799,41.631,14.799z"/>
		<path d="M29.334,10.7c0.382,0,0.764-0.146,1.055-0.438l7.719-7.72c0.582-0.581,0.582-1.523,0-2.105
			c-0.582-0.581-1.523-0.581-2.104,0l-7.72,7.722c-0.582,0.581-0.582,1.521,0,2.104C28.572,10.552,28.954,10.7,29.334,10.7z"/>
		<path d="M30.387,22.471c-0.58-0.581-1.523-0.581-2.105,0s-0.582,1.524,0,2.105l7.721,7.72c0.291,0.29,0.672,0.438,1.052,0.438
			c0.384,0,0.763-0.146,1.054-0.438c0.582-0.582,0.582-1.524,0-2.104L30.387,22.471z"/>
	</g>
</g>
<g>
</g>
<g>
</g>
<g>
</g>
<g>
</g>
<g>
</g>
<g>
</g>
<g>
</g>
<g>
</g>
<g>
</g>
<g>
</g>
<g>
</g>
<g>
</g>
<g>
</g>
<g>
</g>
<g>
</g>
</svg>
