<?xml version="1.0" encoding="iso-8859-1"?>
<!-- Generator: Adobe Illustrator 16.0.0, SVG Export Plug-In . SVG Version: 6.00 Build 0)  -->
<!DOCTYPE svg PUBLIC "-//W3C//DTD SVG 1.1//EN" "http://www.w3.org/Graphics/SVG/1.1/DTD/svg11.dtd">
<svg version="1.1" id="Capa_1" xmlns="http://www.w3.org/2000/svg" xmlns:xlink="http://www.w3.org/1999/xlink" x="0px" y="0px"
	 width="46.294px" height="46.294px" viewBox="0 0 46.294 46.294" style="enable-background:new 0 0 46.294 46.294;"
	 xml:space="preserve">
<g>
	<g>
		<path d="M21.524,28.271l-2.779-0.404c-0.362-0.053-0.677-0.28-0.84-0.609l-1.243-2.521c-0.034-0.067-0.15-0.068-0.185,0
			l-1.243,2.521c-0.164,0.33-0.478,0.558-0.841,0.61l-2.78,0.404c-0.037,0.004-0.07,0.032-0.082,0.068
			c-0.013,0.038-0.002,0.078,0.025,0.105l2.012,1.961c0.265,0.258,0.386,0.627,0.321,0.99l-0.474,2.769
			c-0.006,0.038,0.009,0.077,0.041,0.101l0.106,0.008l2.487-1.308c0.159-0.084,0.339-0.129,0.519-0.129
			c0.181,0,0.359,0.044,0.519,0.128l2.535,1.32c0.016,0,0.039-0.004,0.062-0.021c0.03-0.021,0.046-0.061,0.04-0.098l-0.476-2.771
			c-0.063-0.359,0.058-0.729,0.322-0.986l2.012-1.961c0.026-0.027,0.037-0.068,0.025-0.105
			C21.597,28.303,21.563,28.277,21.524,28.271z"/>
		<path d="M43.514,5.919H2.782C1.245,5.919,0,7.166,0,8.702v28.889c0,1.537,1.245,2.783,2.782,2.783h40.729
			c1.537,0,2.782-1.246,2.782-2.783V8.702C46.295,7.166,45.05,5.919,43.514,5.919z M9.696,20.232L7.209,21.54
			c-0.205,0.108-0.453,0.09-0.641-0.046c-0.188-0.136-0.281-0.367-0.242-0.596l0.475-2.77c0.034-0.198-0.032-0.399-0.175-0.539
			l-2.013-1.962c-0.167-0.161-0.227-0.403-0.154-0.624c0.071-0.22,0.262-0.381,0.491-0.414l2.78-0.404
			c0.199-0.029,0.37-0.154,0.459-0.333l1.244-2.52c0.103-0.208,0.314-0.339,0.546-0.339s0.443,0.132,0.547,0.339l1.243,2.52
			c0.089,0.18,0.26,0.305,0.459,0.333l2.78,0.404c0.229,0.033,0.42,0.194,0.492,0.414c0.071,0.221,0.012,0.463-0.154,0.624
			l-2.013,1.962c-0.144,0.14-0.21,0.341-0.176,0.539l0.476,2.77c0.038,0.229-0.056,0.459-0.243,0.596
			c-0.187,0.136-0.436,0.154-0.642,0.046l-2.485-1.307C10.086,20.139,9.873,20.139,9.696,20.232z M22.289,29.172l-2.012,1.96
			l0.445,2.859c0.072,0.42-0.097,0.838-0.442,1.092c-0.193,0.14-0.421,0.214-0.657,0.214c-0.18,0-0.359-0.045-0.521-0.129
			l-2.485-1.308l-2.583,1.308c-0.369,0.194-0.836,0.159-1.173-0.083c-0.348-0.254-0.518-0.672-0.444-1.094l0.474-2.77l-2.04-2.051
			c-0.308-0.299-0.415-0.736-0.284-1.145c0.129-0.399,0.482-0.699,0.899-0.76l2.782-0.404l1.32-2.574
			c0.19-0.385,0.574-0.623,1.001-0.623c0.428,0,0.812,0.238,1.001,0.621l1.244,2.521l2.858,0.459c0.418,0.062,0.771,0.36,0.899,0.76
			C22.704,28.435,22.597,28.873,22.289,29.172z M22.876,20.232L20.39,21.54c-0.205,0.108-0.453,0.09-0.641-0.046
			c-0.188-0.136-0.283-0.367-0.243-0.596l0.476-2.77c0.033-0.198-0.032-0.399-0.176-0.539l-2.013-1.962
			c-0.166-0.161-0.226-0.403-0.154-0.624c0.071-0.22,0.263-0.381,0.491-0.414l2.781-0.404c0.198-0.029,0.37-0.154,0.458-0.333
			l1.244-2.52c0.104-0.208,0.314-0.339,0.546-0.339s0.443,0.132,0.547,0.339l1.243,2.52c0.089,0.18,0.261,0.305,0.459,0.333
			l2.779,0.404c0.229,0.033,0.422,0.194,0.492,0.414c0.071,0.221,0.012,0.463-0.154,0.624l-2.012,1.962
			c-0.144,0.14-0.209,0.341-0.176,0.539l0.475,2.77c0.039,0.229-0.055,0.459-0.242,0.596c-0.187,0.137-0.437,0.154-0.641,0.046
			l-2.488-1.307C23.267,20.139,23.054,20.139,22.876,20.232z M35.471,29.172l-2.013,1.96l0.444,2.859
			c0.072,0.42-0.098,0.838-0.441,1.092c-0.193,0.14-0.421,0.214-0.658,0.214c-0.18,0-0.357-0.045-0.52-0.129l-2.485-1.308
			l-2.583,1.308c-0.369,0.194-0.836,0.159-1.175-0.083c-0.347-0.254-0.517-0.672-0.442-1.094l0.473-2.77l-2.041-2.051
			c-0.305-0.299-0.413-0.736-0.281-1.145c0.129-0.399,0.482-0.699,0.898-0.76l2.783-0.404l1.319-2.574
			c0.19-0.385,0.571-0.623,1.001-0.623c0.428,0,0.811,0.238,1.002,0.621l1.243,2.521l2.856,0.459c0.418,0.062,0.771,0.36,0.9,0.76
			C35.885,28.435,35.777,28.873,35.471,29.172z M41.707,15.627l-2.014,1.962c-0.145,0.14-0.209,0.341-0.176,0.539l0.477,2.77
			c0.039,0.229-0.055,0.459-0.242,0.596c-0.188,0.136-0.438,0.154-0.643,0.046l-2.486-1.307c-0.178-0.093-0.389-0.093-0.566,0
			l-2.486,1.307c-0.205,0.108-0.454,0.09-0.641-0.046c-0.188-0.136-0.283-0.367-0.244-0.596l0.477-2.77
			c0.033-0.198-0.031-0.399-0.176-0.539l-2.014-1.962c-0.164-0.161-0.226-0.403-0.152-0.624c0.072-0.22,0.262-0.381,0.49-0.414
			l2.781-0.404c0.198-0.029,0.369-0.154,0.458-0.333l1.244-2.52c0.103-0.208,0.313-0.339,0.546-0.339s0.443,0.132,0.547,0.339
			l1.243,2.52c0.089,0.18,0.261,0.305,0.458,0.333l2.781,0.404c0.229,0.033,0.42,0.194,0.492,0.414
			C41.932,15.225,41.872,15.466,41.707,15.627z"/>
		<path d="M34.705,28.271l-2.78-0.404c-0.362-0.053-0.677-0.28-0.84-0.609l-1.243-2.521c-0.033-0.067-0.15-0.068-0.184,0
			l-1.244,2.521c-0.163,0.33-0.479,0.558-0.841,0.61l-2.779,0.404c-0.038,0.004-0.069,0.032-0.083,0.068
			c-0.012,0.038-0.002,0.078,0.025,0.105l2.013,1.961c0.265,0.258,0.385,0.627,0.319,0.99l-0.473,2.769
			c-0.008,0.038,0.01,0.077,0.041,0.101l0.106,0.008l2.485-1.308c0.16-0.084,0.34-0.129,0.521-0.129s0.358,0.044,0.519,0.128
			l2.535,1.32c0.016,0,0.038-0.004,0.062-0.021c0.03-0.021,0.046-0.061,0.04-0.098l-0.477-2.771
			c-0.062-0.359,0.059-0.729,0.321-0.986l2.013-1.961c0.027-0.027,0.037-0.068,0.025-0.105
			C34.775,28.303,34.744,28.277,34.705,28.271z"/>
	</g>
</g>
<g>
</g>
<g>
</g>
<g>
</g>
<g>
</g>
<g>
</g>
<g>
</g>
<g>
</g>
<g>
</g>
<g>
</g>
<g>
</g>
<g>
</g>
<g>
</g>
<g>
</g>
<g>
</g>
<g>
</g>
</svg>
