<?xml version="1.0" encoding="iso-8859-1"?>
<!-- Generator: Adobe Illustrator 16.0.0, SVG Export Plug-In . SVG Version: 6.00 Build 0)  -->
<!DOCTYPE svg PUBLIC "-//W3C//DTD SVG 1.1//EN" "http://www.w3.org/Graphics/SVG/1.1/DTD/svg11.dtd">
<svg version="1.1" id="Capa_1" xmlns="http://www.w3.org/2000/svg" xmlns:xlink="http://www.w3.org/1999/xlink" x="0px" y="0px"
	 width="45.569px" height="45.568px" viewBox="0 0 45.569 45.568" style="enable-background:new 0 0 45.569 45.568;"
	 xml:space="preserve">
<g>
	<g>
		<path d="M33.682,6.831C33.682,3.064,30.611,0,26.844,0h-8.164c-3.767,0-6.795,3.064-6.795,6.831V16.86h21.796V6.831z"/>
		<path d="M39.08,20.536c0.001-0.014-32.613-0.014-32.612,0c-1.159,0.241-2.024,1.26-2.024,2.492v0.052
			c0,1.411,1.129,2.59,2.539,2.59h0.935c2.109,4.405,6.171,7.799,11.107,8.95v4.041c-2.065,0.985-3.688,2.774-4.471,4.949
			c-0.161,0.448-0.094,0.946,0.18,1.336c0.274,0.39,0.721,0.622,1.197,0.622h13.671c0.476,0,0.92-0.23,1.193-0.618
			c0.274-0.388,0.344-0.885,0.187-1.333c-0.771-2.177-2.37-3.969-4.438-4.956v-4.042c4.86-1.15,8.958-4.544,11.066-8.95h0.934
			c1.41,0,2.581-1.18,2.581-2.59v-0.052C41.125,21.796,40.24,20.778,39.08,20.536z"/>
	</g>
</g>
<g>
</g>
<g>
</g>
<g>
</g>
<g>
</g>
<g>
</g>
<g>
</g>
<g>
</g>
<g>
</g>
<g>
</g>
<g>
</g>
<g>
</g>
<g>
</g>
<g>
</g>
<g>
</g>
<g>
</g>
</svg>
