<?xml version="1.0" encoding="iso-8859-1"?>
<!-- Generator: Adobe Illustrator 16.0.0, SVG Export Plug-In . SVG Version: 6.00 Build 0)  -->
<!DOCTYPE svg PUBLIC "-//W3C//DTD SVG 1.1//EN" "http://www.w3.org/Graphics/SVG/1.1/DTD/svg11.dtd">
<svg version="1.1" id="Capa_1" xmlns="http://www.w3.org/2000/svg" xmlns:xlink="http://www.w3.org/1999/xlink" x="0px" y="0px"
	 width="45.591px" height="45.591px" viewBox="0 0 45.591 45.591" style="enable-background:new 0 0 45.591 45.591;"
	 xml:space="preserve">
<g>
	<g>
		<path d="M16.047,13.069c-0.162-1.736-1.618-3.065-3.363-3.065H6.728c-1.745,0-3.201,1.329-3.363,3.065L2.284,24.688
			c-0.019,0.285,0.083,0.571,0.279,0.779C2.758,25.675,3.032,25.8,3.316,25.8h2.038l0.037,18.778c0,0.572,0.501,1.012,1.074,1.012
			h1.729c0.572,0,1.013-0.439,1.013-1.012V28.984c0-0.264,0.236-0.434,0.498-0.434l0,0c0.262,0,0.479,0.17,0.479,0.434v15.594
			c0,0.572,0.46,1.013,1.031,1.013h1.729c0.573,0,1.055-0.438,1.055-1.013V25.8h2.095c0.284,0,0.558-0.12,0.753-0.328
			c0.196-0.208,0.298-0.491,0.279-0.776L16.047,13.069z"/>
		<circle cx="9.706" cy="4.276" r="4.276"/>
		<path d="M22.786,0.483c-0.821,0-1.509,0.666-1.509,1.487v41.649c0,0.82,0.688,1.486,1.509,1.486c0.822,0,1.51-0.666,1.51-1.486
			V1.97C24.296,1.149,23.607,0.483,22.786,0.483z"/>
		<path d="M43.028,25.472c0.196-0.208,0.297-0.491,0.279-0.776l-1.081-11.626c-0.162-1.736-1.62-3.065-3.365-3.065h-5.954
			c-1.744,0-3.2,1.329-3.361,3.065l-1.081,11.619c-0.02,0.285,0.083,0.571,0.277,0.779c0.195,0.208,0.47,0.333,0.754,0.333h1.085
			l-1.195,6.54c-0.118,0.645,0.058,1.307,0.476,1.809s1.038,0.793,1.692,0.793l0.02,9.637c0,0.572,0.5,1.013,1.073,1.013h1.729
			c0.572,0,1.014-0.438,1.014-1.013v-9.637h0.976v9.637c0,0.572,0.46,1.013,1.032,1.013h1.73c0.57,0,1.054-0.438,1.054-1.013v-9.637
			h0.106c0.653,0,1.273-0.291,1.693-0.793c0.418-0.502,0.591-1.164,0.474-1.809L41.26,25.8h1.015
			C42.56,25.8,42.831,25.68,43.028,25.472z"/>
		<circle cx="35.886" cy="4.276" r="4.276"/>
	</g>
</g>
<g>
</g>
<g>
</g>
<g>
</g>
<g>
</g>
<g>
</g>
<g>
</g>
<g>
</g>
<g>
</g>
<g>
</g>
<g>
</g>
<g>
</g>
<g>
</g>
<g>
</g>
<g>
</g>
<g>
</g>
</svg>
