<?xml version="1.0" encoding="iso-8859-1"?>
<!-- Generator: Adobe Illustrator 16.0.0, SVG Export Plug-In . SVG Version: 6.00 Build 0)  -->
<!DOCTYPE svg PUBLIC "-//W3C//DTD SVG 1.1//EN" "http://www.w3.org/Graphics/SVG/1.1/DTD/svg11.dtd">
<svg version="1.1" id="Capa_1" xmlns="http://www.w3.org/2000/svg" xmlns:xlink="http://www.w3.org/1999/xlink" x="0px" y="0px"
	 width="45.999px" height="45.999px" viewBox="0 0 45.999 45.999" style="enable-background:new 0 0 45.999 45.999;"
	 xml:space="preserve">
<g>
	<g>
		<path d="M22.771,0H4.742c-0.35,0-0.686,0.133-0.927,0.388C3.575,0.643,3.45,0.98,3.47,1.33l1.928,33.581
			c0.04,0.674,0.597,1.196,1.273,1.196h14.173c0.676,0,1.232-0.524,1.272-1.199l1.926-33.584c0.021-0.35-0.104-0.681-0.345-0.938
			C23.457,0.133,23.12,0,22.771,0z"/>
		<path d="M22.07,39.73c0-0.703-0.595-1.304-1.299-1.304H6.741c-0.704,0-1.285,0.601-1.285,1.304c0,0,0.01,3.793,0.01,3.871
			c0,1.275,3.713,2.303,8.292,2.303c4.577,0,8.29-1.023,8.29-2.299C22.048,43.525,22.07,39.73,22.07,39.73z"/>
		<path d="M39.713,0.125L39.713,0.125c-1.566,0-2.856,1.28-2.856,2.847v40.194c0,1.564,1.271,2.833,2.836,2.833
			s2.838-1.269,2.838-2.833V2.972C42.53,1.405,41.281,0.125,39.713,0.125z"/>
		<path d="M33.953,1.512h-5.722c-0.745,0-1.346,0.611-1.346,1.354c0,0.745,0.601,1.356,1.346,1.356h5.722
			c0.746,0,1.349-0.611,1.349-1.356C35.301,2.123,34.699,1.512,33.953,1.512z"/>
		<path d="M33.953,5.546h-5.722c-0.745,0-1.346,0.611-1.346,1.355c0,0.744,0.601,1.355,1.346,1.355h5.722
			c0.746,0,1.349-0.611,1.349-1.355C35.301,6.157,34.699,5.546,33.953,5.546z"/>
		<path d="M33.953,9.643h-5.722c-0.745,0-1.346,0.58-1.346,1.324c0,0.744,0.601,1.324,1.346,1.324h5.722
			c0.746,0,1.349-0.58,1.349-1.324C35.301,10.223,34.699,9.643,33.953,9.643z"/>
		<path d="M33.953,13.677h-5.722c-0.745,0-1.346,0.58-1.346,1.324s0.601,1.323,1.346,1.323h5.722c0.746,0,1.349-0.58,1.349-1.323
			C35.301,14.257,34.699,13.677,33.953,13.677z"/>
	</g>
</g>
<g>
</g>
<g>
</g>
<g>
</g>
<g>
</g>
<g>
</g>
<g>
</g>
<g>
</g>
<g>
</g>
<g>
</g>
<g>
</g>
<g>
</g>
<g>
</g>
<g>
</g>
<g>
</g>
<g>
</g>
</svg>
