<?xml version="1.0" encoding="iso-8859-1"?>
<!-- Generator: Adobe Illustrator 16.0.0, SVG Export Plug-In . SVG Version: 6.00 Build 0)  -->
<!DOCTYPE svg PUBLIC "-//W3C//DTD SVG 1.1//EN" "http://www.w3.org/Graphics/SVG/1.1/DTD/svg11.dtd">
<svg version="1.1" id="Capa_1" xmlns="http://www.w3.org/2000/svg" xmlns:xlink="http://www.w3.org/1999/xlink" x="0px" y="0px"
	 width="46.282px" height="46.283px" viewBox="0 0 46.282 46.283" style="enable-background:new 0 0 46.282 46.283;"
	 xml:space="preserve">
<g>
	<g>
		<path d="M42.537,9.547v5.789h0.85c1.6,0,2.896-1.296,2.896-2.895c0-1.598-1.296-2.894-2.896-2.894H42.537z"/>
		<path d="M16.937,37.025c-2.325,0-4.191-1.833-4.191-4.158v-15.51H8.117v21.675c0,1.155,0.919,2.042,2.075,2.042h20.979
			c1.155,0,2.111-0.887,2.111-2.042v-2.007H16.937z"/>
		<path d="M12.745,12.137c0-1.402-1.154-2.59-2.557-2.59H2.893C1.295,9.547,0,10.842,0,12.44c0,1.597,1.295,2.892,2.893,2.892h7.296
			c1.402,0,2.557-1.085,2.557-2.487L12.745,12.137L12.745,12.137z"/>
		<path d="M10.125,5.208C9.006,5.208,8.1,6.077,8.1,7.234h1.449c3.034,0,5.511,2.51,5.511,5.543v20.181
			c0,1.156,0.919,2.042,2.074,2.042h20.978c1.156,0,2.113-0.886,2.113-2.042V9.463c0-2.322-1.899-4.254-4.223-4.254H10.125z"/>
	</g>
</g>
<g>
</g>
<g>
</g>
<g>
</g>
<g>
</g>
<g>
</g>
<g>
</g>
<g>
</g>
<g>
</g>
<g>
</g>
<g>
</g>
<g>
</g>
<g>
</g>
<g>
</g>
<g>
</g>
<g>
</g>
</svg>
