<?xml version="1.0" encoding="iso-8859-1"?>
<!-- Generator: Adobe Illustrator 16.0.0, SVG Export Plug-In . SVG Version: 6.00 Build 0)  -->
<!DOCTYPE svg PUBLIC "-//W3C//DTD SVG 1.1//EN" "http://www.w3.org/Graphics/SVG/1.1/DTD/svg11.dtd">
<svg version="1.1" id="Capa_1" xmlns="http://www.w3.org/2000/svg" xmlns:xlink="http://www.w3.org/1999/xlink" x="0px" y="0px"
	 width="46.036px" height="46.037px" viewBox="0 0 46.036 46.037" style="enable-background:new 0 0 46.036 46.037;"
	 xml:space="preserve">
<g>
	<g>
		<path d="M0,23.018c0,10.08,6.479,18.646,15.501,21.762c0.93,0.32,1.957,0.173,2.758-0.398c0.801-0.57,1.276-1.493,1.276-2.477
			V4.132c0-0.981-0.476-1.905-1.276-2.477c-0.801-0.57-1.828-0.721-2.758-0.398C6.48,4.372,0,12.937,0,23.018z"/>
		<path d="M46.036,23.018c0-9.63-5.914-17.876-14.31-21.31c-0.938-0.384-2.006-0.275-2.847,0.29
			c-0.841,0.564-1.345,1.513-1.345,2.524V41.51c0,1.013,0.505,1.96,1.346,2.524c0.842,0.564,1.908,0.675,2.846,0.292
			C40.122,40.894,46.036,32.647,46.036,23.018z"/>
	</g>
</g>
<g>
</g>
<g>
</g>
<g>
</g>
<g>
</g>
<g>
</g>
<g>
</g>
<g>
</g>
<g>
</g>
<g>
</g>
<g>
</g>
<g>
</g>
<g>
</g>
<g>
</g>
<g>
</g>
<g>
</g>
</svg>
