<?xml version="1.0" encoding="iso-8859-1"?>
<!-- Generator: Adobe Illustrator 16.0.0, SVG Export Plug-In . SVG Version: 6.00 Build 0)  -->
<!DOCTYPE svg PUBLIC "-//W3C//DTD SVG 1.1//EN" "http://www.w3.org/Graphics/SVG/1.1/DTD/svg11.dtd">
<svg version="1.1" id="Capa_1" xmlns="http://www.w3.org/2000/svg" xmlns:xlink="http://www.w3.org/1999/xlink" x="0px" y="0px"
	 width="45.398px" height="45.398px" viewBox="0 0 45.398 45.398" style="enable-background:new 0 0 45.398 45.398;"
	 xml:space="preserve">
<g>
	<g>
		<path d="M31.715,9.965L13.718,9.968c-1.714-0.003-3.211,1.153-3.644,2.811c-0.436,1.658,0.298,3.398,1.794,4.233l5.104,2.882
			l-5.609,5.608c-1.467,1.471-1.474,3.854,0.003,5.329l3.249,3.249c1.475,1.473,3.859,1.471,5.326,0l5.611-5.607l2.879,5.105
			c0.838,1.493,2.58,2.23,4.235,1.792c1.658-0.433,2.814-1.928,2.808-3.642l0.004-17.997C35.479,11.65,33.797,9.965,31.715,9.965z"
			/>
		<path d="M45.398,11.022c0-5.817-4.715-10.532-10.531-10.532H10.531C4.715,0.49,0,5.205,0,11.022v23.354
			c0,5.817,4.715,10.532,10.531,10.532h24.336c5.816,0,10.531-4.715,10.531-10.532V11.022z M40.627,34.409
			c0,3.164-2.564,5.729-5.728,5.729H10.561c-3.163,0-5.728-2.564-5.728-5.729V11.052c0-3.164,2.564-5.729,5.728-5.729h24.338
			c3.161,0,5.728,2.564,5.728,5.729V34.409z"/>
	</g>
</g>
<g>
</g>
<g>
</g>
<g>
</g>
<g>
</g>
<g>
</g>
<g>
</g>
<g>
</g>
<g>
</g>
<g>
</g>
<g>
</g>
<g>
</g>
<g>
</g>
<g>
</g>
<g>
</g>
<g>
</g>
</svg>
