<?xml version="1.0" encoding="utf-8"?>
<!-- Generator: Adobe Illustrator 18.0.0, SVG Export Plug-In . SVG Version: 6.00 Build 0)  -->
<!DOCTYPE svg PUBLIC "-//W3C//DTD SVG 1.1//EN" "http://www.w3.org/Graphics/SVG/1.1/DTD/svg11.dtd">
<svg version="1.1" id="Слой_1" xmlns="http://www.w3.org/2000/svg" xmlns:xlink="http://www.w3.org/1999/xlink" x="0px" y="0px"
	 viewBox="0 0 1098 1098" enable-background="new 0 0 1098 1098" xml:space="preserve">
<g>
	<path fill="#FFFFFF" d="M549,1098c-74.1,0-146-14.5-213.7-43.1c-65.4-27.7-124.1-67.2-174.5-117.7s-90-109.1-117.7-174.5
		C14.5,695,0,623.1,0,549s14.5-146,43.1-213.7c27.7-65.4,67.2-124.1,117.7-174.5s109.1-90,174.5-117.7C403,14.5,474.9,0,549,0
		s146,14.5,213.7,43.1c65.4,27.7,124.1,67.2,174.5,117.7s90,109.1,117.7,174.5C1083.5,403,1098,474.9,1098,549s-14.5,146-43.1,213.7
		c-27.7,65.4-67.2,124.1-117.7,174.5s-109.1,90-174.5,117.7C695,1083.5,623.1,1098,549,1098z M549,14C254,14,14,254,14,549
		s240,535,535,535s535-240,535-535S844,14,549,14z"/>
	<g>
		<g>
			<g>
				<g>
					<polygon fill="#FFFFFF" points="586.1,674.6 562.6,689.9 511.5,611.8 518.8,607 565.7,678.7 581.9,668.1 					"/>
					
						<rect x="565.3" y="582.8" transform="matrix(0.8369 -0.5473 0.5473 0.8369 -251.6035 414.4696)" fill="#FFFFFF" width="8.8" height="93.4"/>
					<polygon fill="#FFFFFF" points="602.6,588.7 583.8,601.1 618.2,653.6 610.7,658.5 576.3,606 572.3,608.6 565.9,604 
						572.3,599.8 559.5,580.3 583.6,564.6 587.7,570.8 571.1,581.7 579.8,594.9 596,584.3 					"/>
					<polygon fill="#FFFFFF" points="640.8,563.8 621.9,576.1 652.1,622.2 668.7,611.3 672.9,617.8 648.8,633.5 614.5,581 
						610.6,583.5 604.2,578.9 610.4,574.8 597.7,555.4 621.8,539.6 625.9,545.8 609.3,556.7 617.9,569.9 634.3,559.2 					"/>
					<path fill="#FFFFFF" d="M701.1,574.9c3.1,4.7,3.8,10,2.2,15.8c-1.6,5.8-5.2,10.6-10.7,14.2l-12,7.8l-4.2-6.5l12-7.8
						c3.5-2.3,5.7-5.2,6.7-8.8c1-3.6,0.5-6.9-1.4-9.8c-0.5-0.8-1.1-1.5-1.5-2.1c-0.5-0.5-1.1-1-1.8-1.4l-42.5-23.3
						c-2-1.3-3.8-3.1-5.3-5.4c-2.8-4.2-3.4-8.9-2-14c1.4-5.1,4.5-9.2,9.4-12.4l8.9-5.8l4.1,6.3l-8.9,5.8c-2.7,1.8-4.5,4.2-5.4,7.2
						c-0.8,3-0.4,5.7,1.2,8.2c0.8,1.3,1.9,2.2,3.1,2.9l41.8,23.3C697.2,570.3,699.4,572.2,701.1,574.9L701.1,574.9z"/>
					<polygon fill="#FFFFFF" points="704.1,494.7 691,503.2 738,575.2 730.8,579.9 683.7,508 670.6,516.6 666.5,510.3 700,488.4 
											"/>
					<polygon fill="#FFFFFF" points="750.6,455.3 746.5,490.7 782.7,546 775.3,550.8 739.2,495.6 705.3,484.9 714.4,479 
						738.5,486.7 741.5,461.2 					"/>
					<polygon fill="#FFFFFF" points="830.6,514.6 807.2,529.9 756,451.8 763.4,446.9 810.3,518.6 826.4,508.1 					"/>
					<polygon fill="#FFFFFF" points="834.4,437.1 815.5,449.4 845.7,495.5 862.3,484.6 866.5,491.1 842.4,506.9 808,454.3 
						804.2,456.9 797.8,452.3 804,448.2 791.3,428.7 815.4,412.9 819.5,419.2 802.9,430 811.5,443.3 827.9,432.6 					"/>
					<polygon fill="#FFFFFF" points="692.8,763.8 685.2,768.8 634.7,718.6 637.4,745.6 614,732.2 639.7,798.5 632.2,803.4 
						596.7,712.7 627.1,729.9 623.5,695.3 					"/>
					<polygon fill="#FFFFFF" points="696.5,686.4 677.7,698.7 707.8,744.8 724.4,733.9 728.6,740.4 704.6,756.1 670.2,703.6 
						666.3,706.1 659.9,701.5 666.2,697.4 653.4,678 677.5,662.2 681.6,668.4 665,679.3 673.6,692.5 690,681.8 					"/>
					<path fill="#FFFFFF" d="M764.8,660.9c7,10.8,8.7,22.9,4.8,36.3c-3.8,13.4-11.9,24.2-24.3,32.3l-9,5.9l-51.1-78.2l9-5.9
						c12.4-8.1,25.5-11.3,39.3-9.4C747.3,643.7,757.7,650,764.8,660.9L764.8,660.9z M757.3,665.8c-5.9-9-14.6-14.4-26.1-16
						c-11.5-1.7-22.5,0.9-33,7.8l-1.6,1.1l42.8,65.5l1.6-1.1c10.9-7.1,17.7-16.9,20.3-29.2C763.7,682.8,762.4,673.5,757.3,665.8
						L757.3,665.8z"/>
					
						<rect x="769.3" y="608.3" transform="matrix(0.8368 -0.5476 0.5476 0.8368 -232.391 530.5888)" fill="#FFFFFF" width="8.8" height="93.4"/>
					<path fill="#FFFFFF" d="M845.6,663.8l-7.4,4.8l-34.4-52.5l-16.1,10.5l34.4,52.5l-7.5,4.9l-34.4-52.5l-4,2.6l-6.4-4.6l6.4-4.2
						l-4.5-6.9c-2.4-3.7-3-7.8-1.7-12.4c1.3-4.6,4.1-8.3,8.4-11.1c4.2-2.7,8.6-3.8,13.5-3.1c4.8,0.6,8.4,2.8,10.8,6.5L845.6,663.8z
						 M799.8,610l-4.5-6.9c-1.3-2-3.1-3.3-5.3-3.8c-2.2-0.5-4.7,0.2-7.4,2c-2.3,1.5-3.9,3.4-4.6,5.5c-0.7,2.2-0.3,4.4,1.2,6.8
						l4.5,6.9L799.8,610z"/>
					<path fill="#FFFFFF" d="M745.5,880.6l-2.1,1.4c-12.4,8.1-25.5,11.2-39.3,9.4c-13.8-1.9-24.3-8.2-31.3-19
						c-7.1-10.8-8.7-22.9-4.9-36.3c3.8-13.4,11.9-24.1,24.4-32.3l2.1-1.4l4.1,6.3l-2.1,1.4c-11,7.2-17.8,16.8-20.5,28.9
						c-2.4,11-1,20.5,4.3,28.6c5.5,8.5,13.8,13.6,24.7,15.4c10,1.6,19.5,0.3,28.7-4.1l-34.9-53.4l7.6-5L745.5,880.6z"/>
					<path fill="#FFFFFF" d="M764.1,802.5c4.7,7.2,6.4,15.3,5.3,24.4c-1.2,9.1-4.9,16.9-11.3,23.3l32.4,1l-10.9,7.1l-31.3-1l9.8,15
						l-7.4,4.8L699.6,799l7.4-4.8c10-6.5,20.6-9,31.7-7.4C749.8,788.5,758.3,793.7,764.1,802.5L764.1,802.5z M756.7,807.3
						c-4.7-7.2-11.5-11.4-20.5-12.6c-9-1.2-17.3,0.7-25.2,5.8l33.6,51.4c8.2-5.3,13.3-12.4,15.5-21.1
						C762.4,822.1,761.3,814.3,756.7,807.3L756.7,807.3z"/>
					<path fill="#FFFFFF" d="M868.1,744.3c7.4,11.3,9.2,24,5.3,37.9c-3.9,13.9-12.4,25.2-25.5,33.7c-13.1,8.6-26.9,11.9-41.2,10
						c-14.3-1.9-25.2-8.6-32.7-20c-7.4-11.3-9.1-24-5.2-38.1c3.9-14,12.5-25.3,25.5-33.9c13-8.5,26.7-11.7,41-9.7
						C849.8,726.2,860.7,732.9,868.1,744.3L868.1,744.3z M860.9,749c-6.4-9.8-16.1-15.4-29.1-16.7c-12.1-1.2-23.2,1.5-33.2,8.1
						c-11.5,7.5-18.7,17.4-21.7,29.7c-2.9,11.6-1.3,21.9,4.6,31c6.5,9.9,16.2,15.5,29,16.8c12,1.2,23.1-1.6,33.4-8.3
						c11.3-7.4,18.5-17.3,21.6-29.7C868.2,768.1,866.7,757.9,860.9,749L860.9,749z"/>
					<path fill="#FFFFFF" d="M922.6,744.7c2.5,3.8,3.1,8.2,1.7,13c-1.3,4.8-4.3,8.7-8.8,11.7c-4.5,2.9-9.2,4.1-14.1,3.4
						c-4.9-0.7-8.6-3-11.2-6.9l-41.9-64.1l7.4-4.8l41.9,64.1c1.5,2.2,3.5,3.5,6.3,3.7c2.7,0.3,5.2-0.4,7.5-1.8
						c2.6-1.7,4.2-3.8,4.9-6.5c0.7-2.6,0.3-4.9-1-6.9l-41.9-64.1l7.4-4.8L922.6,744.7z"/>
					<path fill="#FFFFFF" d="M950.6,680.5c5.8,8.8,7.2,18.7,4.3,29.6c-2.9,10.9-9.4,19.6-19.5,26.2l9.2,14.1l-7.4,4.8L886.1,677
						l7.4-4.8c9.7-6.4,20.3-8.8,31.6-7.2C936.3,666.6,944.9,671.7,950.6,680.5L950.6,680.5z M943.2,685.3
						c-4.7-7.2-11.5-11.4-20.5-12.6c-9-1.2-17.3,0.7-25.2,5.8l33.6,51.4c8.2-5.3,13.3-12.4,15.5-21.1
						C949,700.1,947.8,692.3,943.2,685.3L943.2,685.3z"/>
				</g>
				<path fill="#FFFFFF" d="M479.6,605L272.7,924.9l206.9,0l207.4-0.1L479.6,605z M477,913.5L386.6,774l90.2,53L477,913.5z
					 M479.4,822.6L388,768.8h183.6L479.4,822.6z M482.2,913.6l-0.2-86.6L573,774l-19.9,30.6L482.2,913.6z M571.6,763.7H388
					l91.4-53.7l59.3,34.6L571.6,763.7z M380.9,861.5l0.2-86.5l90.4,139.6l-76.8-44.9L380.9,861.5z M487.7,914.6l29.4-45.2l61.4-94.3
					l-0.2,86.5L551.8,877L487.7,914.6z M476.8,705.5l-90.2,53L477,619L476.8,705.5z M509.8,907.7l71.2-41.7l92.2,53.7h-184
					L509.8,907.7z M583.5,861.5l0.2-86.6l90.9,139.7L583.5,861.5z M482,705.5l0.2-86.6L573,758.6L482,705.5z M375.9,775l-0.2,86.5
					l-90.2,52.9L375.9,775z M378.3,866l91.8,53.7l-183.2,0L378.3,866z"/>
			</g>
		</g>
		<g>
			<path fill="#FFFFFF" d="M236.4,346.5c-2.4,3.1-4.1,6.4-5.3,9.9c1.4,5.9,1.8,11.6,1.1,17.3c-0.2,1.7-1,3.2-2.4,4.7
				c-0.9,0.9-4.4,4.1-10.7,9.5c-1.9,1.6-3.8,3.2-5.8,4.6c-1.4-10.7,0.7-20.8,6.3-30.5c0.2-6-0.6-10.5-2.6-13.6
				c-2.6-3.9-6.4-4.2-11.7-0.8c-13.8,9-25.7,25.7-35.6,50.1c-4.6,11.2-7.8,22.7-9.7,34.5c-2.8,17.4-2.6,32.9,0.8,46.7
				c1.4,6,3.2,10.5,5.1,13.6c5.5,8.5,13.3,9.4,23.3,2.9c6.6-4.3,12.9-11.4,18.9-21.2c2.9-4.8,6-10.6,9.3-17.4
				c6.6-13.9,11.5-26.8,14.7-38.6l0.3-1.2c0.3-1.1,0.6-1.7,1.1-2c0.8-0.5,1.5-0.3,2.1,0.6c1.8,2.7,2.1,9.4,0.9,20
				c-1.4,12.8-5,25.2-10.9,37.1c-6.6,13.4-14.8,23.2-24.4,29.5c-11.1,7.2-23.3,7.2-36.5-0.2c-5.9-3.3-10.7-7.8-14.5-13.6
				c-6.4-9.8-9.1-23.6-8.2-41.4c0.7-14.5,3.5-28.6,8.4-42.3c6.2-17.7,14.9-33.1,26.1-46c5.3-6.2,10.7-11.1,16.2-14.7
				c8.9-5.8,17.8-6.7,26.5-2.7c4.1,1.9,6.9,4.1,8.4,6.8l1.7,3l1-0.7c1.3-1,2.2-1.6,2.7-2C233.9,347.7,235.1,347.1,236.4,346.5z"/>
			<path fill="#FFFFFF" d="M283,441.3c0.4-4.6,0.9-13.6,1.4-27.2c0.4-10.1,0.5-18.4,0.3-24.9l-0.5,1.9l-0.1,0.6c0,0.1,0,0.4-0.1,0.7
				l-3.7,16.3c-2,8.5-4.4,17.4-7.3,26.6c-2.6,8.1-4.8,12.7-6.7,14c-2.2,1.4-5.2,1-9-1.2c-3.3-1.9-5.8-4.1-7.3-6.5
				c-2.9-4.4-3.9-11.6-2.9-21.4c1.4-14.7,6.6-30.7,15.6-48.2c5.5-10.7,10.7-17.7,15.6-20.9c4.9-3.2,9-2.2,12.3,2.8
				c1.3,2,1.8,4.9,1.5,8.5c1.7,0.3,2.9,1,3.6,2c0.6,1,0.9,2.8,0.7,5.5l-0.5,10.1l0,6.4c0,0.3,0,1,0,2c3-5.1,7.2-10.3,12.6-15.6
				c2.9-2.9,4.8-4.6,5.7-5.2c1.3-0.8,2.4-0.6,3.2,0.7c0.7,1.1,0.3,2.4-1.4,3.9c-7,6.2-11.9,13-14.8,20.5c-2.3,6-3.9,14.4-4.7,25.1
				l-3.7,46.2c-1,13-2.1,21.3-3.1,24.9c-0.4,1.4-0.9,2.3-1.5,2.7c-0.8,0.5-1.9,0.6-3.5,0.2c-3-0.8-5.1-2.2-6.4-4.2
				C273.7,481.1,275.3,465.6,283,441.3z M282.3,369.3c-0.4-0.7-1.1-0.8-1.8-0.2c-2.9,1.9-6.2,6.6-10,14.1
				c-5.4,10.7-9,20.6-10.8,29.7c-1,5.2-1.6,9.4-1.5,12.9c0,1.6,0.2,2.6,0.5,3.2c0.4,0.6,1,0.7,1.9,0.1c1.5-1,3.6-3.8,6.5-8.4
				c6-9.7,10.5-20.8,13.5-33.2c1.9-7.7,2.6-13.2,2.4-16.4C282.8,370.3,282.6,369.7,282.3,369.3z"/>
			<path fill="#FFFFFF" d="M322.9,363.7c-2,11.1-1.6,18.8,1.3,23.3c1.1,1.7,2.7,2,4.6,0.7c0.6-0.4,1.3-1.1,2.2-2
				c3.2-3.6,6.8-9,10.7-16.2c4.9-9,8.2-14.7,9.9-17.1c7.3-10.7,13.4-17.6,18.3-20.8c1.3-0.9,2.4-0.7,3.2,0.4
				c0.8,1.2,0.3,2.7-1.4,4.4c-8.6,8.5-15.6,19.3-21,32.4c-1.7,4.3-3.8,10.3-6.3,18c-0.5,1.5-1.5,4.6-2.8,9.1c-1.1,3.6-2.6,6-4.4,7.2
				c-2,1.3-5.4,1.4-10.1,0.3c-6.1-1.4-10.3-3.9-12.6-7.4c-3.6-5.6-5-13.9-4-24.9c0.7-8.8,2.6-17.2,5.5-25.3
				c6.2-17,12.5-27.6,18.9-31.7c2.9-1.9,6.6-1.6,11.2,0.8c1.8,1,3.3,2.3,4.4,4.1c2.6,4,2.9,10.4,0.7,19.2
				c-3.3,13.4-7.7,21.8-13.2,25.4C334,366,329.1,366,322.9,363.7z M324.4,357.7c2.8,1.2,5,1.2,6.8,0c4.8-3.1,8.6-10.6,11.3-22.2
				c1-4.2,1.1-7,0.3-8.2c-0.5-0.7-1.2-0.8-2.1-0.2c-2.9,1.9-6.2,6.6-9.9,14.1C327.8,347.5,325.6,353,324.4,357.7z"/>
			<path fill="#FFFFFF" d="M416.2,340.6c-0.1,1-0.1,2.9,0,5.7c0.1,3.5-0.6,5.8-2.2,6.8c-1.6,1-3.3,1.2-5.2,0.6
				c-1.9-0.6-3.3-1.8-4.2-3.5c-0.9-1.4-1.3-4.1-1.5-7.9l-0.9-22.8c-0.4-10.4-1.5-19.5-3.1-27.2c-2.3,5.2-4.3,11.4-6,18.4
				c-3.1,12.7-5.3,24.1-6.5,34.3l-2.6,21.7c-0.5,4.2-1.3,6.7-2.4,7.4c-1,0.6-2.6,0.4-4.8-0.6c-3.3-2.2-5.9-4.8-7.8-7.7
				c-5.9-9-5.9-19.3-0.1-30.8c0.4-1.5,0.9-2.4,1.4-2.7c0.4-0.1,1.1,0.1,2.1,0.5c-0.5,3.9-1.1,7.9-1.6,11.8
				c-0.5,5.1-0.2,8.9,0.9,11.4c0.1,0.5,0.5,0.7,0.9,0.7c0.5,0.1,0.9-0.3,1.2-1.1c0.7-2.6,1.8-5.9,3.3-10.2c0.6-1.8,1.7-5.2,3.4-10.2
				c3.5-10.6,6.2-20.2,8.1-29c0.7-3.8,1.7-9.5,3-17.1c1.7-9.4,3.2-14.6,4.6-15.5c1.6-1.1,3.8-1.1,6.7-0.3c3.3,1.1,5.4,2.3,6.2,3.6
				c0.5,0.9,0.9,2.6,1.1,4.9l3.6,36c2.2-6.6,5.1-12.2,8.8-16.8c4.4-5.5,8.1-9.1,10.9-10.9c1.3-0.9,2.4-0.7,3.2,0.5
				c0.8,1.2,0.1,2.9-2.2,4.9c-3.3,2.9-6.7,7.7-10.3,14.2c-1.2,2.3-2.8,6.6-4.5,12.9C417.8,329.8,416.6,335.8,416.2,340.6z"/>
			<path fill="#FFFFFF" d="M478.1,272.2c3.5-6.8,8.3-13.3,14.5-19.5c2.8-2.8,4.8-4.6,6.2-5.5c1.3-0.8,2.3-0.6,3.1,0.6
				c0.8,1.2,0.2,2.7-1.7,4.4c-7.6,6.7-12.8,14.6-15.5,23.5c-2.2,7.5-3,16.9-2.1,28.4c0.1,1.5,0.1,2.6-0.1,3.3
				c-0.3,0.9-0.9,1.5-1.6,2c-1.1,0.7-2.6,0.8-4.7,0.5c-3.4-0.6-5.7-1.9-6.9-3.9c-0.9-1.4-1.6-4.6-2-9.6c-0.6-6.4-0.8-13.4-0.7-21
				l0-3.6l-0.9,4c-1,4.5-2.9,13-5.9,25.5c-4.4,17.5-8.1,27.2-11.1,29.2c-2.3,1.5-5.3,1.1-9.1-1.1c-3.2-1.9-5.7-4.1-7.4-6.7
				c-3.5-5.3-4.2-14-2.1-26c2.7-15.6,8.6-31.3,17.6-47.1c5.4-9.4,10.1-15.4,14.1-17.9c4.8-3.1,8.9-2.1,12.3,3c1.2,1.9,1.6,4.9,1,8.9
				c1.6,0.3,2.6,0.9,3.2,1.8c0.7,1.1,1,2.6,0.8,4.7l-0.7,11C478.1,262.7,478.1,266.5,478.1,272.2z M465,250.3
				c-0.4-0.7-1.1-0.8-1.8-0.2c-2.6,1.7-6,6.4-10,14.1c-6.1,11.6-10,23.7-11.8,36.3c-0.7,5.3-0.8,8.4-0.1,9.4c0.4,0.6,1,0.7,1.9,0.1
				c1.5-1,3.6-3.8,6.5-8.4c5.9-9.6,10.4-20.6,13.4-33.1c1.9-7.5,2.7-13.1,2.4-16.5C465.4,251.3,465.3,250.7,465,250.3z"/>
			<path fill="#FFFFFF" d="M530.5,217.3l1.2-31.1c0-0.5,0.6-1.2,1.8-2c1.6-1,3.3-1.2,5.3-0.4c2,0.8,3.5,1.9,4.5,3.5
				c0.8,1.2,1.1,3.2,0.9,5.9l-1.5,17.3c-0.6,6.9-0.6,14.5-0.1,22.6c3.9-9.3,8.8-16.9,14.8-22.7c2.8-2.7,5-4.6,6.6-5.6
				c1.4-0.9,2.5-0.8,3.3,0.4c0.7,1.1,0.3,2.5-1.3,4c-9.5,9.1-15.4,19.9-17.7,32.5c-1.3,6.9-1.6,13.6-1.1,20.2
				c0.3,2.7-0.4,4.6-1.9,5.6c-1.7,1.1-3.6,1.2-5.8,0.3c-2-0.8-3.6-2-4.8-3.8c-2.2-3.4-3.6-9.8-4.1-19.3c-0.2-4.3-0.3-8.9-0.3-13.6
				c-6.1,3.3-12.3,7.1-18.6,11.4c0,1.2-0.1,4.8-0.1,10.6c-0.1,10.5,1,19.3,3.4,26.3c1.4,4.3,0.8,7.3-1.8,9c-1.5,1-3.4,0.9-5.8-0.3
				c-2.2-1-3.8-2.3-4.8-3.8c-1.2-1.8-1.9-4.5-2.1-8.1c-0.4-8-0.4-16.5-0.1-25.5c-2.9,2.2-6,4.6-9.2,7.1c-1.6,0.2-2.7-0.2-3.3-1.1
				c-0.5-0.8-0.4-1.9,0.4-3.2c3.9-3.2,8-6.6,12.4-10.1c0.2-3.8,0.5-7.6,0.9-11.4c-2.7,2.5-5.1,4.5-7.4,6l-2.5,1.6
				c4.3-6.3,7.3-13.1,8.9-20.3l2.5-11.1c0.6-2.4,1.2-3.9,2-4.4c2.9-1.9,5.7-0.7,8.4,3.5c1.2,1.9,1.4,6.2,0.6,13.1
				c-0.3,2.7-0.9,7.4-1.7,13.9c5.7-4.3,11.7-8.8,18.2-13.4C530.6,220.3,530.5,219.1,530.5,217.3z"/>
			<path fill="#FFFFFF" d="M599.2,189.8l-0.1,0.6l0.5-0.7c4.8-6.6,9.9-12.3,15.1-17.3c2.2-2.1,3.7-3.3,4.4-3.9
				c1.4-0.9,2.5-0.8,3.3,0.5c0.8,1.2,0.3,2.6-1.5,4.2c-12.5,11.1-21.5,25.7-27.2,43.8l-0.2,0.7l-0.4,1.4c-2.4,7.6-4.7,13.8-6.9,18.8
				c-1.1,2.4-2.2,4-3.4,4.7c-2.2,1.5-5.7,1.3-10.3-0.5c-3.8-1.5-6.7-3.6-8.5-6.4c-4.4-6.7-5.1-18-2.3-34.1
				c1.4-7.9,3.4-15.7,6.1-23.3c4.9-14,9.6-22.5,14-25.3c3.4-2.2,7-2.4,10.8-0.5c1.7,0.8,3,2,3.9,3.4c2.3,3.6,3.6,10.1,3.6,19.6
				C600.3,177.7,599.9,182.4,599.2,189.8z M574.9,226.1c0.9,1.3,2.1,1.5,3.6,0.5c3.8-2.4,7.4-9.6,10.9-21.5
				c3.3-11.2,4.7-21.1,4.2-29.7c-0.2-3.8-0.8-6.4-1.8-7.9c-0.9-1.3-2-1.6-3.3-0.8c-3.1,2-6.3,7.6-9.4,16.5c-2.3,6.6-4,12.9-5,19
				C572.1,214.3,572.3,222.2,574.9,226.1z"/>
			<path fill="#FFFFFF" d="M198.2,649.8c-1.4-1.7-2.5-3.1-3.2-4.2c-0.2-0.3-0.4-0.6-0.4-0.8l-0.7-1c-6.7,11.5-10.4,23.9-11.1,37.2
				c-0.4,7,0.1,11.6,1.5,13.7c1.2,1.9,2.7,2.2,4.4,1.1c0.9-0.6,1.7-1.6,2.5-3c0.6-1.1,2.1-4.5,4.5-10c5.1-12,11.9-22.2,20.3-30.7
				c3.1-3.1,5.3-5.2,6.8-6.1c1.2-0.8,2.2-0.6,3,0.6c0.8,1.2,0.3,2.7-1.6,4.3c-14,12.1-22.6,31.1-25.9,57.2c-0.4,3-1.3,4.9-2.8,5.9
				c-2.1,1.4-5.1,1.1-9.1-0.9c-5.6-2.7-9.7-6.1-12.3-10.1c-5.2-8-5.5-21.3-0.8-39.9c3.3-13.3,8.7-24.6,16-33.8
				c1.7-2.2,3.2-3.6,4.4-4.4c4-2.6,7.2-2.1,9.5,1.6c1.1,1.7,1,4.1-0.4,7C200.9,637.5,199.3,643,198.2,649.8z"/>
			<path fill="#FFFFFF" d="M294.5,638.4c-0.1,1-0.1,2.9,0,5.7c0.1,3.5-0.6,5.8-2.2,6.8c-1.6,1-3.3,1.2-5.2,0.6
				c-1.9-0.6-3.3-1.8-4.2-3.5c-0.9-1.4-1.3-4.1-1.5-7.9l-0.9-22.8c-0.4-10.4-1.5-19.5-3.1-27.2c-2.3,5.2-4.3,11.4-6,18.4
				c-3.1,12.7-5.3,24.1-6.5,34.3l-2.6,21.7c-0.5,4.2-1.3,6.7-2.4,7.4c-1,0.6-2.6,0.4-4.8-0.6c-3.3-2.2-5.9-4.8-7.8-7.7
				c-5.9-9-5.9-19.3-0.1-30.8c0.4-1.5,0.9-2.4,1.4-2.7c0.4-0.1,1.1,0.1,2.1,0.5c-0.5,3.9-1.1,7.9-1.6,11.8
				c-0.5,5.1-0.2,8.9,0.9,11.4c0.1,0.5,0.5,0.7,0.9,0.7c0.5,0.1,0.9-0.3,1.2-1.1c0.7-2.6,1.8-5.9,3.3-10.2c0.6-1.8,1.7-5.2,3.4-10.2
				c3.5-10.6,6.2-20.2,8.1-29c0.7-3.8,1.7-9.5,3-17.1c1.7-9.4,3.2-14.6,4.6-15.5c1.6-1.1,3.8-1.1,6.7-0.3c3.3,1.1,5.4,2.3,6.2,3.6
				c0.5,0.9,0.9,2.6,1.1,4.9l3.6,36c2.2-6.6,5.1-12.2,8.8-16.8c4.4-5.5,8.1-9.1,10.9-10.9c1.3-0.9,2.4-0.7,3.2,0.5
				c0.8,1.2,0.1,2.9-2.2,4.9c-3.3,2.9-6.7,7.7-10.3,14.2c-1.2,2.3-2.8,6.6-4.5,12.9C296.1,627.7,294.9,633.7,294.5,638.4z"/>
			<path fill="#FFFFFF" d="M322,546.7c-0.1,1-0.2,2.6-0.5,4.8c-1.6,15.3-2.5,25.7-2.7,31.3c-0.2,5,0,10.3,0.4,16
				c4.4-8.6,9.3-15.9,14.5-21.9c1-10.3,3.4-21,7.3-32.2c5-14.1,9.6-22.6,14.1-25.5c3.4-2.2,7.1-2.4,10.9-0.4c1.7,0.8,3,2,3.9,3.4
				c2.3,3.6,3.6,10.1,3.7,19.6c0,3.1-0.3,7.8-1,14.2l-0.1,0.7l0.6-0.7c9.2-11.6,15.8-18.7,19.6-21.2c1.4-0.9,2.5-0.8,3.3,0.5
				c0.8,1.2,0.3,2.6-1.5,4.2c-12.6,11.2-21.7,25.9-27.3,44l-0.2,0.7l-0.4,1.4c-2.6,8.2-4.9,14.5-7,18.9c-1.1,2.4-2.2,4-3.4,4.7
				c-2.2,1.5-5.7,1.3-10.4-0.5c-3.8-1.5-6.7-3.6-8.5-6.4c-2.3-3.5-3.6-9-3.8-16.5c-5.9,9.1-9.2,19.7-9.9,31.9c0,1.7-0.2,4.8-0.6,9.3
				l-0.2,1.6c-0.2,1.7-0.7,2.9-1.6,3.4c-1.4,0.9-3.5,0.9-6.4-0.1c-2.2-0.7-3.7-1.9-4.7-3.4c-3.1-4.8-4.2-19.4-3-43.6
				c0.2-3.5,0.6-9,1.3-16.4c-0.6,0.8-1.7,1.7-3.3,2.8c-1.2,0.8-2.8,1.7-4.7,2.7c6-10.4,9.3-18.1,10-23.3c0.2-1.2,0.6-2.1,1.3-2.5
				c0.2-0.1,0.4-0.2,0.6-0.3c2.7-2,5.5-3,8.3-3.1c0.5-0.3,1-0.1,1.4,0.4C322,545.7,322.1,546.2,322,546.7z M348,592.6
				c0.9,1.3,2.1,1.5,3.6,0.5c3.8-2.4,7.4-9.6,11-21.6c3.4-11.1,4.8-21.1,4.2-30c-0.2-3.8-0.8-6.4-1.8-7.9c-0.9-1.3-2-1.6-3.3-0.8
				c-3.3,2.1-6.4,7.7-9.4,16.6c-2.3,6.9-4,13.2-5,19.1C345.1,580.7,345.4,588.6,348,592.6z"/>
			<path fill="#FFFFFF" d="M414.8,483.1c-0.6-1.2-1.5-2.4-2.6-3.7c-2-2.2-6.3-4.8-12.8-7.8c-6-2.8-9.8-5.4-11.4-8
				c-2.6-4-1.3-8.4,4-13.3c3.1-2.8,9.3-6.9,18.5-12.3c8.8-5.1,14-8.6,15.8-10.7c1-1.1,2-0.8,3,0.8c1.9,2.9,2,6.2,0.2,9.9
				c-1.5,3.2-3.9,5.8-7,7.8l-20.7,13.5c-1,0.7-1,1.7-0.1,3.2c1.2,1.9,3.9,4.4,8.2,7.6c4.3,3.2,6.9,5.6,7.8,7.2c2.9,5,4.9,9.5,6,13.6
				c2.8,6.7,3.5,16.9,2.2,30.4c3.3-5.6,7.2-10.7,11.6-15.3c3-3.1,5.1-5,6.5-5.9c1.2-0.8,2.3-0.7,3.3,0.4c1,1.1,0.6,2.5-1.2,4
				c-3,2.6-5.9,6.1-8.9,10.7c-8.5,13.2-14.2,25.2-17,35.8c-3.3,12.8-7.1,20.5-11.2,23.3c-0.4,0.3-0.8,0.4-1.2,0.5
				c-2.6,1.7-6.2,1.3-10.8-1.3c-4-2.2-6.9-4.7-8.7-7.5c-5-7.7-5.2-20.6-0.4-38.7c4-15.2,9.2-27.7,15.5-37.6c1.4-2.2,3-3.8,4.6-4.9
				C410.3,483.5,412.5,482.9,414.8,483.1z M417.2,499.7c-0.6-0.6-1.2-0.6-2-0.1c-2.6,1.7-5.6,6.2-9.1,13.5c-7.1,15-10.1,28.4-8.8,40
				c0.2,1.5,0.4,2.5,0.8,2.9c0.5,0.5,1.2,0.5,2,0c3.7-2.4,6.3-4.9,7.7-7.4c5.2-9,8.7-19.5,10.7-31.6c0.8-4.5,0.5-9.7-0.8-15.7
				C417.7,500.5,417.5,500,417.2,499.7z"/>
			<path fill="#FFFFFF" d="M482.1,484.6l-0.1,0.6l0.5-0.7c4.8-6.6,9.9-12.3,15.1-17.3c2.2-2.1,3.7-3.3,4.4-3.9
				c1.4-0.9,2.5-0.8,3.3,0.5c0.8,1.2,0.3,2.6-1.5,4.2c-12.5,11.1-21.5,25.7-27.2,43.8l-0.2,0.7l-0.4,1.4c-2.4,7.6-4.7,13.8-6.9,18.8
				c-1.1,2.4-2.2,4-3.4,4.7c-2.2,1.5-5.7,1.3-10.3-0.5c-3.8-1.5-6.7-3.6-8.5-6.4c-4.4-6.7-5.1-18-2.3-34.1
				c1.4-7.9,3.4-15.7,6.1-23.3c4.9-14,9.6-22.5,14-25.3c3.4-2.2,7-2.4,10.8-0.5c1.7,0.8,3,2,3.9,3.4c2.3,3.6,3.6,10.1,3.6,19.6
				C483.2,472.5,482.9,477.3,482.1,484.6z M457.8,521c0.9,1.3,2.1,1.5,3.6,0.5c3.8-2.4,7.4-9.6,10.9-21.5
				c3.3-11.2,4.7-21.1,4.2-29.7c-0.2-3.8-0.8-6.4-1.8-7.9c-0.9-1.3-2-1.6-3.3-0.8c-3.1,2-6.3,7.6-9.4,16.5c-2.3,6.6-4,12.9-5,19
				C455,509.1,455.2,517.1,457.8,521z"/>
			<path fill="#FFFFFF" d="M544.7,442.7c3.6-4.3,9.4-10.5,17.3-18.6c1.9-1.7,3.3-1.9,4.2-0.6c0.6,1,0.1,2.3-1.6,3.9
				c-6.5,6.5-12.2,13.3-17.2,20.5c-3.4,5.1-7.4,13.6-11.9,25.3c-4.5,11.8-8.5,20.3-12.2,25.5c-1.2,1.7-2.3,3-3.5,3.7
				c-1.7,1.1-3.9,1.3-6.5,0.5c-5.6-1.7-9.5-4.3-11.7-7.7c-2.7-4.1-3.8-17.2-3.5-39.3c0.1-1.9,0.4-7.2,1.1-16.1
				c-1.3,0.8-2.4,1.2-3.2,1.4c-2.2,0.3-3.6,0-4.3-1c-0.6-0.9-0.4-1.7,0.6-2.3c0.3-0.2,1.3-0.4,2.9-0.7c1.6-0.2,3.1-0.9,4.6-1.9
				c2.6-21.1,6.8-40.2,12.5-57.4c2-5.9,3.8-9.4,5.4-10.5c4.5-3,9.6-0.2,15.1,8.3c2.4,3.6,4.1,7.1,5.1,10.2c0.6,1.9,0.8,4.6,0.5,7.9
				c-0.3,3.4-0.9,6-1.9,7.9c-5.8,11.9-13.9,22-24.1,30.3c-0.5,5.6-1,14-1.6,25.3c0.9-4,2.9-10.3,6.1-19c3.7-10.2,9.1-17.6,16.2-22.2
				c1.8-1.2,3.9-1.5,6.3-0.9c2.4,0.6,4.2,1.7,5.3,3.4c1,1.5,1.5,3.3,1.6,5.3C546.8,430.1,546.2,436.4,544.7,442.7z M535.7,434.1
				c-1.6-1.9-3.5-2.2-5.7-0.7c-3.6,2.4-7.6,8.2-11.7,17.5c-2.4,5.3-4.5,14-6.4,26.1c-0.8,5.2-0.4,8.9,1.1,11.2
				c0.8,1.2,1.8,1.3,3.2,0.4c1.1-0.7,2.5-2.3,4-4.7c4.1-6.2,7.9-15.2,11.5-26.9C535.7,443.4,537,435.8,535.7,434.1z M526.3,406.4
				c3-7.2,4-13.2,3-18c-0.7-3.8-1.4-6.3-2.1-7.3c-0.7-1.1-1.6-1.4-2.5-0.8c-0.5,0.3-1,1.2-1.4,2.7c-4,13.2-7.2,27.4-9.7,42.5
				c0.4-0.3,0.6-0.5,0.9-0.7C517.2,422.4,521.1,416.2,526.3,406.4z"/>
			<path fill="#FFFFFF" d="M571.3,431.2c3.4-8.5,7.4-19,12-31.4c1.5-4.1,2.8-6.5,3.8-7.2c1.5-1,3.5-0.8,6,0.5
				c2.3,1.2,3.9,2.5,4.9,4.1c1.2,1.8,1.8,4.1,1.8,7c2.5-5.5,6.6-10.1,12.3-13.7c0.8-0.5,1.4-0.9,2-1c1.2-0.8,2.1-0.6,2.8,0.4
				c0.7,1.1,0.1,2.5-1.9,4.2c-6.4,5.8-11.5,15.6-15.5,29.4c-1.4,5-2.9,9.3-4.2,12.8c-5.9,15.1-12,24.6-18.2,28.7
				c-4.3,2.8-8.2,1.6-11.5-3.5c-1-1.6-1.4-4.1-1.1-7.6c-1.1-0.5-2-1.2-2.5-2.1c-0.8-1.3-1.2-3.7-1-7.3c0.4-7.4,0.5-13.9,0.5-19.5
				c-1.2,1.7-2.8,3.2-4.7,4.5c-1.2,0.8-2.5,1.5-4.1,2c6.3-11,8.5-24.4,6.5-40c-0.4-3.6,0.1-5.9,1.6-6.9c1.5-1,3.7-1.1,6.6-0.4
				c3,0.7,4.9,1.8,5.9,3.2c1.8,2.7,2.3,7.2,1.6,13.4c-0.6,5.1-1.7,9.6-3.3,13.5C571.6,420,571.5,425.6,571.3,431.2z M575.1,451
				c0.3,0.5,0.8,0.5,1.5,0.1c1.5-1,3.9-4.4,7.1-10.1c4.5-8.1,7.4-17,8.7-26.5c0.5-3.9,0.5-6.1,0.1-6.9c-0.3-0.4-0.7-0.5-1.4-0.1
				c-1.3,0.8-2.9,2.8-4.8,6c-4.6,7.6-7.9,15.7-10,24.2C574.4,445,574,449.4,575.1,451z"/>
			<path fill="#FFFFFF" d="M629.8,346c-0.1,1-0.2,2.6-0.5,4.8c-1.6,15.3-2.5,25.7-2.7,31.3c-0.2,5,0,10.3,0.4,16
				c4.4-8.6,9.3-15.9,14.5-21.9c1-10.3,3.4-21,7.3-32.2c5-14.1,9.6-22.6,14.1-25.5c3.4-2.2,7.1-2.4,10.9-0.4c1.7,0.8,3,2,3.9,3.4
				c2.3,3.6,3.6,10.1,3.7,19.6c0,3.1-0.3,7.8-1,14.2l-0.1,0.7l0.6-0.7c9.2-11.6,15.8-18.7,19.6-21.2c1.4-0.9,2.5-0.8,3.3,0.5
				c0.8,1.2,0.3,2.6-1.5,4.2c-12.6,11.2-21.7,25.9-27.3,44l-0.2,0.7l-0.4,1.4c-2.6,8.2-4.9,14.5-7,18.9c-1.1,2.4-2.2,4-3.4,4.7
				c-2.2,1.5-5.7,1.3-10.4-0.5c-3.8-1.5-6.7-3.6-8.5-6.4c-2.3-3.5-3.6-9-3.8-16.5c-5.9,9.1-9.2,19.7-9.9,31.9c0,1.7-0.2,4.8-0.6,9.3
				l-0.2,1.6c-0.2,1.7-0.7,2.9-1.6,3.4c-1.4,0.9-3.5,0.9-6.4-0.1c-2.2-0.7-3.7-1.9-4.7-3.4c-3.1-4.8-4.2-19.4-3-43.6
				c0.2-3.5,0.6-9,1.3-16.4c-0.6,0.8-1.7,1.7-3.3,2.8c-1.2,0.8-2.8,1.7-4.7,2.7c6-10.4,9.3-18.1,10-23.3c0.2-1.2,0.6-2.1,1.3-2.5
				c0.2-0.1,0.4-0.2,0.6-0.3c2.7-2,5.5-3,8.3-3.1c0.5-0.3,1-0.1,1.4,0.4C629.8,344.9,629.9,345.4,629.8,346z M655.8,391.9
				c0.9,1.3,2.1,1.5,3.6,0.5c3.8-2.4,7.4-9.6,11-21.6c3.4-11.1,4.8-21.1,4.2-30c-0.2-3.8-0.8-6.4-1.8-7.9c-0.9-1.3-2-1.6-3.3-0.8
				c-3.3,2.1-6.4,7.7-9.4,16.6c-2.3,6.9-4,13.2-5,19.1C652.9,379.9,653.2,387.9,655.8,391.9z"/>
			<path fill="#FFFFFF" d="M773.6,293.4c3.6-4.3,9.4-10.5,17.3-18.6c1.9-1.7,3.3-1.9,4.2-0.6c0.6,1,0.1,2.3-1.6,3.9
				c-6.5,6.5-12.2,13.3-17.2,20.5c-3.4,5.1-7.4,13.6-11.9,25.3c-4.5,11.8-8.5,20.3-12.2,25.5c-1.2,1.7-2.3,3-3.5,3.7
				c-1.7,1.1-3.9,1.3-6.5,0.5c-5.6-1.7-9.5-4.3-11.7-7.7c-2.7-4.1-3.8-17.2-3.5-39.3c0.1-1.9,0.4-7.2,1.1-16.1
				c-1.3,0.8-2.4,1.2-3.2,1.4c-2.2,0.3-3.6,0-4.3-1c-0.6-0.9-0.4-1.7,0.6-2.3c0.3-0.2,1.3-0.4,2.9-0.7c1.6-0.2,3.1-0.9,4.6-1.9
				c2.6-21.1,6.8-40.2,12.5-57.4c2-5.9,3.8-9.4,5.4-10.5c4.5-3,9.6-0.2,15.1,8.3c2.4,3.6,4.1,7.1,5.1,10.2c0.6,1.9,0.8,4.6,0.5,7.9
				c-0.3,3.4-0.9,6-1.9,7.9c-5.8,11.9-13.9,22-24.1,30.3c-0.5,5.6-1,14-1.6,25.3c0.9-4,2.9-10.3,6.1-19c3.7-10.2,9.1-17.6,16.2-22.2
				c1.8-1.2,3.9-1.5,6.3-0.9c2.4,0.6,4.2,1.7,5.3,3.4c1,1.5,1.5,3.3,1.6,5.3C775.6,280.8,775.1,287.1,773.6,293.4z M764.5,284.9
				c-1.6-1.9-3.5-2.2-5.7-0.7c-3.6,2.4-7.6,8.2-11.7,17.5c-2.4,5.3-4.5,14-6.4,26.1c-0.8,5.2-0.4,8.9,1.1,11.2
				c0.8,1.2,1.8,1.3,3.2,0.4c1.1-0.7,2.5-2.3,4-4.7c4.1-6.2,7.9-15.2,11.5-26.9C764.5,294.2,765.9,286.5,764.5,284.9z M755.2,257.1
				c3-7.2,4-13.2,3-18c-0.7-3.8-1.4-6.3-2.1-7.3c-0.7-1.1-1.6-1.4-2.5-0.8c-0.5,0.3-1,1.2-1.4,2.7c-4,13.2-7.2,27.4-9.7,42.5
				c0.4-0.3,0.6-0.5,0.9-0.7C746,273.1,750,266.9,755.2,257.1z"/>
		</g>
	</g>
</g>
</svg>
